Beon-Regular.ufo
<glyph name="exclam" format="2">
  <advance width="330"/>
  <unicode hex="0021"/>
  <outline>
    <contour>
      <point x="135" y="723" type="curve" smooth="yes"/>
      <point x="135" y="192" type="line" smooth="yes"/>
      <point x="135" y="175"/>
      <point x="148" y="162"/>
      <point x="165" y="162" type="curve" smooth="yes"/>
      <point x="182" y="162"/>
      <point x="195" y="175"/>
      <point x="195" y="192" type="curve" smooth="yes"/>
      <point x="195" y="723" type="line" smooth="yes"/>
      <point x="195" y="740"/>
      <point x="182" y="753"/>
      <point x="165" y="753" type="curve" smooth="yes"/>
      <point x="148" y="753"/>
      <point x="135" y="740"/>
    </contour>
    <component base="period" xOffset="60"/>
  </outline>
</glyph>
<glyph name="quotedbl" format="2">
  <advance width="137"/>
  <unicode hex="0022"/>
  <outline>
    <contour>
      <point x="1" y="649" type="curve" smooth="yes"/>
      <point x="1" y="492" type="line" smooth="yes"/>
      <point x="1" y="475"/>
      <point x="14" y="462"/>
      <point x="31" y="462" type="curve" smooth="yes"/>
      <point x="48" y="462"/>
      <point x="61" y="475"/>
      <point x="61" y="492" type="curve" smooth="yes"/>
      <point x="61" y="649" type="line" smooth="yes"/>
      <point x="61" y="666"/>
      <point x="48" y="679"/>
      <point x="31" y="679" type="curve" smooth="yes"/>
      <point x="14" y="679"/>
      <point x="1" y="666"/>
    </contour>
    <contour>
      <point x="76" y="649" type="curve" smooth="yes"/>
      <point x="76" y="492" type="line" smooth="yes"/>
      <point x="76" y="475"/>
      <point x="89" y="462"/>
      <point x="106" y="462" type="curve" smooth="yes"/>
      <point x="123" y="462"/>
      <point x="136" y="475"/>
      <point x="136" y="492" type="curve" smooth="yes"/>
      <point x="136" y="649" type="line" smooth="yes"/>
      <point x="136" y="666"/>
      <point x="123" y="679"/>
      <point x="106" y="679" type="curve" smooth="yes"/>
      <point x="89" y="679"/>
      <point x="76" y="666"/>
    </contour>
  </outline>
</glyph>
<glyph name="numbersign" format="2">
  <advance width="786"/>
  <unicode hex="0023"/>
  <outline>
    <contour>
      <point x="172" y="168" type="curve" smooth="yes"/>
      <point x="141" y="32" type="line" smooth="yes"/>
      <point x="137" y="13"/>
      <point x="151" y="-5"/>
      <point x="170" y="-5" type="curve" smooth="yes"/>
      <point x="184" y="-5"/>
      <point x="196" y="5"/>
      <point x="199" y="18" type="curve" smooth="yes"/>
      <point x="230" y="154" type="line" smooth="yes"/>
      <point x="234" y="173"/>
      <point x="220" y="191"/>
      <point x="201" y="191" type="curve" smooth="yes"/>
      <point x="187" y="191"/>
      <point x="175" y="181"/>
    </contour>
    <contour>
      <point x="433" y="269" type="curve" smooth="yes"/>
      <point x="70" y="269" type="line" smooth="yes"/>
      <point x="53" y="269"/>
      <point x="40" y="256"/>
      <point x="40" y="239" type="curve" smooth="yes"/>
      <point x="40" y="222"/>
      <point x="53" y="209"/>
      <point x="70" y="209" type="curve" smooth="yes"/>
      <point x="433" y="209" type="line" smooth="yes"/>
      <point x="450" y="209"/>
      <point x="463" y="222"/>
      <point x="463" y="239" type="curve" smooth="yes"/>
      <point x="463" y="256"/>
      <point x="450" y="269"/>
    </contour>
    <contour>
      <point x="670" y="269" type="curve" smooth="yes"/>
      <point x="602" y="269" type="line" smooth="yes"/>
      <point x="585" y="269"/>
      <point x="572" y="256"/>
      <point x="572" y="239" type="curve" smooth="yes"/>
      <point x="572" y="222"/>
      <point x="585" y="209"/>
      <point x="602" y="209" type="curve" smooth="yes"/>
      <point x="670" y="209" type="line" smooth="yes"/>
      <point x="687" y="209"/>
      <point x="700" y="222"/>
      <point x="700" y="239" type="curve" smooth="yes"/>
      <point x="700" y="256"/>
      <point x="687" y="269"/>
    </contour>
    <contour>
      <point x="176" y="489" type="curve" smooth="yes"/>
      <point x="118" y="489" type="line" smooth="yes"/>
      <point x="101" y="489"/>
      <point x="88" y="476"/>
      <point x="88" y="459" type="curve" smooth="yes"/>
      <point x="88" y="442"/>
      <point x="101" y="429"/>
      <point x="118" y="429" type="curve" smooth="yes"/>
      <point x="176" y="429" type="line" smooth="yes"/>
      <point x="193" y="429"/>
      <point x="206" y="442"/>
      <point x="206" y="459" type="curve" smooth="yes"/>
      <point x="206" y="476"/>
      <point x="193" y="489"/>
    </contour>
    <contour>
      <point x="286" y="679" type="curve" smooth="yes"/>
      <point x="207" y="326" type="line" smooth="yes"/>
      <point x="203" y="307"/>
      <point x="217" y="289"/>
      <point x="236" y="289" type="curve" smooth="yes"/>
      <point x="250" y="289"/>
      <point x="262" y="299"/>
      <point x="265" y="312" type="curve" smooth="yes"/>
      <point x="344" y="665" type="line" smooth="yes"/>
      <point x="348" y="684"/>
      <point x="334" y="702"/>
      <point x="315" y="702" type="curve" smooth="yes"/>
      <point x="301" y="702"/>
      <point x="289" y="692"/>
    </contour>
    <contour>
      <point x="587" y="679" type="curve" smooth="yes"/>
      <point x="556" y="543" type="line" smooth="yes"/>
      <point x="552" y="524"/>
      <point x="566" y="506"/>
      <point x="585" y="506" type="curve" smooth="yes"/>
      <point x="599" y="506"/>
      <point x="611" y="516"/>
      <point x="614" y="529" type="curve" smooth="yes"/>
      <point x="645" y="665" type="line" smooth="yes"/>
      <point x="649" y="684"/>
      <point x="635" y="702"/>
      <point x="616" y="702" type="curve" smooth="yes"/>
      <point x="602" y="702"/>
      <point x="590" y="692"/>
    </contour>
    <contour>
      <point x="351" y="428" type="curve" smooth="yes"/>
      <point x="716" y="428" type="line" smooth="yes"/>
      <point x="733" y="428"/>
      <point x="746" y="441"/>
      <point x="746" y="458" type="curve" smooth="yes"/>
      <point x="746" y="475"/>
      <point x="733" y="488"/>
      <point x="716" y="488" type="curve" smooth="yes"/>
      <point x="351" y="488" type="line" smooth="yes"/>
      <point x="334" y="488"/>
      <point x="321" y="475"/>
      <point x="321" y="458" type="curve" smooth="yes"/>
      <point x="321" y="441"/>
      <point x="334" y="428"/>
    </contour>
    <contour>
      <point x="521" y="385" type="curve" smooth="yes"/>
      <point x="442" y="32" type="line" smooth="yes"/>
      <point x="438" y="13"/>
      <point x="452" y="-5"/>
      <point x="471" y="-5" type="curve" smooth="yes"/>
      <point x="485" y="-5"/>
      <point x="497" y="5"/>
      <point x="500" y="18" type="curve" smooth="yes"/>
      <point x="579" y="371" type="line" smooth="yes"/>
      <point x="583" y="390"/>
      <point x="569" y="408"/>
      <point x="550" y="408" type="curve" smooth="yes"/>
      <point x="536" y="408"/>
      <point x="524" y="398"/>
    </contour>
  </outline>
</glyph>
<glyph name="dollar" format="2">
  <advance width="535"/>
  <unicode hex="0024"/>
  <anchor x="312" y="16" name="bottom"/>
  <anchor x="312" y="774" name="top"/>
  <outline>
    <contour>
      <point x="298" y="788" type="curve" smooth="yes"/>
      <point x="298" y="879" type="line" smooth="yes"/>
      <point x="298" y="896"/>
      <point x="285" y="909"/>
      <point x="268" y="909" type="curve" smooth="yes"/>
      <point x="251" y="909"/>
      <point x="238" y="896"/>
      <point x="238" y="879" type="curve" smooth="yes"/>
      <point x="238" y="788" type="line" smooth="yes"/>
      <point x="238" y="771"/>
      <point x="251" y="758"/>
      <point x="268" y="758" type="curve" smooth="yes"/>
      <point x="285" y="758"/>
      <point x="298" y="771"/>
    </contour>
    <contour>
      <point x="298" y="-155" type="curve" smooth="yes"/>
      <point x="298" y="-64" type="line" smooth="yes"/>
      <point x="298" y="-47"/>
      <point x="285" y="-34"/>
      <point x="268" y="-34" type="curve" smooth="yes"/>
      <point x="251" y="-34"/>
      <point x="238" y="-47"/>
      <point x="238" y="-64" type="curve" smooth="yes"/>
      <point x="238" y="-155" type="line" smooth="yes"/>
      <point x="238" y="-172"/>
      <point x="251" y="-185"/>
      <point x="268" y="-185" type="curve" smooth="yes"/>
      <point x="285" y="-185"/>
      <point x="298" y="-172"/>
    </contour>
    <component base="S"/>
  </outline>
</glyph>
<glyph name="percent" format="2">
  <advance width="631"/>
  <unicode hex="0025"/>
  <outline>
    <contour>
      <point x="-7" y="502" type="curve"/>
      <point x="-5" y="503" type="line"/>
      <point x="-5" y="492" type="line" smooth="yes"/>
      <point x="-4" y="454"/>
      <point x="4" y="413"/>
      <point x="28" y="377" type="curve" smooth="yes"/>
      <point x="40" y="359"/>
      <point x="56" y="343"/>
      <point x="76" y="331" type="curve" smooth="yes"/>
      <point x="95" y="320"/>
      <point x="117" y="314"/>
      <point x="140" y="314" type="curve" smooth="yes"/>
      <point x="144" y="314" type="line" smooth="yes"/>
      <point x="164" y="315"/>
      <point x="188" y="321"/>
      <point x="210" y="335" type="curve" smooth="yes"/>
      <point x="229" y="347"/>
      <point x="244" y="364"/>
      <point x="255" y="382" type="curve" smooth="yes"/>
      <point x="276" y="418"/>
      <point x="282" y="458"/>
      <point x="282" y="495" type="curve" smooth="yes"/>
      <point x="282" y="531"/>
      <point x="277" y="575"/>
      <point x="252" y="615" type="curve" smooth="yes"/>
      <point x="240" y="634"/>
      <point x="224" y="651"/>
      <point x="203" y="663" type="curve" smooth="yes"/>
      <point x="180" y="677"/>
      <point x="156" y="682"/>
      <point x="136" y="682" type="curve" smooth="yes"/>
      <point x="132" y="682" type="line" smooth="yes"/>
      <point x="112" y="681"/>
      <point x="88" y="675"/>
      <point x="65" y="660" type="curve" smooth="yes"/>
      <point x="45" y="647"/>
      <point x="30" y="629"/>
      <point x="19" y="610" type="curve" smooth="yes"/>
      <point x="-1" y="576"/>
      <point x="-7" y="538"/>
    </contour>
    <contour>
      <point x="532" y="662" type="curve" smooth="yes"/>
      <point x="40" y="18" type="line" smooth="yes"/>
      <point x="36" y="13"/>
      <point x="34" y="7"/>
      <point x="34" y="0" type="curve" smooth="yes"/>
      <point x="34" y="-9"/>
      <point x="38" y="-18"/>
      <point x="46" y="-24" type="curve" smooth="yes"/>
      <point x="51" y="-28"/>
      <point x="57" y="-30"/>
      <point x="64" y="-30" type="curve" smooth="yes"/>
      <point x="73" y="-30"/>
      <point x="82" y="-26"/>
      <point x="88" y="-18" type="curve" smooth="yes"/>
      <point x="580" y="626" type="line" smooth="yes"/>
      <point x="584" y="631"/>
      <point x="586" y="637"/>
      <point x="586" y="644" type="curve" smooth="yes"/>
      <point x="586" y="653"/>
      <point x="582" y="662"/>
      <point x="574" y="668" type="curve" smooth="yes"/>
      <point x="569" y="672"/>
      <point x="563" y="674"/>
      <point x="556" y="674" type="curve" smooth="yes"/>
      <point x="547" y="674"/>
      <point x="538" y="670"/>
    </contour>
    <contour>
      <point x="134" y="620" type="curve" smooth="yes"/>
      <point x="136" y="620" type="line" smooth="yes"/>
      <point x="147" y="620"/>
      <point x="160" y="617"/>
      <point x="172" y="610" type="curve" smooth="yes"/>
      <point x="183" y="603"/>
      <point x="193" y="593"/>
      <point x="200" y="581" type="curve" smooth="yes"/>
      <point x="215" y="556"/>
      <point x="221" y="526"/>
      <point x="221" y="492" type="curve" smooth="yes"/>
      <point x="221" y="462"/>
      <point x="216" y="433"/>
      <point x="202" y="410" type="curve" smooth="yes"/>
      <point x="195" y="399"/>
      <point x="186" y="389"/>
      <point x="176" y="382" type="curve" smooth="yes"/>
      <point x="164" y="374"/>
      <point x="151" y="371"/>
      <point x="140" y="371" type="curve" smooth="yes"/>
      <point x="138" y="371" type="line" smooth="yes"/>
      <point x="126" y="371"/>
      <point x="114" y="374"/>
      <point x="104" y="380" type="curve" smooth="yes"/>
      <point x="93" y="386"/>
      <point x="83" y="395"/>
      <point x="76" y="406" type="curve" smooth="yes"/>
      <point x="61" y="429"/>
      <point x="54" y="458"/>
      <point x="53" y="489" type="curve" smooth="yes"/>
      <point x="53" y="502" type="line" smooth="yes"/>
      <point x="53" y="531"/>
      <point x="58" y="558"/>
      <point x="71" y="580" type="curve" smooth="yes"/>
      <point x="78" y="592"/>
      <point x="87" y="602"/>
      <point x="98" y="609" type="curve" smooth="yes"/>
      <point x="110" y="617"/>
      <point x="123" y="620"/>
    </contour>
    <contour>
      <point x="332" y="158" type="curve"/>
      <point x="334" y="159" type="line"/>
      <point x="334" y="148" type="line" smooth="yes"/>
      <point x="335" y="110"/>
      <point x="343" y="69"/>
      <point x="367" y="33" type="curve" smooth="yes"/>
      <point x="379" y="15"/>
      <point x="395" y="-1"/>
      <point x="415" y="-13" type="curve" smooth="yes"/>
      <point x="434" y="-24"/>
      <point x="456" y="-30"/>
      <point x="479" y="-30" type="curve" smooth="yes"/>
      <point x="483" y="-30" type="line" smooth="yes"/>
      <point x="503" y="-29"/>
      <point x="527" y="-23"/>
      <point x="549" y="-9" type="curve" smooth="yes"/>
      <point x="568" y="3"/>
      <point x="583" y="20"/>
      <point x="594" y="38" type="curve" smooth="yes"/>
      <point x="615" y="74"/>
      <point x="621" y="114"/>
      <point x="621" y="151" type="curve" smooth="yes"/>
      <point x="621" y="187"/>
      <point x="616" y="231"/>
      <point x="591" y="271" type="curve" smooth="yes"/>
      <point x="579" y="290"/>
      <point x="563" y="307"/>
      <point x="542" y="319" type="curve" smooth="yes"/>
      <point x="519" y="333"/>
      <point x="495" y="338"/>
      <point x="475" y="338" type="curve" smooth="yes"/>
      <point x="471" y="338" type="line" smooth="yes"/>
      <point x="451" y="337"/>
      <point x="427" y="331"/>
      <point x="404" y="316" type="curve" smooth="yes"/>
      <point x="384" y="303"/>
      <point x="369" y="285"/>
      <point x="358" y="266" type="curve" smooth="yes"/>
      <point x="338" y="232"/>
      <point x="332" y="194"/>
    </contour>
    <contour>
      <point x="473" y="276" type="curve" smooth="yes"/>
      <point x="475" y="276" type="line" smooth="yes"/>
      <point x="486" y="276"/>
      <point x="499" y="273"/>
      <point x="511" y="266" type="curve" smooth="yes"/>
      <point x="522" y="259"/>
      <point x="532" y="249"/>
      <point x="539" y="237" type="curve" smooth="yes"/>
      <point x="554" y="212"/>
      <point x="560" y="182"/>
      <point x="560" y="148" type="curve" smooth="yes"/>
      <point x="560" y="118"/>
      <point x="555" y="89"/>
      <point x="541" y="66" type="curve" smooth="yes"/>
      <point x="534" y="55"/>
      <point x="525" y="45"/>
      <point x="515" y="38" type="curve" smooth="yes"/>
      <point x="503" y="30"/>
      <point x="490" y="27"/>
      <point x="479" y="27" type="curve" smooth="yes"/>
      <point x="477" y="27" type="line" smooth="yes"/>
      <point x="465" y="27"/>
      <point x="453" y="30"/>
      <point x="443" y="36" type="curve" smooth="yes"/>
      <point x="432" y="42"/>
      <point x="422" y="51"/>
      <point x="415" y="62" type="curve" smooth="yes"/>
      <point x="400" y="85"/>
      <point x="393" y="114"/>
      <point x="392" y="145" type="curve" smooth="yes"/>
      <point x="392" y="158" type="line" smooth="yes"/>
      <point x="392" y="187"/>
      <point x="397" y="214"/>
      <point x="410" y="236" type="curve" smooth="yes"/>
      <point x="417" y="248"/>
      <point x="426" y="258"/>
      <point x="437" y="265" type="curve" smooth="yes"/>
      <point x="449" y="273"/>
      <point x="462" y="276"/>
    </contour>
  </outline>
</glyph>
<glyph name="ampersand" format="2">
  <advance width="665"/>
  <unicode hex="0026"/>
  <outline>
    <contour>
      <point x="346" y="440" type="curve" smooth="yes"/>
      <point x="403" y="479"/>
      <point x="453" y="526"/>
      <point x="453" y="596" type="curve" smooth="yes"/>
      <point x="453" y="681"/>
      <point x="382" y="740"/>
      <point x="298" y="740" type="curve" smooth="yes"/>
      <point x="296" y="740" type="line" smooth="yes"/>
      <point x="205" y="740"/>
      <point x="128" y="682"/>
      <point x="128" y="583" type="curve" smooth="yes"/>
      <point x="128" y="534"/>
      <point x="154" y="483"/>
      <point x="193" y="440" type="curve" smooth="yes"/>
      <point x="593" y="4" type="line" smooth="yes"/>
      <point x="598" y="-2"/>
      <point x="606" y="-6"/>
      <point x="615" y="-6" type="curve" smooth="yes"/>
      <point x="632" y="-6"/>
      <point x="645" y="7"/>
      <point x="645" y="24" type="curve" smooth="yes"/>
      <point x="645" y="32"/>
      <point x="642" y="39"/>
      <point x="637" y="44" type="curve" smooth="yes"/>
      <point x="237" y="480" type="line" smooth="yes"/>
      <point x="205" y="516"/>
      <point x="188" y="550"/>
      <point x="188" y="583" type="curve" smooth="yes"/>
      <point x="188" y="648"/>
      <point x="229" y="680"/>
      <point x="296" y="680" type="curve" smooth="yes"/>
      <point x="298" y="680" type="line" smooth="yes"/>
      <point x="356" y="680"/>
      <point x="393" y="649"/>
      <point x="393" y="596" type="curve" smooth="yes"/>
      <point x="393" y="553"/>
      <point x="364" y="524"/>
      <point x="312" y="490" type="curve" smooth="yes"/>
      <point x="304" y="485"/>
      <point x="299" y="475"/>
      <point x="299" y="465" type="curve" smooth="yes"/>
      <point x="299" y="448"/>
      <point x="312" y="435"/>
      <point x="329" y="435" type="curve" smooth="yes"/>
      <point x="335" y="435"/>
      <point x="341" y="437"/>
    </contour>
    <contour>
      <point x="410" y="112" type="curve" smooth="yes"/>
      <point x="359" y="74"/>
      <point x="306" y="55"/>
      <point x="251" y="55" type="curve" smooth="yes"/>
      <point x="170" y="55"/>
      <point x="100" y="97"/>
      <point x="100" y="189" type="curve" smooth="yes"/>
      <point x="100" y="259"/>
      <point x="138" y="303"/>
      <point x="194" y="345" type="curve" smooth="yes"/>
      <point x="201" y="350"/>
      <point x="206" y="359"/>
      <point x="206" y="369" type="curve" smooth="yes"/>
      <point x="206" y="386"/>
      <point x="193" y="399"/>
      <point x="176" y="399" type="curve" smooth="yes"/>
      <point x="169" y="399"/>
      <point x="163" y="397"/>
      <point x="158" y="393" type="curve" smooth="yes"/>
      <point x="95" y="346"/>
      <point x="40" y="283"/>
      <point x="40" y="189" type="curve" smooth="yes"/>
      <point x="40" y="61"/>
      <point x="148" y="-5"/>
      <point x="251" y="-5" type="curve" smooth="yes"/>
      <point x="317" y="-5"/>
      <point x="386" y="20"/>
      <point x="446" y="64" type="curve" smooth="yes"/>
      <point x="453" y="69"/>
      <point x="458" y="78"/>
      <point x="458" y="88" type="curve" smooth="yes"/>
      <point x="458" y="105"/>
      <point x="445" y="118"/>
      <point x="428" y="118" type="curve" smooth="yes"/>
      <point x="421" y="118"/>
      <point x="415" y="116"/>
    </contour>
    <contour>
      <point x="560" y="453" type="curve" smooth="yes"/>
      <point x="560" y="372"/>
      <point x="545" y="306"/>
      <point x="517" y="248" type="curve" smooth="yes"/>
      <point x="515" y="244"/>
      <point x="514" y="240"/>
      <point x="514" y="235" type="curve" smooth="yes"/>
      <point x="514" y="218"/>
      <point x="527" y="205"/>
      <point x="544" y="205" type="curve" smooth="yes"/>
      <point x="556" y="205"/>
      <point x="566" y="212"/>
      <point x="571" y="222" type="curve" smooth="yes"/>
      <point x="602" y="287"/>
      <point x="620" y="365"/>
      <point x="620" y="453" type="curve" smooth="yes"/>
      <point x="620" y="470"/>
      <point x="607" y="483"/>
      <point x="590" y="483" type="curve" smooth="yes"/>
      <point x="573" y="483"/>
      <point x="560" y="470"/>
    </contour>
  </outline>
</glyph>
<glyph name="quotesingle" format="2">
  <advance width="220"/>
  <unicode hex="0027"/>
  <outline>
    <contour>
      <point x="80" y="785" type="curve" smooth="yes"/>
      <point x="80" y="536" type="line" smooth="yes"/>
      <point x="80" y="519"/>
      <point x="93" y="506"/>
      <point x="110" y="506" type="curve" smooth="yes"/>
      <point x="127" y="506"/>
      <point x="140" y="519"/>
      <point x="140" y="536" type="curve" smooth="yes"/>
      <point x="140" y="785" type="line" smooth="yes"/>
      <point x="140" y="802"/>
      <point x="127" y="815"/>
      <point x="110" y="815" type="curve" smooth="yes"/>
      <point x="93" y="815"/>
      <point x="80" y="802"/>
    </contour>
  </outline>
</glyph>
<glyph name="parenleft" format="2">
  <advance width="250"/>
  <unicode hex="0028"/>
  <outline>
    <contour>
      <point x="235" y="-77" type="curve" smooth="yes"/>
      <point x="172" y="18"/>
      <point x="93" y="156"/>
      <point x="90" y="348" type="curve" smooth="yes"/>
      <point x="93" y="550"/>
      <point x="169" y="684"/>
      <point x="233" y="770" type="curve" smooth="yes"/>
      <point x="237" y="775"/>
      <point x="239" y="781"/>
      <point x="239" y="788" type="curve" smooth="yes"/>
      <point x="239" y="805"/>
      <point x="226" y="818"/>
      <point x="209" y="818" type="curve" smooth="yes"/>
      <point x="199" y="818"/>
      <point x="190" y="813"/>
      <point x="185" y="806" type="curve" smooth="yes"/>
      <point x="118" y="716"/>
      <point x="33" y="567"/>
      <point x="30" y="348" type="curve" smooth="yes"/>
      <point x="33" y="139"/>
      <point x="120" y="-13"/>
      <point x="185" y="-111" type="curve" smooth="yes"/>
      <point x="190" y="-119"/>
      <point x="200" y="-124"/>
      <point x="210" y="-124" type="curve" smooth="yes"/>
      <point x="227" y="-124"/>
      <point x="240" y="-111"/>
      <point x="240" y="-94" type="curve" smooth="yes"/>
      <point x="240" y="-88"/>
      <point x="238" y="-82"/>
    </contour>
  </outline>
</glyph>
<glyph name="parenright" format="2">
  <advance width="242"/>
  <unicode hex="0029"/>
  <outline>
    <contour>
      <point x="123" y="308" type="curve"/>
      <point x="124" y="310" type="line"/>
      <point x="124" y="198"/>
      <point x="95" y="86"/>
      <point x="41" y="-12" type="curve"/>
      <point x="39" y="-17"/>
      <point x="37" y="-22"/>
      <point x="37" y="-27" type="curve" smooth="yes"/>
      <point x="37" y="-42"/>
      <point x="48" y="-57"/>
      <point x="68" y="-57" type="curve" smooth="yes"/>
      <point x="78" y="-57"/>
      <point x="89" y="-51"/>
      <point x="94" y="-41" type="curve" smooth="yes"/>
      <point x="153" y="66"/>
      <point x="184" y="187"/>
      <point x="184" y="309" type="curve" smooth="yes"/>
      <point x="184" y="430"/>
      <point x="153" y="551"/>
      <point x="95" y="657" type="curve" smooth="yes"/>
      <point x="90" y="667"/>
      <point x="79" y="673"/>
      <point x="69" y="673" type="curve" smooth="yes"/>
      <point x="64" y="673"/>
      <point x="59" y="672"/>
      <point x="54" y="669" type="curve" smooth="yes"/>
      <point x="44" y="664"/>
      <point x="38" y="653"/>
      <point x="38" y="643" type="curve" smooth="yes"/>
      <point x="38" y="638"/>
      <point x="39" y="633"/>
      <point x="42" y="628" type="curve" smooth="yes"/>
      <point x="95" y="530"/>
      <point x="123" y="419"/>
    </contour>
  </outline>
</glyph>
<glyph name="asterisk" format="2">
  <advance width="267"/>
  <unicode hex="002A"/>
  <outline>
    <contour>
      <point x="104" y="642" type="curve" smooth="yes"/>
      <point x="104" y="594" type="line"/>
      <point x="62" y="618" type="line"/>
      <point x="58" y="621"/>
      <point x="53" y="622"/>
      <point x="48" y="622" type="curve" smooth="yes"/>
      <point x="33" y="622"/>
      <point x="18" y="611"/>
      <point x="18" y="593" type="curve" smooth="yes"/>
      <point x="18" y="582"/>
      <point x="24" y="572"/>
      <point x="33" y="567" type="curve" smooth="yes"/>
      <point x="75" y="543" type="line"/>
      <point x="33" y="519" type="line" smooth="yes"/>
      <point x="24" y="514"/>
      <point x="18" y="504"/>
      <point x="18" y="493" type="curve" smooth="yes"/>
      <point x="18" y="488"/>
      <point x="19" y="484"/>
      <point x="22" y="479" type="curve" smooth="yes"/>
      <point x="27" y="470"/>
      <point x="37" y="464"/>
      <point x="48" y="464" type="curve" smooth="yes"/>
      <point x="53" y="464"/>
      <point x="57" y="465"/>
      <point x="62" y="468" type="curve" smooth="yes"/>
      <point x="104" y="492" type="line"/>
      <point x="104" y="444" type="line" smooth="yes"/>
      <point x="104" y="427"/>
      <point x="117" y="414"/>
      <point x="134" y="414" type="curve" smooth="yes"/>
      <point x="151" y="414"/>
      <point x="164" y="427"/>
      <point x="164" y="444" type="curve" smooth="yes"/>
      <point x="164" y="492" type="line"/>
      <point x="206" y="468" type="line"/>
      <point x="211" y="466"/>
      <point x="216" y="464"/>
      <point x="220" y="464" type="curve" smooth="yes"/>
      <point x="235" y="464"/>
      <point x="250" y="475"/>
      <point x="250" y="493" type="curve" smooth="yes"/>
      <point x="250" y="504"/>
      <point x="244" y="514"/>
      <point x="235" y="519" type="curve" smooth="yes"/>
      <point x="193" y="543" type="line"/>
      <point x="235" y="567" type="line" smooth="yes"/>
      <point x="244" y="572"/>
      <point x="250" y="582"/>
      <point x="250" y="593" type="curve" smooth="yes"/>
      <point x="250" y="598"/>
      <point x="249" y="602"/>
      <point x="246" y="607" type="curve" smooth="yes"/>
      <point x="241" y="616"/>
      <point x="231" y="622"/>
      <point x="220" y="622" type="curve" smooth="yes"/>
      <point x="215" y="622"/>
      <point x="211" y="621"/>
      <point x="206" y="618" type="curve" smooth="yes"/>
      <point x="164" y="594" type="line"/>
      <point x="164" y="642" type="line" smooth="yes"/>
      <point x="164" y="659"/>
      <point x="151" y="672"/>
      <point x="134" y="672" type="curve" smooth="yes"/>
      <point x="117" y="672"/>
      <point x="104" y="659"/>
    </contour>
  </outline>
</glyph>
<glyph name="plus" format="2">
  <advance width="600"/>
  <unicode hex="002B"/>
  <outline>
    <contour>
      <point x="270" y="189" type="curve" smooth="yes"/>
      <point x="270" y="20" type="line" smooth="yes"/>
      <point x="270" y="3"/>
      <point x="283" y="-10"/>
      <point x="300" y="-10" type="curve" smooth="yes"/>
      <point x="317" y="-10"/>
      <point x="330" y="3"/>
      <point x="330" y="20" type="curve" smooth="yes"/>
      <point x="330" y="189" type="line" smooth="yes"/>
      <point x="330" y="206"/>
      <point x="317" y="219"/>
      <point x="300" y="219" type="curve" smooth="yes"/>
      <point x="283" y="219"/>
      <point x="270" y="206"/>
    </contour>
    <contour>
      <point x="548" y="319" type="curve" smooth="yes"/>
      <point x="52" y="319" type="line" smooth="yes"/>
      <point x="35" y="319"/>
      <point x="22" y="306"/>
      <point x="22" y="289" type="curve" smooth="yes"/>
      <point x="22" y="272"/>
      <point x="35" y="259"/>
      <point x="52" y="259" type="curve" smooth="yes"/>
      <point x="548" y="259" type="line" smooth="yes"/>
      <point x="565" y="259"/>
      <point x="578" y="272"/>
      <point x="578" y="289" type="curve" smooth="yes"/>
      <point x="578" y="306"/>
      <point x="565" y="319"/>
    </contour>
    <contour>
      <point x="270" y="558" type="curve" smooth="yes"/>
      <point x="270" y="389" type="line" smooth="yes"/>
      <point x="270" y="372"/>
      <point x="283" y="359"/>
      <point x="300" y="359" type="curve" smooth="yes"/>
      <point x="317" y="359"/>
      <point x="330" y="372"/>
      <point x="330" y="389" type="curve" smooth="yes"/>
      <point x="330" y="558" type="line" smooth="yes"/>
      <point x="330" y="575"/>
      <point x="317" y="588"/>
      <point x="300" y="588" type="curve" smooth="yes"/>
      <point x="283" y="588"/>
      <point x="270" y="575"/>
    </contour>
  </outline>
</glyph>
<glyph name="comma" format="2">
  <advance width="208"/>
  <unicode hex="002C"/>
  <outline>
    <contour>
      <point x="104" y="103" type="curve" smooth="yes"/>
      <point x="97" y="103" type="line" smooth="yes"/>
      <point x="61" y="103"/>
      <point x="32" y="74"/>
      <point x="32" y="38" type="curve" smooth="yes"/>
      <point x="32" y="8"/>
      <point x="52" y="-17"/>
      <point x="79" y="-25" type="curve"/>
      <point x="69" y="-36"/>
      <point x="58" y="-47"/>
      <point x="47" y="-58" type="curve" smooth="yes"/>
      <point x="41" y="-64"/>
      <point x="38" y="-71"/>
      <point x="38" y="-79" type="curve" smooth="yes"/>
      <point x="38" y="-87"/>
      <point x="41" y="-94"/>
      <point x="46" y="-100" type="curve" smooth="yes"/>
      <point x="52" y="-106"/>
      <point x="59" y="-109"/>
      <point x="67" y="-109" type="curve" smooth="yes"/>
      <point x="75" y="-109"/>
      <point x="82" y="-106"/>
      <point x="88" y="-101" type="curve" smooth="yes"/>
      <point x="100" y="-89"/>
      <point x="112" y="-77"/>
      <point x="124" y="-64" type="curve" smooth="yes"/>
      <point x="134" y="-53"/>
      <point x="144" y="-41"/>
      <point x="153" y="-26" type="curve" smooth="yes"/>
      <point x="163" y="-8"/>
      <point x="167" y="10"/>
      <point x="167" y="26" type="curve" smooth="yes"/>
      <point x="167" y="30" type="line" smooth="yes"/>
      <point x="166" y="46"/>
      <point x="161" y="60"/>
      <point x="154" y="70" type="curve" smooth="yes"/>
      <point x="143" y="88"/>
      <point x="116" y="103"/>
    </contour>
  </outline>
</glyph>
<glyph name="hyphen" format="2">
  <advance width="203"/>
  <unicode hex="002D"/>
  <outline>
    <contour>
      <point x="185" y="311" type="curve" smooth="yes"/>
      <point x="15" y="311" type="line" smooth="yes"/>
      <point x="-2" y="311"/>
      <point x="-15" y="298"/>
      <point x="-15" y="281" type="curve" smooth="yes"/>
      <point x="-15" y="264"/>
      <point x="-2" y="251"/>
      <point x="15" y="251" type="curve" smooth="yes"/>
      <point x="185" y="251" type="line" smooth="yes"/>
      <point x="202" y="251"/>
      <point x="215" y="264"/>
      <point x="215" y="281" type="curve" smooth="yes"/>
      <point x="215" y="298"/>
      <point x="202" y="311"/>
    </contour>
  </outline>
</glyph>
<glyph name="period" format="2">
  <advance width="170"/>
  <unicode hex="002E"/>
  <outline>
    <contour>
      <point x="84" y="104" type="curve" smooth="yes"/>
      <point x="47" y="104"/>
      <point x="17" y="74"/>
      <point x="17" y="37" type="curve" smooth="yes"/>
      <point x="17" y="0"/>
      <point x="47" y="-30"/>
      <point x="84" y="-30" type="curve" smooth="yes"/>
      <point x="121" y="-30"/>
      <point x="151" y="0"/>
      <point x="151" y="37" type="curve" smooth="yes"/>
      <point x="151" y="74"/>
      <point x="121" y="104"/>
    </contour>
  </outline>
</glyph>
<glyph name="slash" format="2">
  <advance width="405"/>
  <unicode hex="002F"/>
  <outline>
    <contour>
      <point x="327" y="744" type="curve" smooth="yes"/>
      <point x="22" y="27" type="line"/>
      <point x="21" y="23"/>
      <point x="20" y="19"/>
      <point x="20" y="15" type="curve" smooth="yes"/>
      <point x="20" y="-2"/>
      <point x="33" y="-15"/>
      <point x="50" y="-15" type="curve" smooth="yes"/>
      <point x="62" y="-15"/>
      <point x="73" y="-7"/>
      <point x="78" y="3" type="curve" smooth="yes"/>
      <point x="383" y="720" type="line"/>
      <point x="384" y="724"/>
      <point x="385" y="728"/>
      <point x="385" y="732" type="curve" smooth="yes"/>
      <point x="385" y="749"/>
      <point x="372" y="762"/>
      <point x="355" y="762" type="curve" smooth="yes"/>
      <point x="343" y="762"/>
      <point x="332" y="754"/>
    </contour>
  </outline>
</glyph>
<glyph name="zero" format="2">
  <advance width="615"/>
  <unicode hex="0030"/>
  <outline>
    <contour>
      <point x="301" y="642" type="curve" smooth="yes"/>
      <point x="295" y="642" type="line" smooth="yes"/>
      <point x="259" y="641"/>
      <point x="216" y="631"/>
      <point x="176" y="604" type="curve" smooth="yes"/>
      <point x="141" y="581"/>
      <point x="114" y="550"/>
      <point x="94" y="515" type="curve" smooth="yes"/>
      <point x="62" y="459"/>
      <point x="46" y="386"/>
      <point x="46" y="311" type="curve" smooth="yes"/>
      <point x="46" y="227"/>
      <point x="66" y="142"/>
      <point x="107" y="80" type="curve" smooth="yes"/>
      <point x="129" y="47"/>
      <point x="158" y="18"/>
      <point x="194" y="-3" type="curve" smooth="yes"/>
      <point x="228" y="-23"/>
      <point x="267" y="-34"/>
      <point x="307" y="-34" type="curve" smooth="yes"/>
      <point x="313" y="-34" type="line" smooth="yes"/>
      <point x="355" y="-33"/>
      <point x="395" y="-20"/>
      <point x="429" y="2" type="curve" smooth="yes"/>
      <point x="463" y="24"/>
      <point x="490" y="54"/>
      <point x="510" y="87" type="curve" smooth="yes"/>
      <point x="549" y="152"/>
      <point x="561" y="226"/>
      <point x="561" y="297" type="curve" smooth="yes"/>
      <point x="561" y="374"/>
      <point x="548" y="453"/>
      <point x="505" y="522" type="curve" smooth="yes"/>
      <point x="484" y="556"/>
      <point x="455" y="587"/>
      <point x="419" y="609" type="curve" smooth="yes"/>
      <point x="384" y="630"/>
      <point x="343" y="642"/>
    </contour>
    <contour>
      <point x="104" y="296" type="curve"/>
      <point x="104" y="315" type="line" smooth="yes"/>
      <point x="104" y="362"/>
      <point x="110" y="428"/>
      <point x="143" y="486" type="curve" smooth="yes"/>
      <point x="159" y="513"/>
      <point x="180" y="537"/>
      <point x="206" y="554" type="curve" smooth="yes"/>
      <point x="236" y="574"/>
      <point x="268" y="582"/>
      <point x="295" y="583" type="curve" smooth="yes"/>
      <point x="299" y="583" type="line" smooth="yes"/>
      <point x="329" y="583"/>
      <point x="360" y="574"/>
      <point x="386" y="559" type="curve" smooth="yes"/>
      <point x="413" y="543"/>
      <point x="436" y="519"/>
      <point x="453" y="492" type="curve" smooth="yes"/>
      <point x="488" y="436"/>
      <point x="500" y="370"/>
      <point x="500" y="300" type="curve" smooth="yes"/>
      <point x="500" y="251"/>
      <point x="494" y="181"/>
      <point x="458" y="121" type="curve" smooth="yes"/>
      <point x="442" y="95"/>
      <point x="421" y="72"/>
      <point x="396" y="56" type="curve" smooth="yes"/>
      <point x="371" y="40"/>
      <point x="341" y="30"/>
      <point x="311" y="29" type="curve" smooth="yes"/>
      <point x="307" y="29" type="line" smooth="yes"/>
      <point x="278" y="29"/>
      <point x="248" y="37"/>
      <point x="223" y="51" type="curve" smooth="yes"/>
      <point x="197" y="66"/>
      <point x="174" y="88"/>
      <point x="157" y="114" type="curve" smooth="yes"/>
      <point x="124" y="164"/>
      <point x="109" y="232"/>
    </contour>
  </outline>
</glyph>
<glyph name="one" format="2">
  <advance width="391"/>
  <unicode hex="0031"/>
  <outline>
    <contour>
      <point x="231" y="700" type="curve" smooth="yes"/>
      <point x="231" y="30" type="line" smooth="yes"/>
      <point x="231" y="13"/>
      <point x="244" y="0"/>
      <point x="261" y="0" type="curve" smooth="yes"/>
      <point x="278" y="0"/>
      <point x="291" y="13"/>
      <point x="291" y="30" type="curve" smooth="yes"/>
      <point x="291" y="700" type="line" smooth="yes"/>
      <point x="291" y="717"/>
      <point x="278" y="730"/>
      <point x="261" y="730" type="curve" smooth="yes"/>
      <point x="244" y="730"/>
      <point x="231" y="717"/>
    </contour>
    <contour>
      <point x="86" y="563" type="curve"/>
      <point x="192" y="628" type="line"/>
      <point x="201" y="633"/>
      <point x="206" y="643"/>
      <point x="206" y="654" type="curve" smooth="yes"/>
      <point x="206" y="671"/>
      <point x="193" y="684"/>
      <point x="176" y="684" type="curve" smooth="yes"/>
      <point x="170" y="684"/>
      <point x="165" y="683"/>
      <point x="160" y="680" type="curve"/>
      <point x="54" y="615" type="line"/>
      <point x="45" y="610"/>
      <point x="40" y="600"/>
      <point x="40" y="589" type="curve" smooth="yes"/>
      <point x="40" y="572"/>
      <point x="53" y="559"/>
      <point x="70" y="559" type="curve" smooth="yes"/>
      <point x="76" y="559"/>
      <point x="81" y="560"/>
    </contour>
  </outline>
</glyph>
<glyph name="two" format="2">
  <advance width="513"/>
  <unicode hex="0032"/>
  <outline>
    <contour>
      <point x="266" y="639" type="curve" smooth="yes"/>
      <point x="264" y="639" type="line" smooth="yes"/>
      <point x="229" y="639"/>
      <point x="186" y="630"/>
      <point x="148" y="604" type="curve" smooth="yes"/>
      <point x="114" y="580"/>
      <point x="89" y="546"/>
      <point x="79" y="507" type="curve" smooth="yes"/>
      <point x="74" y="489"/>
      <point x="88" y="470"/>
      <point x="108" y="470" type="curve" smooth="yes"/>
      <point x="122" y="470"/>
      <point x="134" y="479"/>
      <point x="137" y="493" type="curve" smooth="yes"/>
      <point x="143" y="517"/>
      <point x="159" y="540"/>
      <point x="182" y="556" type="curve" smooth="yes"/>
      <point x="208" y="575"/>
      <point x="238" y="582"/>
      <point x="262" y="582" type="curve" smooth="yes"/>
      <point x="264" y="582" type="line" smooth="yes"/>
      <point x="287" y="582"/>
      <point x="317" y="575"/>
      <point x="342" y="556" type="curve" smooth="yes"/>
      <point x="363" y="540"/>
      <point x="377" y="518"/>
      <point x="381" y="495" type="curve" smooth="yes"/>
      <point x="382" y="489"/>
      <point x="383" y="483"/>
      <point x="383" y="477" type="curve" smooth="yes"/>
      <point x="383" y="465"/>
      <point x="381" y="453"/>
      <point x="377" y="441" type="curve" smooth="yes"/>
      <point x="371" y="423"/>
      <point x="360" y="405"/>
      <point x="346" y="388" type="curve" smooth="yes"/>
      <point x="315" y="351"/>
      <point x="269" y="320"/>
      <point x="223" y="286" type="curve" smooth="yes"/>
      <point x="177" y="252"/>
      <point x="130" y="213"/>
      <point x="98" y="162" type="curve" smooth="yes"/>
      <point x="72" y="120"/>
      <point x="57" y="72"/>
      <point x="57" y="23" type="curve" smooth="yes"/>
      <point x="57" y="18" type="line" smooth="yes"/>
      <point x="57" y="11"/>
      <point x="57" y="4"/>
      <point x="58" y="-3" type="curve" smooth="yes"/>
      <point x="59" y="-18"/>
      <point x="73" y="-30"/>
      <point x="88" y="-30" type="curve" smooth="yes"/>
      <point x="106" y="-30"/>
      <point x="119" y="-15"/>
      <point x="118" y="3" type="curve" smooth="yes"/>
      <point x="118" y="18" type="line" smooth="yes"/>
      <point x="118" y="55"/>
      <point x="129" y="93"/>
      <point x="150" y="126" type="curve" smooth="yes"/>
      <point x="166" y="151"/>
      <point x="192" y="184"/>
      <point x="260" y="234" type="curve" smooth="yes"/>
      <point x="304" y="267"/>
      <point x="354" y="300"/>
      <point x="393" y="347" type="curve" smooth="yes"/>
      <point x="411" y="368"/>
      <point x="426" y="392"/>
      <point x="435" y="419" type="curve" smooth="yes"/>
      <point x="441" y="437"/>
      <point x="444" y="456"/>
      <point x="444" y="475" type="curve" smooth="yes"/>
      <point x="444" y="485"/>
      <point x="443" y="495"/>
      <point x="441" y="505" type="curve" smooth="yes"/>
      <point x="433" y="543"/>
      <point x="411" y="578"/>
      <point x="379" y="602" type="curve" smooth="yes"/>
      <point x="343" y="629"/>
      <point x="300" y="639"/>
    </contour>
    <contour>
      <point x="422" y="30" type="curve" smooth="yes"/>
      <point x="166" y="30" type="line" smooth="yes"/>
      <point x="149" y="30"/>
      <point x="136" y="17"/>
      <point x="136" y="0" type="curve" smooth="yes"/>
      <point x="136" y="-17"/>
      <point x="149" y="-30"/>
      <point x="166" y="-30" type="curve" smooth="yes"/>
      <point x="422" y="-30" type="line" smooth="yes"/>
      <point x="439" y="-30"/>
      <point x="452" y="-17"/>
      <point x="452" y="0" type="curve" smooth="yes"/>
      <point x="452" y="17"/>
      <point x="439" y="30"/>
    </contour>
  </outline>
</glyph>
<glyph name="three" format="2">
  <advance width="521"/>
  <unicode hex="0033"/>
  <outline>
    <contour>
      <point x="256" y="641" type="curve" smooth="yes"/>
      <point x="253" y="641" type="line" smooth="yes"/>
      <point x="240" y="641"/>
      <point x="227" y="639"/>
      <point x="214" y="636" type="curve" smooth="yes"/>
      <point x="201" y="633"/>
      <point x="189" y="629"/>
      <point x="177" y="623" type="curve" smooth="yes"/>
      <point x="165" y="617"/>
      <point x="154" y="610"/>
      <point x="144" y="602" type="curve" smooth="yes"/>
      <point x="134" y="594"/>
      <point x="125" y="585"/>
      <point x="117" y="575" type="curve" smooth="yes"/>
      <point x="109" y="565"/>
      <point x="102" y="554"/>
      <point x="97" y="543" type="curve"/>
      <point x="90" y="532"/>
      <point x="85" y="521"/>
      <point x="85" y="505" type="curve" smooth="yes"/>
      <point x="85" y="489"/>
      <point x="98" y="475"/>
      <point x="114" y="475" type="curve" smooth="yes"/>
      <point x="128" y="475"/>
      <point x="141" y="485"/>
      <point x="144" y="499" type="curve" smooth="yes"/>
      <point x="145" y="506"/>
      <point x="147" y="513"/>
      <point x="150" y="520" type="curve" smooth="yes"/>
      <point x="153" y="527"/>
      <point x="157" y="534"/>
      <point x="162" y="540" type="curve" smooth="yes"/>
      <point x="167" y="546"/>
      <point x="173" y="552"/>
      <point x="179" y="557" type="curve" smooth="yes"/>
      <point x="185" y="562"/>
      <point x="192" y="566"/>
      <point x="200" y="570" type="curve" smooth="yes"/>
      <point x="208" y="574"/>
      <point x="216" y="577"/>
      <point x="225" y="579" type="curve" smooth="yes"/>
      <point x="234" y="581"/>
      <point x="243" y="582"/>
      <point x="252" y="582" type="curve" smooth="yes"/>
      <point x="255" y="582" type="line" smooth="yes"/>
      <point x="263" y="582"/>
      <point x="271" y="581"/>
      <point x="279" y="579" type="curve" smooth="yes"/>
      <point x="287" y="577"/>
      <point x="295" y="575"/>
      <point x="303" y="572" type="curve" smooth="yes"/>
      <point x="310" y="569"/>
      <point x="317" y="565"/>
      <point x="323" y="561" type="curve" smooth="yes"/>
      <point x="330" y="556"/>
      <point x="336" y="551"/>
      <point x="341" y="545" type="curve" smooth="yes"/>
      <point x="346" y="539"/>
      <point x="351" y="533"/>
      <point x="355" y="526" type="curve" smooth="yes"/>
      <point x="365" y="509"/>
      <point x="367" y="499"/>
      <point x="367" y="482" type="curve" smooth="yes"/>
      <point x="367" y="469"/>
      <point x="361" y="444"/>
      <point x="349" y="427" type="curve" smooth="yes"/>
      <point x="345" y="421"/>
      <point x="340" y="415"/>
      <point x="335" y="409" type="curve" smooth="yes"/>
      <point x="330" y="404"/>
      <point x="324" y="399"/>
      <point x="318" y="395" type="curve" smooth="yes"/>
      <point x="310" y="389"/>
      <point x="301" y="384"/>
      <point x="292" y="380" type="curve" smooth="yes"/>
      <point x="283" y="377"/>
      <point x="273" y="375"/>
      <point x="263" y="373" type="curve" smooth="yes"/>
      <point x="253" y="371"/>
      <point x="243" y="370"/>
      <point x="233" y="370" type="curve" smooth="yes"/>
      <point x="216" y="370"/>
      <point x="203" y="357"/>
      <point x="203" y="340" type="curve" smooth="yes"/>
      <point x="203" y="323"/>
      <point x="216" y="310"/>
      <point x="233" y="310" type="curve" smooth="yes"/>
      <point x="246" y="310"/>
      <point x="259" y="311"/>
      <point x="272" y="313" type="curve" smooth="yes"/>
      <point x="286" y="315"/>
      <point x="300" y="318"/>
      <point x="313" y="323" type="curve" smooth="yes"/>
      <point x="327" y="328"/>
      <point x="340" y="335"/>
      <point x="352" y="344" type="curve" smooth="yes"/>
      <point x="361" y="351"/>
      <point x="370" y="358"/>
      <point x="378" y="366" type="curve" smooth="yes"/>
      <point x="386" y="374"/>
      <point x="393" y="383"/>
      <point x="399" y="392" type="curve" smooth="yes"/>
      <point x="417" y="419"/>
      <point x="426" y="446"/>
      <point x="426" y="481" type="curve" smooth="yes"/>
      <point x="426" y="512"/>
      <point x="420" y="532"/>
      <point x="407" y="555" type="curve" smooth="yes"/>
      <point x="401" y="566"/>
      <point x="394" y="576"/>
      <point x="386" y="585" type="curve" smooth="yes"/>
      <point x="378" y="594"/>
      <point x="369" y="602"/>
      <point x="359" y="609" type="curve" smooth="yes"/>
      <point x="349" y="616"/>
      <point x="338" y="622"/>
      <point x="327" y="627" type="curve" smooth="yes"/>
      <point x="316" y="632"/>
      <point x="304" y="636"/>
      <point x="292" y="638" type="curve" smooth="yes"/>
      <point x="280" y="640"/>
      <point x="268" y="641"/>
    </contour>
    <contour>
      <point x="434" y="264" type="curve"/>
      <point x="433" y="265" type="line"/>
      <point x="419" y="289"/>
      <point x="400" y="305"/>
      <point x="385" y="315" type="curve" smooth="yes"/>
      <point x="380" y="318"/>
      <point x="374" y="320"/>
      <point x="369" y="320" type="curve" smooth="yes"/>
      <point x="359" y="320"/>
      <point x="349" y="315"/>
      <point x="343" y="306" type="curve" smooth="yes"/>
      <point x="340" y="301"/>
      <point x="338" y="295"/>
      <point x="338" y="290" type="curve" smooth="yes"/>
      <point x="338" y="280"/>
      <point x="343" y="270"/>
      <point x="352" y="264" type="curve" smooth="yes"/>
      <point x="359" y="260"/>
      <point x="373" y="249"/>
      <point x="381" y="235" type="curve" smooth="yes"/>
      <point x="393" y="215"/>
      <point x="399" y="191"/>
      <point x="399" y="167" type="curve" smooth="yes"/>
      <point x="399" y="146"/>
      <point x="395" y="122"/>
      <point x="382" y="98" type="curve" smooth="yes"/>
      <point x="371" y="78"/>
      <point x="353" y="60"/>
      <point x="331" y="48" type="curve" smooth="yes"/>
      <point x="307" y="34"/>
      <point x="276" y="25"/>
      <point x="239" y="25" type="curve" smooth="yes"/>
      <point x="200" y="25"/>
      <point x="161" y="36"/>
      <point x="133" y="56" type="curve" smooth="yes"/>
      <point x="121" y="64"/>
      <point x="111" y="74"/>
      <point x="103" y="85" type="curve" smooth="yes"/>
      <point x="97" y="93"/>
      <point x="88" y="97"/>
      <point x="79" y="97" type="curve" smooth="yes"/>
      <point x="72" y="97"/>
      <point x="66" y="95"/>
      <point x="61" y="91" type="curve" smooth="yes"/>
      <point x="53" y="85"/>
      <point x="49" y="76"/>
      <point x="49" y="67" type="curve" smooth="yes"/>
      <point x="49" y="60"/>
      <point x="51" y="54"/>
      <point x="55" y="49" type="curve" smooth="yes"/>
      <point x="67" y="33"/>
      <point x="82" y="19"/>
      <point x="99" y="7" type="curve" smooth="yes"/>
      <point x="144" y="-25"/>
      <point x="198" y="-35"/>
      <point x="240" y="-35" type="curve" smooth="yes"/>
      <point x="289" y="-35"/>
      <point x="331" y="-23"/>
      <point x="363" y="-5" type="curve" smooth="yes"/>
      <point x="394" y="13"/>
      <point x="419" y="38"/>
      <point x="436" y="68" type="curve" smooth="yes"/>
      <point x="455" y="102"/>
      <point x="461" y="137"/>
      <point x="461" y="166" type="curve" smooth="yes"/>
      <point x="461" y="200"/>
      <point x="452" y="234"/>
    </contour>
  </outline>
</glyph>
<glyph name="four" format="2">
  <advance width="535"/>
  <unicode hex="0034"/>
  <outline>
    <contour>
      <point x="375" y="560" type="curve" smooth="yes"/>
      <point x="375" y="30" type="line" smooth="yes"/>
      <point x="375" y="13"/>
      <point x="388" y="0"/>
      <point x="405" y="0" type="curve" smooth="yes"/>
      <point x="422" y="0"/>
      <point x="435" y="13"/>
      <point x="435" y="30" type="curve" smooth="yes"/>
      <point x="435" y="560" type="line" smooth="yes"/>
      <point x="435" y="577"/>
      <point x="422" y="590"/>
      <point x="405" y="590" type="curve" smooth="yes"/>
      <point x="388" y="590"/>
      <point x="375" y="577"/>
    </contour>
    <contour>
      <point x="94" y="218" type="curve" smooth="yes"/>
      <point x="429" y="682" type="line" smooth="yes"/>
      <point x="433" y="687"/>
      <point x="435" y="693"/>
      <point x="435" y="700" type="curve" smooth="yes"/>
      <point x="435" y="717"/>
      <point x="422" y="730"/>
      <point x="405" y="730" type="curve" smooth="yes"/>
      <point x="395" y="730"/>
      <point x="386" y="725"/>
      <point x="381" y="718" type="curve" smooth="yes"/>
      <point x="46" y="254" type="line" smooth="yes"/>
      <point x="42" y="249"/>
      <point x="40" y="243"/>
      <point x="40" y="236" type="curve" smooth="yes"/>
      <point x="40" y="219"/>
      <point x="53" y="206"/>
      <point x="70" y="206" type="curve" smooth="yes"/>
      <point x="80" y="206"/>
      <point x="89" y="211"/>
    </contour>
    <contour>
      <point x="332" y="266" type="curve" smooth="yes"/>
      <point x="166" y="266" type="line" smooth="yes"/>
      <point x="149" y="266"/>
      <point x="136" y="253"/>
      <point x="136" y="236" type="curve" smooth="yes"/>
      <point x="136" y="219"/>
      <point x="149" y="206"/>
      <point x="166" y="206" type="curve" smooth="yes"/>
      <point x="332" y="206" type="line" smooth="yes"/>
      <point x="349" y="206"/>
      <point x="362" y="219"/>
      <point x="362" y="236" type="curve" smooth="yes"/>
      <point x="362" y="253"/>
      <point x="349" y="266"/>
    </contour>
  </outline>
</glyph>
<glyph name="five" format="2">
  <advance width="578"/>
  <unicode hex="0035"/>
  <outline>
    <contour>
      <point x="102" y="670" type="curve" smooth="yes"/>
      <point x="443" y="670" type="line" smooth="yes"/>
      <point x="460" y="670"/>
      <point x="473" y="683"/>
      <point x="473" y="700" type="curve" smooth="yes"/>
      <point x="473" y="717"/>
      <point x="460" y="730"/>
      <point x="443" y="730" type="curve" smooth="yes"/>
      <point x="102" y="730" type="line" smooth="yes"/>
      <point x="85" y="730"/>
      <point x="72" y="717"/>
      <point x="72" y="700" type="curve" smooth="yes"/>
      <point x="72" y="683"/>
      <point x="85" y="670"/>
    </contour>
    <contour>
      <point x="40" y="203" type="curve" smooth="yes"/>
      <point x="40" y="85"/>
      <point x="149" y="-5"/>
      <point x="284" y="-5" type="curve" smooth="yes"/>
      <point x="419" y="-5"/>
      <point x="528" y="85"/>
      <point x="528" y="230" type="curve" smooth="yes"/>
      <point x="528" y="230"/>
      <point x="528" y="233"/>
      <point x="528" y="233" type="curve" smooth="yes"/>
      <point x="528" y="388"/>
      <point x="418" y="468"/>
      <point x="282" y="468" type="curve" smooth="yes"/>
      <point x="188" y="468"/>
      <point x="114" y="430"/>
      <point x="77" y="371" type="curve" smooth="yes"/>
      <point x="74" y="367"/>
      <point x="72" y="361"/>
      <point x="72" y="355" type="curve" smooth="yes"/>
      <point x="72" y="338"/>
      <point x="85" y="325"/>
      <point x="102" y="325" type="curve" smooth="yes"/>
      <point x="113" y="325"/>
      <point x="122" y="331"/>
      <point x="127" y="339" type="curve" smooth="yes"/>
      <point x="155" y="382"/>
      <point x="205" y="408"/>
      <point x="282" y="408" type="curve" smooth="yes"/>
      <point x="394" y="408"/>
      <point x="468" y="354"/>
      <point x="468" y="233" type="curve" smooth="yes"/>
      <point x="468" y="233"/>
      <point x="468" y="230"/>
      <point x="468" y="230" type="curve" smooth="yes"/>
      <point x="468" y="117"/>
      <point x="393" y="55"/>
      <point x="284" y="55" type="curve" smooth="yes"/>
      <point x="175" y="55"/>
      <point x="100" y="117"/>
      <point x="100" y="203" type="curve" smooth="yes"/>
      <point x="100" y="220"/>
      <point x="87" y="233"/>
      <point x="70" y="233" type="curve" smooth="yes"/>
      <point x="53" y="233"/>
      <point x="40" y="220"/>
    </contour>
    <contour>
      <point x="132" y="463" type="curve" smooth="yes"/>
      <point x="132" y="624" type="line" smooth="yes"/>
      <point x="132" y="641"/>
      <point x="119" y="654"/>
      <point x="102" y="654" type="curve" smooth="yes"/>
      <point x="85" y="654"/>
      <point x="72" y="641"/>
      <point x="72" y="624" type="curve" smooth="yes"/>
      <point x="72" y="463" type="line" smooth="yes"/>
      <point x="72" y="446"/>
      <point x="85" y="433"/>
      <point x="102" y="433" type="curve" smooth="yes"/>
      <point x="119" y="433"/>
      <point x="132" y="446"/>
    </contour>
  </outline>
</glyph>
<glyph name="six" format="2">
  <advance width="584"/>
  <unicode hex="0036"/>
  <outline>
    <contour>
      <point x="120" y="333" type="curve" smooth="yes"/>
      <point x="120" y="357" type="line" smooth="yes"/>
      <point x="120" y="588"/>
      <point x="146" y="675"/>
      <point x="295" y="675" type="curve" smooth="yes"/>
      <point x="383" y="675"/>
      <point x="440" y="629"/>
      <point x="440" y="544" type="curve" smooth="yes"/>
      <point x="440" y="527"/>
      <point x="453" y="514"/>
      <point x="470" y="514" type="curve" smooth="yes"/>
      <point x="487" y="514"/>
      <point x="500" y="527"/>
      <point x="500" y="544" type="curve" smooth="yes"/>
      <point x="500" y="661"/>
      <point x="409" y="735"/>
      <point x="295" y="735" type="curve" smooth="yes"/>
      <point x="98" y="735"/>
      <point x="60" y="598"/>
      <point x="60" y="357" type="curve" smooth="yes"/>
      <point x="60" y="333" type="line" smooth="yes"/>
      <point x="60" y="316"/>
      <point x="73" y="303"/>
      <point x="90" y="303" type="curve" smooth="yes"/>
      <point x="107" y="303"/>
      <point x="120" y="316"/>
    </contour>
    <contour>
      <point x="199" y="389" type="curve" smooth="yes"/>
      <point x="228" y="409"/>
      <point x="259" y="418"/>
      <point x="297" y="418" type="curve" smooth="yes"/>
      <point x="400" y="418"/>
      <point x="474" y="352"/>
      <point x="474" y="237" type="curve" smooth="yes"/>
      <point x="474" y="122"/>
      <point x="399" y="55"/>
      <point x="297" y="55" type="curve" smooth="yes"/>
      <point x="195" y="55"/>
      <point x="120" y="122"/>
      <point x="120" y="237" type="curve" smooth="yes"/>
      <point x="120" y="254"/>
      <point x="107" y="267"/>
      <point x="90" y="267" type="curve" smooth="yes"/>
      <point x="73" y="267"/>
      <point x="60" y="254"/>
      <point x="60" y="237" type="curve" smooth="yes"/>
      <point x="60" y="92"/>
      <point x="167" y="-5"/>
      <point x="297" y="-5" type="curve" smooth="yes"/>
      <point x="427" y="-5"/>
      <point x="534" y="92"/>
      <point x="534" y="237" type="curve" smooth="yes"/>
      <point x="534" y="382"/>
      <point x="426" y="478"/>
      <point x="297" y="478" type="curve" smooth="yes"/>
      <point x="250" y="478"/>
      <point x="203" y="465"/>
      <point x="165" y="439" type="curve" smooth="yes"/>
      <point x="157" y="433"/>
      <point x="152" y="424"/>
      <point x="152" y="414" type="curve" smooth="yes"/>
      <point x="152" y="397"/>
      <point x="165" y="384"/>
      <point x="182" y="384" type="curve" smooth="yes"/>
      <point x="188" y="384"/>
      <point x="194" y="386"/>
    </contour>
  </outline>
</glyph>
<glyph name="seven" format="2">
  <advance width="485"/>
  <unicode hex="0037"/>
  <outline>
    <contour>
      <point x="430" y="730" type="curve" smooth="yes"/>
      <point x="50" y="730" type="line" smooth="yes"/>
      <point x="33" y="730"/>
      <point x="20" y="717"/>
      <point x="20" y="700" type="curve" smooth="yes"/>
      <point x="20" y="683"/>
      <point x="33" y="670"/>
      <point x="50" y="670" type="curve" smooth="yes"/>
      <point x="430" y="670" type="line" smooth="yes"/>
      <point x="447" y="670"/>
      <point x="460" y="683"/>
      <point x="460" y="700" type="curve" smooth="yes"/>
      <point x="460" y="717"/>
      <point x="447" y="730"/>
    </contour>
    <contour>
      <point x="127" y="17" type="curve" smooth="yes"/>
      <point x="421" y="613" type="line" smooth="yes"/>
      <point x="423" y="617"/>
      <point x="424" y="621"/>
      <point x="424" y="626" type="curve" smooth="yes"/>
      <point x="424" y="643"/>
      <point x="411" y="656"/>
      <point x="394" y="656" type="curve" smooth="yes"/>
      <point x="382" y="656"/>
      <point x="372" y="649"/>
      <point x="367" y="639" type="curve" smooth="yes"/>
      <point x="73" y="43" type="line" smooth="yes"/>
      <point x="71" y="39"/>
      <point x="70" y="35"/>
      <point x="70" y="30" type="curve" smooth="yes"/>
      <point x="70" y="13"/>
      <point x="83" y="0"/>
      <point x="100" y="0" type="curve" smooth="yes"/>
      <point x="112" y="0"/>
      <point x="122" y="7"/>
    </contour>
  </outline>
</glyph>
<glyph name="eight" format="2">
  <advance width="548"/>
  <unicode hex="0038"/>
  <outline>
    <contour>
      <point x="111" y="367" type="curve" smooth="yes"/>
      <point x="68" y="328"/>
      <point x="40" y="273"/>
      <point x="40" y="214" type="curve" smooth="yes"/>
      <point x="40" y="93"/>
      <point x="147" y="-5"/>
      <point x="274" y="-5" type="curve" smooth="yes"/>
      <point x="401" y="-5"/>
      <point x="508" y="93"/>
      <point x="508" y="214" type="curve" smooth="yes"/>
      <point x="509" y="514"/>
      <point x="134" y="348"/>
      <point x="134" y="542" type="curve" smooth="yes"/>
      <point x="134" y="619"/>
      <point x="191" y="675"/>
      <point x="274" y="675" type="curve" smooth="yes"/>
      <point x="357" y="675"/>
      <point x="414" y="619"/>
      <point x="414" y="542" type="curve" smooth="yes"/>
      <point x="414" y="508"/>
      <point x="403" y="483"/>
      <point x="382" y="457" type="curve" smooth="yes"/>
      <point x="377" y="451"/>
      <point x="375" y="444"/>
      <point x="375" y="437" type="curve" smooth="yes"/>
      <point x="375" y="420"/>
      <point x="388" y="407"/>
      <point x="405" y="407" type="curve" smooth="yes"/>
      <point x="414" y="407"/>
      <point x="422" y="411"/>
      <point x="428" y="417" type="curve" smooth="yes"/>
      <point x="457" y="451"/>
      <point x="474" y="495"/>
      <point x="474" y="542" type="curve" smooth="yes"/>
      <point x="474" y="649"/>
      <point x="385" y="735"/>
      <point x="274" y="735" type="curve" smooth="yes"/>
      <point x="163" y="735"/>
      <point x="74" y="649"/>
      <point x="74" y="542" type="curve" smooth="yes"/>
      <point x="74" y="256"/>
      <point x="449" y="422"/>
      <point x="448" y="214" type="curve" smooth="yes"/>
      <point x="448" y="123"/>
      <point x="373" y="55"/>
      <point x="274" y="55" type="curve" smooth="yes"/>
      <point x="175" y="55"/>
      <point x="100" y="123"/>
      <point x="100" y="214" type="curve" smooth="yes"/>
      <point x="100" y="257"/>
      <point x="118" y="293"/>
      <point x="151" y="323" type="curve" smooth="yes"/>
      <point x="157" y="328"/>
      <point x="161" y="336"/>
      <point x="161" y="345" type="curve" smooth="yes"/>
      <point x="161" y="362"/>
      <point x="148" y="375"/>
      <point x="131" y="375" type="curve" smooth="yes"/>
      <point x="123" y="375"/>
      <point x="116" y="372"/>
    </contour>
  </outline>
</glyph>
<glyph name="nine" format="2">
  <advance width="500"/>
  <unicode hex="0039"/>
  <outline>
    <contour>
      <point x="102" y="440" type="curve" smooth="yes"/>
      <point x="102" y="450" type="line" smooth="yes"/>
      <point x="105" y="482"/>
      <point x="120" y="514"/>
      <point x="145" y="539" type="curve" smooth="yes"/>
      <point x="163" y="557"/>
      <point x="191" y="574"/>
      <point x="225" y="580" type="curve" smooth="yes"/>
      <point x="233" y="581"/>
      <point x="241" y="582"/>
      <point x="249" y="582" type="curve" smooth="yes"/>
      <point x="272" y="582"/>
      <point x="295" y="576"/>
      <point x="314" y="566" type="curve" smooth="yes"/>
      <point x="331" y="556"/>
      <point x="349" y="540"/>
      <point x="362" y="517" type="curve" smooth="yes"/>
      <point x="374" y="497"/>
      <point x="381" y="474"/>
      <point x="384" y="450" type="curve" smooth="yes"/>
      <point x="386" y="438"/>
      <point x="387" y="425"/>
      <point x="387" y="412" type="curve" smooth="yes"/>
      <point x="387" y="385"/>
      <point x="383" y="357"/>
      <point x="376" y="330" type="curve" smooth="yes"/>
      <point x="361" y="273"/>
      <point x="332" y="218"/>
      <point x="294" y="168" type="curve" smooth="yes"/>
      <point x="252" y="113"/>
      <point x="200" y="64"/>
      <point x="141" y="23" type="curve" smooth="yes"/>
      <point x="132" y="17"/>
      <point x="128" y="8"/>
      <point x="128" y="-2" type="curve" smooth="yes"/>
      <point x="128" y="-8"/>
      <point x="130" y="-14"/>
      <point x="133" y="-19" type="curve" smooth="yes"/>
      <point x="139" y="-28"/>
      <point x="148" y="-32"/>
      <point x="158" y="-32" type="curve" smooth="yes"/>
      <point x="164" y="-32"/>
      <point x="170" y="-30"/>
      <point x="175" y="-27" type="curve" smooth="yes"/>
      <point x="239" y="18"/>
      <point x="296" y="71"/>
      <point x="342" y="131" type="curve" smooth="yes"/>
      <point x="384" y="186"/>
      <point x="417" y="248"/>
      <point x="434" y="315" type="curve" smooth="yes"/>
      <point x="442" y="347"/>
      <point x="447" y="380"/>
      <point x="447" y="413" type="curve" smooth="yes"/>
      <point x="447" y="428"/>
      <point x="446" y="443"/>
      <point x="444" y="458" type="curve" smooth="yes"/>
      <point x="440" y="488"/>
      <point x="431" y="518"/>
      <point x="415" y="546" type="curve" smooth="yes"/>
      <point x="395" y="579"/>
      <point x="368" y="602"/>
      <point x="343" y="616" type="curve" smooth="yes"/>
      <point x="315" y="632"/>
      <point x="283" y="640"/>
      <point x="251" y="640" type="curve" smooth="yes"/>
      <point x="240" y="640"/>
      <point x="229" y="639"/>
      <point x="218" y="637" type="curve" smooth="yes"/>
      <point x="175" y="629"/>
      <point x="136" y="608"/>
      <point x="107" y="579" type="curve" smooth="yes"/>
      <point x="72" y="545"/>
      <point x="50" y="500"/>
      <point x="46" y="453" type="curve" smooth="yes"/>
      <point x="45" y="447"/>
      <point x="45" y="442"/>
      <point x="45" y="437" type="curve" smooth="yes"/>
      <point x="45" y="394"/>
      <point x="60" y="351"/>
      <point x="89" y="317" type="curve" smooth="yes"/>
      <point x="130" y="269"/>
      <point x="172" y="251"/>
      <point x="227" y="251" type="curve" smooth="yes"/>
      <point x="242" y="251"/>
      <point x="259" y="253"/>
      <point x="276" y="255" type="curve" smooth="yes"/>
      <point x="290" y="258"/>
      <point x="300" y="270"/>
      <point x="300" y="284" type="curve" smooth="yes"/>
      <point x="300" y="302"/>
      <point x="284" y="316"/>
      <point x="266" y="313" type="curve" smooth="yes"/>
      <point x="258" y="312"/>
      <point x="250" y="311"/>
      <point x="242" y="311" type="curve" smooth="yes"/>
      <point x="229" y="311"/>
      <point x="216" y="313"/>
      <point x="203" y="316" type="curve" smooth="yes"/>
      <point x="180" y="322"/>
      <point x="153" y="335"/>
      <point x="132" y="359" type="curve" smooth="yes"/>
      <point x="112" y="382"/>
      <point x="102" y="411"/>
    </contour>
  </outline>
</glyph>
<glyph name="colon" format="2">
  <advance width="196"/>
  <unicode hex="003A"/>
  <outline>
    <contour>
      <point x="85" y="480" type="curve" smooth="yes"/>
      <point x="48" y="480"/>
      <point x="18" y="450"/>
      <point x="18" y="413" type="curve" smooth="yes"/>
      <point x="18" y="376"/>
      <point x="48" y="346"/>
      <point x="85" y="346" type="curve" smooth="yes"/>
      <point x="122" y="346"/>
      <point x="152" y="376"/>
      <point x="152" y="413" type="curve" smooth="yes"/>
      <point x="152" y="450"/>
      <point x="122" y="480"/>
    </contour>
    <contour>
      <point x="85" y="104" type="curve" smooth="yes"/>
      <point x="48" y="104"/>
      <point x="18" y="74"/>
      <point x="18" y="37" type="curve" smooth="yes"/>
      <point x="18" y="0"/>
      <point x="48" y="-30"/>
      <point x="85" y="-30" type="curve" smooth="yes"/>
      <point x="122" y="-30"/>
      <point x="152" y="0"/>
      <point x="152" y="37" type="curve" smooth="yes"/>
      <point x="152" y="74"/>
      <point x="122" y="104"/>
    </contour>
  </outline>
</glyph>
<glyph name="semicolon" format="2">
  <advance width="194"/>
  <unicode hex="003B"/>
  <outline>
    <contour>
      <point x="92" y="480" type="curve" smooth="yes"/>
      <point x="55" y="480"/>
      <point x="25" y="450"/>
      <point x="25" y="413" type="curve" smooth="yes"/>
      <point x="25" y="376"/>
      <point x="55" y="346"/>
      <point x="92" y="346" type="curve" smooth="yes"/>
      <point x="129" y="346"/>
      <point x="159" y="376"/>
      <point x="159" y="413" type="curve" smooth="yes"/>
      <point x="159" y="450"/>
      <point x="129" y="480"/>
    </contour>
    <contour>
      <point x="93" y="103" type="curve" smooth="yes"/>
      <point x="92" y="103" type="line" smooth="yes"/>
      <point x="55" y="103"/>
      <point x="25" y="73"/>
      <point x="25" y="36" type="curve" smooth="yes"/>
      <point x="25" y="6"/>
      <point x="44" y="-19"/>
      <point x="71" y="-28" type="curve"/>
      <point x="62" y="-38"/>
      <point x="52" y="-48"/>
      <point x="42" y="-58" type="curve" smooth="yes"/>
      <point x="36" y="-64"/>
      <point x="33" y="-71"/>
      <point x="33" y="-79" type="curve" smooth="yes"/>
      <point x="33" y="-87"/>
      <point x="36" y="-94"/>
      <point x="41" y="-100" type="curve" smooth="yes"/>
      <point x="47" y="-106"/>
      <point x="54" y="-109"/>
      <point x="62" y="-109" type="curve" smooth="yes"/>
      <point x="70" y="-109"/>
      <point x="77" y="-106"/>
      <point x="83" y="-101" type="curve" smooth="yes"/>
      <point x="95" y="-89"/>
      <point x="107" y="-77"/>
      <point x="119" y="-64" type="curve" smooth="yes"/>
      <point x="129" y="-53"/>
      <point x="139" y="-41"/>
      <point x="148" y="-26" type="curve" smooth="yes"/>
      <point x="158" y="-8"/>
      <point x="162" y="10"/>
      <point x="162" y="26" type="curve" smooth="yes"/>
      <point x="162" y="30" type="line" smooth="yes"/>
      <point x="160" y="62"/>
      <point x="139" y="103"/>
    </contour>
  </outline>
</glyph>
<glyph name="less" format="2">
  <advance width="463"/>
  <unicode hex="003C"/>
  <outline>
    <contour>
      <point x="402" y="483" type="curve" smooth="yes"/>
      <point x="40" y="349" type="line" smooth="yes"/>
      <point x="28" y="344"/>
      <point x="20" y="333"/>
      <point x="20" y="321" type="curve" smooth="yes"/>
      <point x="20" y="303"/>
      <point x="35" y="290"/>
      <point x="50" y="290" type="curve" smooth="yes"/>
      <point x="54" y="290"/>
      <point x="57" y="291"/>
      <point x="61" y="292" type="curve" smooth="yes"/>
      <point x="423" y="426" type="line" smooth="yes"/>
      <point x="435" y="431"/>
      <point x="443" y="442"/>
      <point x="443" y="454" type="curve" smooth="yes"/>
      <point x="443" y="472"/>
      <point x="428" y="485"/>
      <point x="413" y="485" type="curve" smooth="yes"/>
      <point x="409" y="485"/>
      <point x="406" y="484"/>
    </contour>
    <contour>
      <point x="422" y="219" type="curve" smooth="yes"/>
      <point x="225" y="288" type="line" smooth="yes"/>
      <point x="222" y="289"/>
      <point x="218" y="290"/>
      <point x="214" y="290" type="curve" smooth="yes"/>
      <point x="199" y="290"/>
      <point x="184" y="278"/>
      <point x="184" y="259" type="curve" smooth="yes"/>
      <point x="184" y="247"/>
      <point x="192" y="236"/>
      <point x="204" y="231" type="curve" smooth="yes"/>
      <point x="401" y="162" type="line" smooth="yes"/>
      <point x="404" y="161"/>
      <point x="408" y="160"/>
      <point x="412" y="160" type="curve" smooth="yes"/>
      <point x="427" y="160"/>
      <point x="442" y="172"/>
      <point x="442" y="191" type="curve" smooth="yes"/>
      <point x="442" y="203"/>
      <point x="434" y="214"/>
    </contour>
  </outline>
</glyph>
<glyph name="equal" format="2">
  <advance width="600"/>
  <unicode hex="003D"/>
  <outline>
    <contour>
      <point x="548" y="221" type="curve" smooth="yes"/>
      <point x="52" y="221" type="line" smooth="yes"/>
      <point x="35" y="221"/>
      <point x="22" y="208"/>
      <point x="22" y="191" type="curve" smooth="yes"/>
      <point x="22" y="174"/>
      <point x="35" y="161"/>
      <point x="52" y="161" type="curve" smooth="yes"/>
      <point x="548" y="161" type="line" smooth="yes"/>
      <point x="565" y="161"/>
      <point x="578" y="174"/>
      <point x="578" y="191" type="curve" smooth="yes"/>
      <point x="578" y="208"/>
      <point x="565" y="221"/>
    </contour>
    <contour>
      <point x="548" y="416" type="curve" smooth="yes"/>
      <point x="52" y="416" type="line" smooth="yes"/>
      <point x="35" y="416"/>
      <point x="22" y="403"/>
      <point x="22" y="386" type="curve" smooth="yes"/>
      <point x="22" y="369"/>
      <point x="35" y="356"/>
      <point x="52" y="356" type="curve" smooth="yes"/>
      <point x="548" y="356" type="line" smooth="yes"/>
      <point x="565" y="356"/>
      <point x="578" y="369"/>
      <point x="578" y="386" type="curve" smooth="yes"/>
      <point x="578" y="403"/>
      <point x="565" y="416"/>
    </contour>
  </outline>
</glyph>
<glyph name="greater" format="2">
  <advance width="483"/>
  <unicode hex="003E"/>
  <outline>
    <contour>
      <point x="61" y="483" type="curve" smooth="yes"/>
      <point x="423" y="349" type="line" smooth="yes"/>
      <point x="435" y="344"/>
      <point x="443" y="333"/>
      <point x="443" y="321" type="curve" smooth="yes"/>
      <point x="443" y="303"/>
      <point x="428" y="290"/>
      <point x="413" y="290" type="curve" smooth="yes"/>
      <point x="409" y="290"/>
      <point x="406" y="291"/>
      <point x="402" y="292" type="curve" smooth="yes"/>
      <point x="40" y="426" type="line" smooth="yes"/>
      <point x="28" y="431"/>
      <point x="20" y="442"/>
      <point x="20" y="454" type="curve" smooth="yes"/>
      <point x="20" y="472"/>
      <point x="35" y="485"/>
      <point x="50" y="485" type="curve" smooth="yes"/>
      <point x="54" y="485"/>
      <point x="57" y="484"/>
    </contour>
    <contour>
      <point x="41" y="219" type="curve" smooth="yes"/>
      <point x="238" y="288" type="line" smooth="yes"/>
      <point x="241" y="289"/>
      <point x="245" y="290"/>
      <point x="249" y="290" type="curve" smooth="yes"/>
      <point x="264" y="290"/>
      <point x="279" y="278"/>
      <point x="279" y="259" type="curve" smooth="yes"/>
      <point x="279" y="247"/>
      <point x="271" y="236"/>
      <point x="259" y="231" type="curve" smooth="yes"/>
      <point x="62" y="162" type="line" smooth="yes"/>
      <point x="59" y="161"/>
      <point x="55" y="160"/>
      <point x="51" y="160" type="curve" smooth="yes"/>
      <point x="36" y="160"/>
      <point x="21" y="172"/>
      <point x="21" y="191" type="curve" smooth="yes"/>
      <point x="21" y="203"/>
      <point x="29" y="214"/>
    </contour>
  </outline>
</glyph>
<glyph name="question" format="2">
  <advance width="332"/>
  <unicode hex="003F"/>
  <outline>
    <contour>
      <point x="128" y="154" type="curve" smooth="yes"/>
      <point x="128" y="206" type="line" smooth="yes"/>
      <point x="129" y="235"/>
      <point x="137" y="263"/>
      <point x="151" y="289" type="curve" smooth="yes"/>
      <point x="170" y="325"/>
      <point x="210" y="369"/>
      <point x="231" y="399" type="curve" smooth="yes"/>
      <point x="246" y="419"/>
      <point x="260" y="442"/>
      <point x="269" y="468" type="curve" smooth="yes"/>
      <point x="275" y="486"/>
      <point x="278" y="505"/>
      <point x="278" y="524" type="curve" smooth="yes"/>
      <point x="278" y="534"/>
      <point x="277" y="544"/>
      <point x="275" y="554" type="curve" smooth="yes"/>
      <point x="268" y="591"/>
      <point x="246" y="624"/>
      <point x="215" y="646" type="curve" smooth="yes"/>
      <point x="188" y="665"/>
      <point x="156" y="674"/>
      <point x="124" y="674" type="curve" smooth="yes"/>
      <point x="110" y="674" type="line" smooth="yes"/>
      <point x="82" y="672"/>
      <point x="55" y="663"/>
      <point x="32" y="648" type="curve" smooth="yes"/>
      <point x="23" y="642"/>
      <point x="18" y="632"/>
      <point x="18" y="622" type="curve" smooth="yes"/>
      <point x="18" y="617"/>
      <point x="20" y="611"/>
      <point x="23" y="606" type="curve" smooth="yes"/>
      <point x="29" y="597"/>
      <point x="39" y="592"/>
      <point x="49" y="592" type="curve" smooth="yes"/>
      <point x="54" y="592"/>
      <point x="60" y="594"/>
      <point x="65" y="597" type="curve" smooth="yes"/>
      <point x="80" y="607"/>
      <point x="98" y="613"/>
      <point x="116" y="615" type="curve" smooth="yes"/>
      <point x="126" y="615" type="line" smooth="yes"/>
      <point x="143" y="615"/>
      <point x="164" y="611"/>
      <point x="182" y="598" type="curve" smooth="yes"/>
      <point x="192" y="591"/>
      <point x="212" y="573"/>
      <point x="218" y="543" type="curve" smooth="yes"/>
      <point x="219" y="537"/>
      <point x="220" y="531"/>
      <point x="220" y="525" type="curve" smooth="yes"/>
      <point x="220" y="513"/>
      <point x="218" y="500"/>
      <point x="214" y="488" type="curve" smooth="yes"/>
      <point x="208" y="470"/>
      <point x="198" y="452"/>
      <point x="185" y="434" type="curve" smooth="yes"/>
      <point x="159" y="398"/>
      <point x="124" y="361"/>
      <point x="100" y="316" type="curve" smooth="yes"/>
      <point x="79" y="276"/>
      <point x="69" y="250"/>
      <point x="68" y="154" type="curve" smooth="yes"/>
      <point x="68" y="137"/>
      <point x="81" y="124"/>
      <point x="98" y="124" type="curve" smooth="yes"/>
      <point x="115" y="124"/>
      <point x="128" y="137"/>
    </contour>
    <contour>
      <point x="101" y="103" type="curve" smooth="yes"/>
      <point x="64" y="103"/>
      <point x="34" y="73"/>
      <point x="34" y="36" type="curve" smooth="yes"/>
      <point x="34" y="-1"/>
      <point x="64" y="-31"/>
      <point x="101" y="-31" type="curve" smooth="yes"/>
      <point x="138" y="-31"/>
      <point x="168" y="-1"/>
      <point x="168" y="36" type="curve" smooth="yes"/>
      <point x="168" y="73"/>
      <point x="138" y="103"/>
    </contour>
  </outline>
</glyph>
<glyph name="at" format="2">
  <advance width="724"/>
  <unicode hex="0040"/>
  <outline>
    <contour>
      <point x="531" y="17" type="curve" smooth="yes"/>
      <point x="488" y="-15"/>
      <point x="430" y="-31"/>
      <point x="362" y="-31" type="curve" smooth="yes"/>
      <point x="181" y="-31"/>
      <point x="80" y="93"/>
      <point x="80" y="322" type="curve" smooth="yes"/>
      <point x="80" y="554"/>
      <point x="178" y="676"/>
      <point x="362" y="676" type="curve" smooth="yes"/>
      <point x="553" y="676"/>
      <point x="644" y="567"/>
      <point x="644" y="334" type="curve" smooth="yes"/>
      <point x="644" y="203"/>
      <point x="608" y="162"/>
      <point x="559" y="162" type="curve" smooth="yes"/>
      <point x="521" y="162"/>
      <point x="514" y="178"/>
      <point x="514" y="218" type="curve" smooth="yes"/>
      <point x="514" y="405" type="line" smooth="yes"/>
      <point x="514" y="488"/>
      <point x="450" y="542"/>
      <point x="360" y="542" type="curve" smooth="yes"/>
      <point x="271" y="542"/>
      <point x="206" y="489"/>
      <point x="206" y="411" type="curve" smooth="yes"/>
      <point x="206" y="394"/>
      <point x="219" y="381"/>
      <point x="236" y="381" type="curve" smooth="yes"/>
      <point x="253" y="381"/>
      <point x="266" y="394"/>
      <point x="266" y="411" type="curve" smooth="yes"/>
      <point x="266" y="457"/>
      <point x="297" y="482"/>
      <point x="360" y="482" type="curve" smooth="yes"/>
      <point x="424" y="482"/>
      <point x="454" y="456"/>
      <point x="454" y="405" type="curve" smooth="yes"/>
      <point x="454" y="218" type="line" smooth="yes"/>
      <point x="454" y="162"/>
      <point x="480" y="102"/>
      <point x="559" y="102" type="curve" smooth="yes"/>
      <point x="640" y="102"/>
      <point x="704" y="176"/>
      <point x="704" y="334" type="curve" smooth="yes"/>
      <point x="704" y="593"/>
      <point x="585" y="736"/>
      <point x="362" y="736" type="curve" smooth="yes"/>
      <point x="146" y="736"/>
      <point x="20" y="580"/>
      <point x="20" y="322" type="curve" smooth="yes"/>
      <point x="20" y="67"/>
      <point x="149" y="-91"/>
      <point x="362" y="-91" type="curve" smooth="yes"/>
      <point x="439" y="-91"/>
      <point x="513" y="-70"/>
      <point x="567" y="-31" type="curve" smooth="yes"/>
      <point x="574" y="-26"/>
      <point x="579" y="-17"/>
      <point x="579" y="-7" type="curve" smooth="yes"/>
      <point x="579" y="10"/>
      <point x="566" y="23"/>
      <point x="549" y="23" type="curve" smooth="yes"/>
      <point x="542" y="23"/>
      <point x="536" y="21"/>
    </contour>
    <contour>
      <point x="397" y="189" type="curve" smooth="yes"/>
      <point x="372" y="170"/>
      <point x="347" y="162"/>
      <point x="318" y="162" type="curve" smooth="yes"/>
      <point x="318" y="162"/>
      <point x="316" y="162"/>
      <point x="316" y="162" type="curve" smooth="yes"/>
      <point x="270" y="162"/>
      <point x="238" y="184"/>
      <point x="238" y="223" type="curve" smooth="yes"/>
      <point x="238" y="268"/>
      <point x="264" y="293"/>
      <point x="335" y="314" type="curve" smooth="yes"/>
      <point x="418" y="338" type="line" smooth="yes"/>
      <point x="431" y="342"/>
      <point x="440" y="353"/>
      <point x="440" y="367" type="curve" smooth="yes"/>
      <point x="440" y="387"/>
      <point x="421" y="401"/>
      <point x="402" y="396" type="curve" smooth="yes"/>
      <point x="319" y="372" type="line" smooth="yes"/>
      <point x="229" y="346"/>
      <point x="179" y="296"/>
      <point x="178" y="223" type="curve" smooth="yes"/>
      <point x="178" y="145"/>
      <point x="246" y="102"/>
      <point x="316" y="102" type="curve" smooth="yes"/>
      <point x="316" y="102"/>
      <point x="318" y="102"/>
      <point x="318" y="102" type="curve" smooth="yes"/>
      <point x="358" y="102"/>
      <point x="399" y="115"/>
      <point x="433" y="141" type="curve" smooth="yes"/>
      <point x="440" y="147"/>
      <point x="445" y="155"/>
      <point x="445" y="165" type="curve" smooth="yes"/>
      <point x="445" y="182"/>
      <point x="432" y="195"/>
      <point x="415" y="195" type="curve" smooth="yes"/>
      <point x="408" y="195"/>
      <point x="402" y="193"/>
    </contour>
  </outline>
</glyph>
<glyph name="A" format="2">
  <advance width="649"/>
  <unicode hex="0041"/>
  <anchor x="325" y="16" name="bottom"/>
  <anchor x="602" y="25" name="ogonek"/>
  <anchor x="325" y="774" name="top"/>
  <outline>
    <contour>
      <point x="245" y="584" type="curve" smooth="yes"/>
      <point x="32" y="41" type="line" smooth="yes"/>
      <point x="31" y="38"/>
      <point x="30" y="34"/>
      <point x="30" y="30" type="curve" smooth="yes"/>
      <point x="30" y="13"/>
      <point x="43" y="0"/>
      <point x="60" y="0" type="curve" smooth="yes"/>
      <point x="73" y="0"/>
      <point x="84" y="8"/>
      <point x="88" y="19" type="curve" smooth="yes"/>
      <point x="301" y="562" type="line" smooth="yes"/>
      <point x="302" y="565"/>
      <point x="303" y="569"/>
      <point x="303" y="573" type="curve" smooth="yes"/>
      <point x="303" y="590"/>
      <point x="290" y="603"/>
      <point x="273" y="603" type="curve" smooth="yes"/>
      <point x="260" y="603"/>
      <point x="249" y="595"/>
    </contour>
    <contour>
      <point x="236" y="211" type="curve" smooth="yes"/>
      <point x="413" y="211" type="line" smooth="yes"/>
      <point x="430" y="211"/>
      <point x="443" y="224"/>
      <point x="443" y="241" type="curve" smooth="yes"/>
      <point x="443" y="258"/>
      <point x="430" y="271"/>
      <point x="413" y="271" type="curve" smooth="yes"/>
      <point x="236" y="271" type="line" smooth="yes"/>
      <point x="219" y="271"/>
      <point x="206" y="258"/>
      <point x="206" y="241" type="curve" smooth="yes"/>
      <point x="206" y="224"/>
      <point x="219" y="211"/>
    </contour>
    <contour>
      <point x="297" y="694" type="curve" smooth="yes"/>
      <point x="561" y="19" type="line" smooth="yes"/>
      <point x="565" y="8"/>
      <point x="576" y="0"/>
      <point x="589" y="0" type="curve" smooth="yes"/>
      <point x="606" y="0"/>
      <point x="619" y="13"/>
      <point x="619" y="30" type="curve" smooth="yes"/>
      <point x="619" y="34"/>
      <point x="618" y="38"/>
      <point x="617" y="41" type="curve" smooth="yes"/>
      <point x="353" y="716" type="line" smooth="yes"/>
      <point x="349" y="727"/>
      <point x="338" y="735"/>
      <point x="325" y="735" type="curve" smooth="yes"/>
      <point x="308" y="735"/>
      <point x="295" y="722"/>
      <point x="295" y="705" type="curve" smooth="yes"/>
      <point x="295" y="701"/>
      <point x="296" y="697"/>
    </contour>
  </outline>
</glyph>
<glyph name="B" format="2">
  <advance width="645"/>
  <unicode hex="0042"/>
  <anchor x="328" y="16" name="bottom"/>
  <anchor x="328" y="366" name="center"/>
  <anchor x="328" y="774" name="top"/>
  <outline>
    <contour>
      <point x="499" y="334" type="curve"/>
      <point x="532" y="303"/>
      <point x="545" y="266"/>
      <point x="545" y="224" type="curve" smooth="yes"/>
      <point x="545" y="138"/>
      <point x="498" y="60"/>
      <point x="366" y="60" type="curve" smooth="yes"/>
      <point x="305" y="60" type="line"/>
      <point x="210" y="60" type="line" smooth="yes"/>
      <point x="193" y="60"/>
      <point x="180" y="47"/>
      <point x="180" y="30" type="curve" smooth="yes"/>
      <point x="180" y="13"/>
      <point x="193" y="0"/>
      <point x="210" y="0" type="curve" smooth="yes"/>
      <point x="305" y="0" type="line"/>
      <point x="366" y="0" type="line" smooth="yes"/>
      <point x="535" y="0"/>
      <point x="605" y="116"/>
      <point x="605" y="224" type="curve" smooth="yes"/>
      <point x="605" y="278"/>
      <point x="585" y="336"/>
      <point x="541" y="378" type="curve" smooth="yes"/>
      <point x="535" y="383"/>
      <point x="528" y="386"/>
      <point x="520" y="386" type="curve" smooth="yes"/>
      <point x="503" y="386"/>
      <point x="490" y="373"/>
      <point x="490" y="356" type="curve" smooth="yes"/>
      <point x="490" y="347"/>
      <point x="494" y="340"/>
    </contour>
    <contour>
      <point x="210" y="378" type="curve" smooth="yes"/>
      <point x="343" y="378" type="line" smooth="yes"/>
      <point x="498" y="378"/>
      <point x="557" y="465"/>
      <point x="557" y="555" type="curve" smooth="yes"/>
      <point x="557" y="646"/>
      <point x="498" y="730"/>
      <point x="343" y="730" type="curve" smooth="yes"/>
      <point x="288" y="730" type="line"/>
      <point x="210" y="730" type="line" smooth="yes"/>
      <point x="193" y="730"/>
      <point x="180" y="717"/>
      <point x="180" y="700" type="curve" smooth="yes"/>
      <point x="180" y="683"/>
      <point x="193" y="670"/>
      <point x="210" y="670" type="curve" smooth="yes"/>
      <point x="288" y="670" type="line"/>
      <point x="343" y="670" type="line" smooth="yes"/>
      <point x="463" y="670"/>
      <point x="497" y="622"/>
      <point x="497" y="555" type="curve" smooth="yes"/>
      <point x="497" y="487"/>
      <point x="462" y="438"/>
      <point x="343" y="438" type="curve" smooth="yes"/>
      <point x="210" y="438" type="line" smooth="yes"/>
      <point x="193" y="438"/>
      <point x="180" y="425"/>
      <point x="180" y="408" type="curve" smooth="yes"/>
      <point x="180" y="391"/>
      <point x="193" y="378"/>
    </contour>
    <contour>
      <point x="140" y="30" type="curve" smooth="yes"/>
      <point x="140" y="700" type="line" smooth="yes"/>
      <point x="140" y="717"/>
      <point x="127" y="730"/>
      <point x="110" y="730" type="curve" smooth="yes"/>
      <point x="93" y="730"/>
      <point x="80" y="717"/>
      <point x="80" y="700" type="curve" smooth="yes"/>
      <point x="80" y="30" type="line" smooth="yes"/>
      <point x="80" y="13"/>
      <point x="93" y="0"/>
      <point x="110" y="0" type="curve" smooth="yes"/>
      <point x="127" y="0"/>
      <point x="140" y="13"/>
    </contour>
  </outline>
</glyph>
<glyph name="C" format="2">
  <advance width="738"/>
  <unicode hex="0043"/>
  <anchor x="391" y="16" name="bottom"/>
  <anchor x="391" y="774" name="top"/>
  <outline>
    <contour>
      <point x="638" y="257" type="curve" smooth="yes"/>
      <point x="638" y="152"/>
      <point x="551" y="55"/>
      <point x="404" y="55" type="curve" smooth="yes"/>
      <point x="226" y="55"/>
      <point x="110" y="177"/>
      <point x="110" y="365" type="curve" smooth="yes"/>
      <point x="110" y="553"/>
      <point x="226" y="675"/>
      <point x="404" y="675" type="curve" smooth="yes"/>
      <point x="551" y="675"/>
      <point x="638" y="578"/>
      <point x="638" y="473" type="curve" smooth="yes"/>
      <point x="638" y="456"/>
      <point x="651" y="443"/>
      <point x="668" y="443" type="curve" smooth="yes"/>
      <point x="685" y="443"/>
      <point x="698" y="456"/>
      <point x="698" y="473" type="curve" smooth="yes"/>
      <point x="698" y="606"/>
      <point x="581" y="735"/>
      <point x="404" y="735" type="curve" smooth="yes"/>
      <point x="196" y="735"/>
      <point x="50" y="581"/>
      <point x="50" y="365" type="curve" smooth="yes"/>
      <point x="50" y="149"/>
      <point x="196" y="-5"/>
      <point x="404" y="-5" type="curve" smooth="yes"/>
      <point x="581" y="-5"/>
      <point x="698" y="124"/>
      <point x="698" y="257" type="curve" smooth="yes"/>
      <point x="698" y="274"/>
      <point x="685" y="287"/>
      <point x="668" y="287" type="curve" smooth="yes"/>
      <point x="651" y="287"/>
      <point x="638" y="274"/>
    </contour>
  </outline>
</glyph>
<glyph name="D" format="2">
  <advance width="705"/>
  <unicode hex="0044"/>
  <anchor x="354" y="16" name="bottom"/>
  <anchor x="354" y="366" name="center"/>
  <anchor x="324" y="774" name="top"/>
  <outline>
    <contour>
      <point x="140" y="30" type="curve" smooth="yes"/>
      <point x="140" y="700" type="line" smooth="yes"/>
      <point x="140" y="717"/>
      <point x="127" y="730"/>
      <point x="110" y="730" type="curve" smooth="yes"/>
      <point x="93" y="730"/>
      <point x="80" y="717"/>
      <point x="80" y="700" type="curve" smooth="yes"/>
      <point x="80" y="30" type="line" smooth="yes"/>
      <point x="80" y="13"/>
      <point x="93" y="0"/>
      <point x="110" y="0" type="curve" smooth="yes"/>
      <point x="127" y="0"/>
      <point x="140" y="13"/>
    </contour>
    <contour>
      <point x="210" y="670" type="curve" smooth="yes"/>
      <point x="324" y="670" type="line" smooth="yes"/>
      <point x="490" y="670"/>
      <point x="595" y="533"/>
      <point x="595" y="366" type="curve" smooth="yes"/>
      <point x="595" y="364" type="line" smooth="yes"/>
      <point x="595" y="198"/>
      <point x="490" y="60"/>
      <point x="324" y="60" type="curve" smooth="yes"/>
      <point x="210" y="60" type="line" smooth="yes"/>
      <point x="193" y="60"/>
      <point x="180" y="47"/>
      <point x="180" y="30" type="curve" smooth="yes"/>
      <point x="180" y="13"/>
      <point x="193" y="0"/>
      <point x="210" y="0" type="curve" smooth="yes"/>
      <point x="324" y="0" type="line" smooth="yes"/>
      <point x="524" y="0"/>
      <point x="655" y="174"/>
      <point x="655" y="364" type="curve" smooth="yes"/>
      <point x="655" y="366" type="line" smooth="yes"/>
      <point x="655" y="557"/>
      <point x="524" y="730"/>
      <point x="324" y="730" type="curve" smooth="yes"/>
      <point x="210" y="730" type="line" smooth="yes"/>
      <point x="193" y="730"/>
      <point x="180" y="717"/>
      <point x="180" y="700" type="curve" smooth="yes"/>
      <point x="180" y="683"/>
      <point x="193" y="670"/>
    </contour>
  </outline>
</glyph>
<glyph name="E" format="2">
  <advance width="606"/>
  <unicode hex="0045"/>
  <anchor x="354" y="16" name="bottom"/>
  <anchor x="496" y="25" name="ogonek"/>
  <anchor x="354" y="774" name="top"/>
  <anchor x="26" y="714" name="topleft"/>
  <outline>
    <contour>
      <point x="210" y="670" type="curve" smooth="yes"/>
      <point x="516" y="670" type="line" smooth="yes"/>
      <point x="533" y="670"/>
      <point x="546" y="683"/>
      <point x="546" y="700" type="curve" smooth="yes"/>
      <point x="546" y="717"/>
      <point x="533" y="730"/>
      <point x="516" y="730" type="curve" smooth="yes"/>
      <point x="210" y="730" type="line" smooth="yes"/>
      <point x="193" y="730"/>
      <point x="180" y="717"/>
      <point x="180" y="700" type="curve" smooth="yes"/>
      <point x="180" y="683"/>
      <point x="193" y="670"/>
    </contour>
    <contour>
      <point x="454" y="423" type="curve" smooth="yes"/>
      <point x="210" y="423" type="line" smooth="yes"/>
      <point x="193" y="423"/>
      <point x="180" y="410"/>
      <point x="180" y="393" type="curve" smooth="yes"/>
      <point x="180" y="376"/>
      <point x="193" y="363"/>
      <point x="210" y="363" type="curve" smooth="yes"/>
      <point x="454" y="363" type="line" smooth="yes"/>
      <point x="471" y="363"/>
      <point x="484" y="376"/>
      <point x="484" y="393" type="curve" smooth="yes"/>
      <point x="484" y="410"/>
      <point x="471" y="423"/>
    </contour>
    <contour>
      <point x="140" y="30" type="curve" smooth="yes"/>
      <point x="140" y="700" type="line" smooth="yes"/>
      <point x="140" y="717"/>
      <point x="127" y="730"/>
      <point x="110" y="730" type="curve" smooth="yes"/>
      <point x="93" y="730"/>
      <point x="80" y="717"/>
      <point x="80" y="700" type="curve" smooth="yes"/>
      <point x="80" y="30" type="line" smooth="yes"/>
      <point x="80" y="13"/>
      <point x="93" y="0"/>
      <point x="110" y="0" type="curve" smooth="yes"/>
      <point x="127" y="0"/>
      <point x="140" y="13"/>
    </contour>
    <contour>
      <point x="516" y="60" type="curve" smooth="yes"/>
      <point x="210" y="60" type="line" smooth="yes"/>
      <point x="193" y="60"/>
      <point x="180" y="47"/>
      <point x="180" y="30" type="curve" smooth="yes"/>
      <point x="180" y="13"/>
      <point x="193" y="0"/>
      <point x="210" y="0" type="curve" smooth="yes"/>
      <point x="516" y="0" type="line" smooth="yes"/>
      <point x="533" y="0"/>
      <point x="546" y="13"/>
      <point x="546" y="30" type="curve" smooth="yes"/>
      <point x="546" y="47"/>
      <point x="533" y="60"/>
    </contour>
  </outline>
</glyph>
<glyph name="F" format="2">
  <advance width="576"/>
  <unicode hex="0046"/>
  <anchor x="306" y="16" name="bottom"/>
  <anchor x="306" y="774" name="top"/>
  <outline>
    <contour>
      <point x="210" y="670" type="curve" smooth="yes"/>
      <point x="516" y="670" type="line" smooth="yes"/>
      <point x="533" y="670"/>
      <point x="546" y="683"/>
      <point x="546" y="700" type="curve" smooth="yes"/>
      <point x="546" y="717"/>
      <point x="533" y="730"/>
      <point x="516" y="730" type="curve" smooth="yes"/>
      <point x="210" y="730" type="line" smooth="yes"/>
      <point x="193" y="730"/>
      <point x="180" y="717"/>
      <point x="180" y="700" type="curve" smooth="yes"/>
      <point x="180" y="683"/>
      <point x="193" y="670"/>
    </contour>
    <contour>
      <point x="472" y="423" type="curve" smooth="yes"/>
      <point x="210" y="423" type="line" smooth="yes"/>
      <point x="193" y="423"/>
      <point x="180" y="410"/>
      <point x="180" y="393" type="curve" smooth="yes"/>
      <point x="180" y="376"/>
      <point x="193" y="363"/>
      <point x="210" y="363" type="curve" smooth="yes"/>
      <point x="472" y="363" type="line" smooth="yes"/>
      <point x="489" y="363"/>
      <point x="502" y="376"/>
      <point x="502" y="393" type="curve" smooth="yes"/>
      <point x="502" y="410"/>
      <point x="489" y="423"/>
    </contour>
    <contour>
      <point x="140" y="30" type="curve" smooth="yes"/>
      <point x="140" y="700" type="line" smooth="yes"/>
      <point x="140" y="717"/>
      <point x="127" y="730"/>
      <point x="110" y="730" type="curve" smooth="yes"/>
      <point x="93" y="730"/>
      <point x="80" y="717"/>
      <point x="80" y="700" type="curve" smooth="yes"/>
      <point x="80" y="30" type="line" smooth="yes"/>
      <point x="80" y="13"/>
      <point x="93" y="0"/>
      <point x="110" y="0" type="curve" smooth="yes"/>
      <point x="127" y="0"/>
      <point x="140" y="13"/>
    </contour>
  </outline>
</glyph>
<glyph name="G" format="2">
  <advance width="738"/>
  <unicode hex="0047"/>
  <anchor x="404" y="16" name="bottom"/>
  <anchor x="404" y="774" name="top"/>
  <outline>
    <contour>
      <point x="549" y="382" type="curve" smooth="yes"/>
      <point x="334" y="382" type="line" smooth="yes"/>
      <point x="317" y="382"/>
      <point x="304" y="369"/>
      <point x="304" y="352" type="curve" smooth="yes"/>
      <point x="304" y="335"/>
      <point x="317" y="322"/>
      <point x="334" y="322" type="curve" smooth="yes"/>
      <point x="549" y="322" type="line" smooth="yes"/>
      <point x="566" y="322"/>
      <point x="579" y="335"/>
      <point x="579" y="352" type="curve" smooth="yes"/>
      <point x="579" y="369"/>
      <point x="566" y="382"/>
    </contour>
    <contour>
      <point x="688" y="473" type="curve" smooth="yes"/>
      <point x="688" y="606"/>
      <point x="571" y="735"/>
      <point x="404" y="735" type="curve" smooth="yes"/>
      <point x="196" y="735"/>
      <point x="50" y="581"/>
      <point x="50" y="365" type="curve" smooth="yes"/>
      <point x="50" y="149"/>
      <point x="196" y="-5"/>
      <point x="404" y="-5" type="curve" smooth="yes"/>
      <point x="582" y="-5"/>
      <point x="679" y="118"/>
      <point x="679" y="249" type="curve" smooth="yes"/>
      <point x="679" y="352" type="line" smooth="yes"/>
      <point x="679" y="369"/>
      <point x="666" y="382"/>
      <point x="649" y="382" type="curve" smooth="yes"/>
      <point x="632" y="382"/>
      <point x="619" y="369"/>
      <point x="619" y="352" type="curve" smooth="yes"/>
      <point x="619" y="249" type="line" smooth="yes"/>
      <point x="619" y="142"/>
      <point x="550" y="55"/>
      <point x="404" y="55" type="curve" smooth="yes"/>
      <point x="226" y="55"/>
      <point x="110" y="177"/>
      <point x="110" y="365" type="curve" smooth="yes"/>
      <point x="110" y="553"/>
      <point x="226" y="675"/>
      <point x="404" y="675" type="curve" smooth="yes"/>
      <point x="541" y="675"/>
      <point x="628" y="578"/>
      <point x="628" y="473" type="curve" smooth="yes"/>
      <point x="628" y="456"/>
      <point x="641" y="443"/>
      <point x="658" y="443" type="curve" smooth="yes"/>
      <point x="675" y="443"/>
      <point x="688" y="456"/>
    </contour>
  </outline>
</glyph>
<glyph name="H" format="2">
  <advance width="654"/>
  <unicode hex="0048"/>
  <anchor x="327" y="16" name="bottom"/>
  <anchor x="327" y="366" name="center"/>
  <anchor x="327" y="774" name="top"/>
  <anchor x="26" y="714" name="topleft"/>
  <outline>
    <contour>
      <point x="80" y="700" type="curve" smooth="yes"/>
      <point x="80" y="30" type="line" smooth="yes"/>
      <point x="80" y="13"/>
      <point x="93" y="0"/>
      <point x="110" y="0" type="curve" smooth="yes"/>
      <point x="127" y="0"/>
      <point x="140" y="13"/>
      <point x="140" y="30" type="curve" smooth="yes"/>
      <point x="140" y="700" type="line" smooth="yes"/>
      <point x="140" y="717"/>
      <point x="127" y="730"/>
      <point x="110" y="730" type="curve" smooth="yes"/>
      <point x="93" y="730"/>
      <point x="80" y="717"/>
    </contour>
    <contour>
      <point x="514" y="700" type="curve" smooth="yes"/>
      <point x="514" y="30" type="line" smooth="yes"/>
      <point x="514" y="13"/>
      <point x="527" y="0"/>
      <point x="544" y="0" type="curve" smooth="yes"/>
      <point x="561" y="0"/>
      <point x="574" y="13"/>
      <point x="574" y="30" type="curve" smooth="yes"/>
      <point x="574" y="700" type="line" smooth="yes"/>
      <point x="574" y="717"/>
      <point x="561" y="730"/>
      <point x="544" y="730" type="curve" smooth="yes"/>
      <point x="527" y="730"/>
      <point x="514" y="717"/>
    </contour>
    <contour>
      <point x="444" y="406" type="curve" smooth="yes"/>
      <point x="210" y="406" type="line" smooth="yes"/>
      <point x="193" y="406"/>
      <point x="180" y="393"/>
      <point x="180" y="376" type="curve" smooth="yes"/>
      <point x="180" y="359"/>
      <point x="193" y="346"/>
      <point x="210" y="346" type="curve" smooth="yes"/>
      <point x="444" y="346" type="line" smooth="yes"/>
      <point x="461" y="346"/>
      <point x="474" y="359"/>
      <point x="474" y="376" type="curve" smooth="yes"/>
      <point x="474" y="393"/>
      <point x="461" y="406"/>
    </contour>
  </outline>
</glyph>
<glyph name="I" format="2">
  <advance width="220"/>
  <unicode hex="0049"/>
  <anchor x="110" y="16" name="bottom"/>
  <anchor x="146" y="30" name="ogonek"/>
  <anchor x="110" y="774" name="top"/>
  <anchor x="26" y="714" name="topleft"/>
  <outline>
    <contour>
      <point x="80" y="700" type="curve" smooth="yes"/>
      <point x="80" y="30" type="line" smooth="yes"/>
      <point x="80" y="13"/>
      <point x="93" y="0"/>
      <point x="110" y="0" type="curve" smooth="yes"/>
      <point x="127" y="0"/>
      <point x="140" y="13"/>
      <point x="140" y="30" type="curve" smooth="yes"/>
      <point x="140" y="700" type="line" smooth="yes"/>
      <point x="140" y="717"/>
      <point x="127" y="730"/>
      <point x="110" y="730" type="curve" smooth="yes"/>
      <point x="93" y="730"/>
      <point x="80" y="717"/>
    </contour>
  </outline>
</glyph>
<glyph name="J" format="2">
  <advance width="566"/>
  <unicode hex="004A"/>
  <anchor x="322" y="16" name="bottom"/>
  <anchor x="322" y="774" name="top"/>
  <outline>
    <contour>
      <point x="408" y="135" type="curve" smooth="yes"/>
      <point x="383" y="86"/>
      <point x="336" y="55"/>
      <point x="254" y="55" type="curve" smooth="yes"/>
      <point x="160" y="55"/>
      <point x="100" y="115"/>
      <point x="100" y="226" type="curve" smooth="yes"/>
      <point x="100" y="243"/>
      <point x="87" y="256"/>
      <point x="70" y="256" type="curve" smooth="yes"/>
      <point x="53" y="256"/>
      <point x="40" y="243"/>
      <point x="40" y="226" type="curve" smooth="yes"/>
      <point x="40" y="87"/>
      <point x="132" y="-5"/>
      <point x="254" y="-5" type="curve" smooth="yes"/>
      <point x="357" y="-5"/>
      <point x="428" y="42"/>
      <point x="462" y="107" type="curve" smooth="yes"/>
      <point x="464" y="111"/>
      <point x="465" y="116"/>
      <point x="465" y="121" type="curve" smooth="yes"/>
      <point x="465" y="138"/>
      <point x="452" y="151"/>
      <point x="435" y="151" type="curve" smooth="yes"/>
      <point x="423" y="151"/>
      <point x="413" y="144"/>
    </contour>
    <contour>
      <point x="426" y="700" type="curve" smooth="yes"/>
      <point x="426" y="208" type="line" smooth="yes"/>
      <point x="426" y="191"/>
      <point x="439" y="178"/>
      <point x="456" y="178" type="curve" smooth="yes"/>
      <point x="473" y="178"/>
      <point x="486" y="191"/>
      <point x="486" y="208" type="curve" smooth="yes"/>
      <point x="486" y="700" type="line" smooth="yes"/>
      <point x="486" y="717"/>
      <point x="473" y="730"/>
      <point x="456" y="730" type="curve" smooth="yes"/>
      <point x="439" y="730"/>
      <point x="426" y="717"/>
    </contour>
  </outline>
</glyph>
<glyph name="K" format="2">
  <advance width="613"/>
  <unicode hex="004B"/>
  <outline>
    <contour>
      <point x="460" y="663" type="curve" smooth="yes"/>
      <point x="169" y="372" type="line" smooth="yes"/>
      <point x="163" y="366"/>
      <point x="160" y="358"/>
      <point x="160" y="351" type="curve" smooth="yes"/>
      <point x="160" y="343"/>
      <point x="163" y="335"/>
      <point x="169" y="329" type="curve" smooth="yes"/>
      <point x="175" y="323"/>
      <point x="183" y="320"/>
      <point x="191" y="320" type="curve" smooth="yes"/>
      <point x="198" y="320"/>
      <point x="206" y="323"/>
      <point x="212" y="329" type="curve" smooth="yes"/>
      <point x="503" y="620" type="line" smooth="yes"/>
      <point x="509" y="626"/>
      <point x="512" y="634"/>
      <point x="512" y="642" type="curve" smooth="yes"/>
      <point x="512" y="649"/>
      <point x="509" y="657"/>
      <point x="503" y="663" type="curve" smooth="yes"/>
      <point x="497" y="669"/>
      <point x="489" y="672"/>
      <point x="482" y="672" type="curve" smooth="yes"/>
      <point x="474" y="672"/>
      <point x="466" y="669"/>
    </contour>
    <contour>
      <point x="85" y="640" type="curve" smooth="yes"/>
      <point x="85" y="0" type="line" smooth="yes"/>
      <point x="85" y="-17"/>
      <point x="98" y="-30"/>
      <point x="115" y="-30" type="curve" smooth="yes"/>
      <point x="132" y="-30"/>
      <point x="145" y="-17"/>
      <point x="145" y="0" type="curve" smooth="yes"/>
      <point x="145" y="640" type="line" smooth="yes"/>
      <point x="145" y="657"/>
      <point x="132" y="670"/>
      <point x="115" y="670" type="curve" smooth="yes"/>
      <point x="98" y="670"/>
      <point x="85" y="657"/>
    </contour>
    <contour>
      <point x="234" y="265" type="curve" smooth="yes"/>
      <point x="520" y="-21" type="line" smooth="yes"/>
      <point x="526" y="-27"/>
      <point x="534" y="-30"/>
      <point x="542" y="-30" type="curve" smooth="yes"/>
      <point x="549" y="-30"/>
      <point x="557" y="-27"/>
      <point x="563" y="-21" type="curve" smooth="yes"/>
      <point x="569" y="-15"/>
      <point x="572" y="-7"/>
      <point x="572" y="1" type="curve" smooth="yes"/>
      <point x="572" y="8"/>
      <point x="569" y="16"/>
      <point x="563" y="22" type="curve" smooth="yes"/>
      <point x="277" y="308" type="line" smooth="yes"/>
      <point x="271" y="314"/>
      <point x="263" y="317"/>
      <point x="256" y="317" type="curve" smooth="yes"/>
      <point x="248" y="317"/>
      <point x="240" y="314"/>
      <point x="234" y="308" type="curve" smooth="yes"/>
      <point x="228" y="302"/>
      <point x="225" y="294"/>
      <point x="225" y="287" type="curve" smooth="yes"/>
      <point x="225" y="279"/>
      <point x="228" y="271"/>
    </contour>
  </outline>
</glyph>
<glyph name="L" format="2">
  <advance width="586"/>
  <unicode hex="004C"/>
  <anchor x="324" y="15" name="bottom"/>
  <anchor x="278" y="366" name="center"/>
  <anchor x="184" y="774" name="top"/>
  <anchor x="530" y="714" name="topright"/>
  <outline>
    <contour>
      <point x="140" y="30" type="curve" smooth="yes"/>
      <point x="140" y="700" type="line" smooth="yes"/>
      <point x="140" y="717"/>
      <point x="127" y="730"/>
      <point x="110" y="730" type="curve" smooth="yes"/>
      <point x="93" y="730"/>
      <point x="80" y="717"/>
      <point x="80" y="700" type="curve" smooth="yes"/>
      <point x="80" y="30" type="line" smooth="yes"/>
      <point x="80" y="13"/>
      <point x="93" y="0"/>
      <point x="110" y="0" type="curve" smooth="yes"/>
      <point x="127" y="0"/>
      <point x="140" y="13"/>
    </contour>
    <contour>
      <point x="536" y="60" type="curve" smooth="yes"/>
      <point x="210" y="60" type="line" smooth="yes"/>
      <point x="193" y="60"/>
      <point x="180" y="47"/>
      <point x="180" y="30" type="curve" smooth="yes"/>
      <point x="180" y="13"/>
      <point x="193" y="0"/>
      <point x="210" y="0" type="curve" smooth="yes"/>
      <point x="536" y="0" type="line" smooth="yes"/>
      <point x="553" y="0"/>
      <point x="566" y="13"/>
      <point x="566" y="30" type="curve" smooth="yes"/>
      <point x="566" y="47"/>
      <point x="553" y="60"/>
    </contour>
  </outline>
</glyph>
<glyph name="M" format="2">
  <advance width="894"/>
  <unicode hex="004D"/>
  <outline>
    <contour>
      <point x="753" y="654" type="curve" smooth="yes"/>
      <point x="486" y="140" type="line" smooth="yes"/>
      <point x="484" y="135"/>
      <point x="482" y="131"/>
      <point x="482" y="126" type="curve" smooth="yes"/>
      <point x="482" y="110"/>
      <point x="494" y="95"/>
      <point x="513" y="95" type="curve" smooth="yes"/>
      <point x="524" y="95"/>
      <point x="534" y="102"/>
      <point x="540" y="112" type="curve" smooth="yes"/>
      <point x="807" y="626" type="line" smooth="yes"/>
      <point x="809" y="631"/>
      <point x="811" y="635"/>
      <point x="811" y="640" type="curve" smooth="yes"/>
      <point x="811" y="656"/>
      <point x="799" y="671"/>
      <point x="780" y="671" type="curve" smooth="yes"/>
      <point x="769" y="671"/>
      <point x="759" y="664"/>
    </contour>
    <contour>
      <point x="85" y="640" type="curve" smooth="yes"/>
      <point x="85" y="0" type="line" smooth="yes"/>
      <point x="85" y="-17"/>
      <point x="98" y="-30"/>
      <point x="115" y="-30" type="curve" smooth="yes"/>
      <point x="132" y="-30"/>
      <point x="145" y="-17"/>
      <point x="145" y="0" type="curve" smooth="yes"/>
      <point x="145" y="640" type="line" smooth="yes"/>
      <point x="145" y="657"/>
      <point x="132" y="670"/>
      <point x="115" y="670" type="curve" smooth="yes"/>
      <point x="98" y="670"/>
      <point x="85" y="657"/>
    </contour>
    <contour>
      <point x="174" y="461" type="curve" smooth="yes"/>
      <point x="414" y="-14" type="line" smooth="yes"/>
      <point x="419" y="-25"/>
      <point x="430" y="-31"/>
      <point x="441" y="-31" type="curve" smooth="yes"/>
      <point x="445" y="-31"/>
      <point x="450" y="-30"/>
      <point x="454" y="-28" type="curve" smooth="yes"/>
      <point x="465" y="-23"/>
      <point x="471" y="-12"/>
      <point x="471" y="-1" type="curve" smooth="yes"/>
      <point x="471" y="3"/>
      <point x="470" y="8"/>
      <point x="468" y="12" type="curve" smooth="yes"/>
      <point x="228" y="487" type="line" smooth="yes"/>
      <point x="223" y="498"/>
      <point x="212" y="504"/>
      <point x="201" y="504" type="curve" smooth="yes"/>
      <point x="197" y="504"/>
      <point x="192" y="503"/>
      <point x="188" y="501" type="curve" smooth="yes"/>
      <point x="177" y="496"/>
      <point x="171" y="485"/>
      <point x="171" y="474" type="curve" smooth="yes"/>
      <point x="171" y="470"/>
      <point x="172" y="465"/>
    </contour>
    <contour>
      <point x="750" y="446" type="curve" smooth="yes"/>
      <point x="750" y="0" type="line" smooth="yes"/>
      <point x="750" y="-17"/>
      <point x="763" y="-30"/>
      <point x="780" y="-30" type="curve" smooth="yes"/>
      <point x="797" y="-30"/>
      <point x="810" y="-17"/>
      <point x="810" y="0" type="curve" smooth="yes"/>
      <point x="810" y="446" type="line" smooth="yes"/>
      <point x="810" y="463"/>
      <point x="797" y="476"/>
      <point x="780" y="476" type="curve" smooth="yes"/>
      <point x="763" y="476"/>
      <point x="750" y="463"/>
    </contour>
  </outline>
</glyph>
<glyph name="N" format="2">
  <advance width="657"/>
  <unicode hex="004E"/>
  <anchor x="329" y="15" name="bottom"/>
  <anchor x="329" y="773" name="top"/>
  <outline>
    <contour>
      <point x="80" y="545" type="curve" smooth="yes"/>
      <point x="80" y="30" type="line" smooth="yes"/>
      <point x="80" y="13"/>
      <point x="93" y="0"/>
      <point x="110" y="0" type="curve" smooth="yes"/>
      <point x="127" y="0"/>
      <point x="140" y="13"/>
      <point x="140" y="30" type="curve" smooth="yes"/>
      <point x="140" y="545" type="line" smooth="yes"/>
      <point x="140" y="562"/>
      <point x="127" y="575"/>
      <point x="110" y="575" type="curve" smooth="yes"/>
      <point x="93" y="575"/>
      <point x="80" y="562"/>
    </contour>
    <contour>
      <point x="517" y="700" type="curve" smooth="yes"/>
      <point x="517" y="185" type="line" smooth="yes"/>
      <point x="517" y="168"/>
      <point x="530" y="155"/>
      <point x="547" y="155" type="curve" smooth="yes"/>
      <point x="564" y="155"/>
      <point x="577" y="168"/>
      <point x="577" y="185" type="curve" smooth="yes"/>
      <point x="577" y="700" type="line" smooth="yes"/>
      <point x="577" y="717"/>
      <point x="564" y="730"/>
      <point x="547" y="730" type="curve" smooth="yes"/>
      <point x="530" y="730"/>
      <point x="517" y="717"/>
    </contour>
    <contour>
      <point x="572" y="46" type="curve" smooth="yes"/>
      <point x="135" y="716" type="line" smooth="yes"/>
      <point x="129" y="725"/>
      <point x="121" y="730"/>
      <point x="110" y="730" type="curve" smooth="yes"/>
      <point x="93" y="730"/>
      <point x="80" y="717"/>
      <point x="80" y="700" type="curve" smooth="yes"/>
      <point x="80" y="694"/>
      <point x="82" y="688"/>
      <point x="85" y="684" type="curve" smooth="yes"/>
      <point x="522" y="14" type="line" smooth="yes"/>
      <point x="528" y="5"/>
      <point x="536" y="0"/>
      <point x="547" y="0" type="curve" smooth="yes"/>
      <point x="564" y="0"/>
      <point x="577" y="13"/>
      <point x="577" y="30" type="curve" smooth="yes"/>
      <point x="577" y="36"/>
      <point x="575" y="42"/>
    </contour>
  </outline>
</glyph>
<glyph name="O" format="2">
  <advance width="800"/>
  <unicode hex="004F"/>
  <anchor x="400" y="16" name="bottom"/>
  <anchor x="400" y="366" name="center"/>
  <anchor x="457" y="25" name="ogonek"/>
  <anchor x="400" y="774" name="top"/>
  <anchor x="40" y="714" name="topleft"/>
  <anchor x="760" y="714" name="topright"/>
  <outline>
    <contour>
      <point x="750" y="415" type="curve" smooth="yes"/>
      <point x="750" y="576"/>
      <point x="623" y="735"/>
      <point x="400" y="735" type="curve" smooth="yes"/>
      <point x="177" y="735"/>
      <point x="50" y="576"/>
      <point x="50" y="415" type="curve" smooth="yes"/>
      <point x="50" y="398"/>
      <point x="63" y="385"/>
      <point x="80" y="385" type="curve" smooth="yes"/>
      <point x="97" y="385"/>
      <point x="110" y="398"/>
      <point x="110" y="415" type="curve" smooth="yes"/>
      <point x="110" y="550"/>
      <point x="209" y="675"/>
      <point x="400" y="675" type="curve" smooth="yes"/>
      <point x="591" y="675"/>
      <point x="690" y="550"/>
      <point x="690" y="415" type="curve" smooth="yes"/>
      <point x="690" y="398"/>
      <point x="703" y="385"/>
      <point x="720" y="385" type="curve" smooth="yes"/>
      <point x="737" y="385"/>
      <point x="750" y="398"/>
    </contour>
    <contour>
      <point x="50" y="315" type="curve" smooth="yes"/>
      <point x="50" y="154"/>
      <point x="177" y="-5"/>
      <point x="400" y="-5" type="curve" smooth="yes"/>
      <point x="623" y="-5"/>
      <point x="750" y="154"/>
      <point x="750" y="315" type="curve" smooth="yes"/>
      <point x="750" y="332"/>
      <point x="737" y="345"/>
      <point x="720" y="345" type="curve" smooth="yes"/>
      <point x="703" y="345"/>
      <point x="690" y="332"/>
      <point x="690" y="315" type="curve" smooth="yes"/>
      <point x="690" y="180"/>
      <point x="591" y="55"/>
      <point x="400" y="55" type="curve" smooth="yes"/>
      <point x="209" y="55"/>
      <point x="110" y="180"/>
      <point x="110" y="315" type="curve" smooth="yes"/>
      <point x="110" y="332"/>
      <point x="97" y="345"/>
      <point x="80" y="345" type="curve" smooth="yes"/>
      <point x="63" y="345"/>
      <point x="50" y="332"/>
    </contour>
  </outline>
</glyph>
<glyph name="P" format="2">
  <advance width="606"/>
  <unicode hex="0050"/>
  <outline>
    <contour>
      <point x="86" y="640" type="curve" smooth="yes"/>
      <point x="86" y="0" type="line" smooth="yes"/>
      <point x="86" y="-17"/>
      <point x="99" y="-30"/>
      <point x="116" y="-30" type="curve" smooth="yes"/>
      <point x="133" y="-30"/>
      <point x="146" y="-17"/>
      <point x="146" y="0" type="curve" smooth="yes"/>
      <point x="146" y="640" type="line" smooth="yes"/>
      <point x="146" y="657"/>
      <point x="133" y="670"/>
      <point x="116" y="670" type="curve" smooth="yes"/>
      <point x="99" y="670"/>
      <point x="86" y="657"/>
    </contour>
    <contour>
      <point x="362" y="670" type="curve" smooth="yes"/>
      <point x="217" y="670" type="line" smooth="yes"/>
      <point x="200" y="670"/>
      <point x="187" y="657"/>
      <point x="187" y="640" type="curve" smooth="yes"/>
      <point x="187" y="623"/>
      <point x="200" y="610"/>
      <point x="217" y="610" type="curve" smooth="yes"/>
      <point x="362" y="610" type="line" smooth="yes"/>
      <point x="472" y="610"/>
      <point x="500" y="529"/>
      <point x="500" y="464" type="curve" smooth="yes"/>
      <point x="500" y="378"/>
      <point x="450" y="329"/>
      <point x="374" y="329" type="curve" smooth="yes"/>
      <point x="220" y="329" type="line" smooth="yes"/>
      <point x="203" y="329"/>
      <point x="190" y="316"/>
      <point x="190" y="299" type="curve" smooth="yes"/>
      <point x="190" y="282"/>
      <point x="203" y="269"/>
      <point x="220" y="269" type="curve" smooth="yes"/>
      <point x="374" y="269" type="line" smooth="yes"/>
      <point x="478" y="269"/>
      <point x="560" y="339"/>
      <point x="560" y="464" type="curve" smooth="yes"/>
      <point x="560" y="572"/>
      <point x="499" y="670"/>
    </contour>
  </outline>
</glyph>
<glyph name="Q" format="2">
  <advance width="800"/>
  <unicode hex="0051"/>
  <anchor x="288" y="15" name="bottom"/>
  <anchor x="288" y="822" name="top"/>
  <outline>
    <contour>
      <point x="721" y="207" type="curve" smooth="yes"/>
      <point x="740" y="255"/>
      <point x="750" y="310"/>
      <point x="750" y="365" type="curve" smooth="yes"/>
      <point x="750" y="565"/>
      <point x="624" y="735"/>
      <point x="400" y="735" type="curve" smooth="yes"/>
      <point x="176" y="735"/>
      <point x="50" y="565"/>
      <point x="50" y="365" type="curve" smooth="yes"/>
      <point x="50" y="165"/>
      <point x="176" y="-5"/>
      <point x="400" y="-5" type="curve" smooth="yes"/>
      <point x="468" y="-4"/>
      <point x="529" y="12"/>
      <point x="578" y="40" type="curve" smooth="yes"/>
      <point x="587" y="45"/>
      <point x="593" y="55"/>
      <point x="593" y="66" type="curve" smooth="yes"/>
      <point x="593" y="83"/>
      <point x="580" y="96"/>
      <point x="563" y="96" type="curve" smooth="yes"/>
      <point x="558" y="96"/>
      <point x="552" y="95"/>
      <point x="548" y="92" type="curve" smooth="yes"/>
      <point x="507" y="68"/>
      <point x="459" y="56"/>
      <point x="400" y="55" type="curve" smooth="yes"/>
      <point x="210" y="55"/>
      <point x="110" y="189"/>
      <point x="110" y="365" type="curve" smooth="yes"/>
      <point x="110" y="541"/>
      <point x="210" y="675"/>
      <point x="400" y="675" type="curve" smooth="yes"/>
      <point x="590" y="675"/>
      <point x="690" y="541"/>
      <point x="690" y="365" type="curve" smooth="yes"/>
      <point x="690" y="316"/>
      <point x="682" y="271"/>
      <point x="665" y="229" type="curve" smooth="yes"/>
      <point x="664" y="226"/>
      <point x="663" y="222"/>
      <point x="663" y="218" type="curve" smooth="yes"/>
      <point x="663" y="201"/>
      <point x="676" y="188"/>
      <point x="693" y="188" type="curve" smooth="yes"/>
      <point x="706" y="188"/>
      <point x="716" y="196"/>
    </contour>
    <contour>
      <point x="761" y="52" type="curve" smooth="yes"/>
      <point x="453" y="355" type="line"/>
      <point x="448" y="361"/>
      <point x="440" y="364"/>
      <point x="432" y="364" type="curve" smooth="yes"/>
      <point x="415" y="364"/>
      <point x="402" y="351"/>
      <point x="402" y="334" type="curve" smooth="yes"/>
      <point x="402" y="326"/>
      <point x="405" y="318"/>
      <point x="411" y="313" type="curve" smooth="yes"/>
      <point x="719" y="10" type="line"/>
      <point x="724" y="4"/>
      <point x="732" y="1"/>
      <point x="740" y="1" type="curve" smooth="yes"/>
      <point x="757" y="1"/>
      <point x="770" y="14"/>
      <point x="770" y="31" type="curve" smooth="yes"/>
      <point x="770" y="39"/>
      <point x="767" y="47"/>
    </contour>
  </outline>
</glyph>
<glyph name="R" format="2">
  <advance width="609"/>
  <unicode hex="0052"/>
  <anchor x="343" y="16" name="bottom"/>
  <anchor x="314" y="774" name="top"/>
  <outline>
    <contour>
      <point x="210" y="670" type="curve" smooth="yes"/>
      <point x="288" y="670" type="line"/>
      <point x="343" y="670" type="line" smooth="yes"/>
      <point x="462" y="670"/>
      <point x="497" y="617"/>
      <point x="497" y="542" type="curve" smooth="yes"/>
      <point x="497" y="466"/>
      <point x="462" y="412"/>
      <point x="343" y="412" type="curve" smooth="yes"/>
      <point x="210" y="412" type="line" smooth="yes"/>
      <point x="193" y="412"/>
      <point x="180" y="399"/>
      <point x="180" y="382" type="curve" smooth="yes"/>
      <point x="180" y="365"/>
      <point x="193" y="352"/>
      <point x="210" y="352" type="curve" smooth="yes"/>
      <point x="343" y="352" type="line" smooth="yes"/>
      <point x="498" y="352"/>
      <point x="557" y="444"/>
      <point x="557" y="542" type="curve" smooth="yes"/>
      <point x="557" y="639"/>
      <point x="498" y="730"/>
      <point x="343" y="730" type="curve" smooth="yes"/>
      <point x="288" y="730" type="line"/>
      <point x="210" y="730" type="line" smooth="yes"/>
      <point x="193" y="730"/>
      <point x="180" y="717"/>
      <point x="180" y="700" type="curve" smooth="yes"/>
      <point x="180" y="683"/>
      <point x="193" y="670"/>
    </contour>
    <contour>
      <point x="140" y="30" type="curve" smooth="yes"/>
      <point x="140" y="700" type="line" smooth="yes"/>
      <point x="140" y="717"/>
      <point x="127" y="730"/>
      <point x="110" y="730" type="curve" smooth="yes"/>
      <point x="93" y="730"/>
      <point x="80" y="717"/>
      <point x="80" y="700" type="curve" smooth="yes"/>
      <point x="80" y="30" type="line" smooth="yes"/>
      <point x="80" y="13"/>
      <point x="93" y="0"/>
      <point x="110" y="0" type="curve" smooth="yes"/>
      <point x="127" y="0"/>
      <point x="140" y="13"/>
    </contour>
    <contour>
      <point x="342" y="284" type="curve" smooth="yes"/>
      <point x="535" y="13" type="line" smooth="yes"/>
      <point x="540" y="5"/>
      <point x="549" y="0"/>
      <point x="559" y="0" type="curve" smooth="yes"/>
      <point x="579" y="0"/>
      <point x="592" y="11"/>
      <point x="592" y="30" type="curve" smooth="yes"/>
      <point x="592" y="36"/>
      <point x="590" y="42"/>
      <point x="586" y="47" type="curve" smooth="yes"/>
      <point x="393" y="318" type="line" smooth="yes"/>
      <point x="387" y="327"/>
      <point x="379" y="331"/>
      <point x="366" y="331" type="curve" smooth="yes"/>
      <point x="349" y="331"/>
      <point x="336" y="318"/>
      <point x="336" y="301" type="curve" smooth="yes"/>
      <point x="336" y="295"/>
      <point x="338" y="289"/>
    </contour>
  </outline>
</glyph>
<glyph name="S" format="2">
  <advance width="575"/>
  <unicode hex="0053"/>
  <anchor x="312" y="16" name="bottom"/>
  <anchor x="312" y="774" name="top"/>
  <outline>
    <contour>
      <point x="247" y="55" type="curve" smooth="yes"/>
      <point x="166" y="55"/>
      <point x="100" y="121"/>
      <point x="100" y="242" type="curve" smooth="yes"/>
      <point x="100" y="259"/>
      <point x="87" y="272"/>
      <point x="70" y="272" type="curve" smooth="yes"/>
      <point x="53" y="272"/>
      <point x="40" y="259"/>
      <point x="40" y="242" type="curve" smooth="yes"/>
      <point x="40" y="92"/>
      <point x="136" y="-5"/>
      <point x="247" y="-5" type="curve" smooth="yes"/>
      <point x="264" y="-5"/>
      <point x="277" y="8"/>
      <point x="277" y="25" type="curve" smooth="yes"/>
      <point x="277" y="42"/>
      <point x="264" y="55"/>
    </contour>
    <contour>
      <point x="512" y="520" type="curve" smooth="yes"/>
      <point x="512" y="651"/>
      <point x="428" y="735"/>
      <point x="337" y="735" type="curve" smooth="yes"/>
      <point x="320" y="735"/>
      <point x="307" y="722"/>
      <point x="307" y="705" type="curve" smooth="yes"/>
      <point x="307" y="688"/>
      <point x="320" y="675"/>
      <point x="337" y="675" type="curve" smooth="yes"/>
      <point x="399" y="675"/>
      <point x="452" y="622"/>
      <point x="452" y="520" type="curve" smooth="yes"/>
      <point x="452" y="503"/>
      <point x="465" y="490"/>
      <point x="482" y="490" type="curve" smooth="yes"/>
      <point x="499" y="490"/>
      <point x="512" y="503"/>
    </contour>
    <contour>
      <point x="247" y="735" type="curve" smooth="yes"/>
      <point x="157" y="735"/>
      <point x="82" y="660"/>
      <point x="82" y="560" type="curve" smooth="yes"/>
      <point x="82" y="299"/>
      <point x="475" y="433"/>
      <point x="475" y="212" type="curve" smooth="yes"/>
      <point x="475" y="103"/>
      <point x="420" y="55"/>
      <point x="337" y="55" type="curve" smooth="yes"/>
      <point x="320" y="55"/>
      <point x="307" y="42"/>
      <point x="307" y="25" type="curve" smooth="yes"/>
      <point x="307" y="8"/>
      <point x="320" y="-5"/>
      <point x="337" y="-5" type="curve" smooth="yes"/>
      <point x="446" y="-5"/>
      <point x="535" y="71"/>
      <point x="535" y="212" type="curve" smooth="yes"/>
      <point x="535" y="493"/>
      <point x="142" y="359"/>
      <point x="142" y="560" type="curve" smooth="yes"/>
      <point x="142" y="632"/>
      <point x="185" y="675"/>
      <point x="247" y="675" type="curve" smooth="yes"/>
      <point x="264" y="675"/>
      <point x="277" y="688"/>
      <point x="277" y="705" type="curve" smooth="yes"/>
      <point x="277" y="722"/>
      <point x="264" y="735"/>
    </contour>
  </outline>
</glyph>
<glyph name="T" format="2">
  <advance width="620"/>
  <unicode hex="0054"/>
  <anchor x="310" y="16" name="bottom"/>
  <anchor x="310" y="366" name="center"/>
  <anchor x="310" y="774" name="top"/>
  <outline>
    <contour>
      <point x="280" y="600" type="curve" smooth="yes"/>
      <point x="280" y="30" type="line" smooth="yes"/>
      <point x="280" y="13"/>
      <point x="293" y="0"/>
      <point x="310" y="0" type="curve" smooth="yes"/>
      <point x="327" y="0"/>
      <point x="340" y="13"/>
      <point x="340" y="30" type="curve" smooth="yes"/>
      <point x="340" y="600" type="line" smooth="yes"/>
      <point x="340" y="617"/>
      <point x="327" y="630"/>
      <point x="310" y="630" type="curve" smooth="yes"/>
      <point x="293" y="630"/>
      <point x="280" y="617"/>
    </contour>
    <contour>
      <point x="570" y="730" type="curve" smooth="yes"/>
      <point x="50" y="730" type="line" smooth="yes"/>
      <point x="33" y="730"/>
      <point x="20" y="717"/>
      <point x="20" y="700" type="curve" smooth="yes"/>
      <point x="20" y="683"/>
      <point x="33" y="670"/>
      <point x="50" y="670" type="curve" smooth="yes"/>
      <point x="570" y="670" type="line" smooth="yes"/>
      <point x="587" y="670"/>
      <point x="600" y="683"/>
      <point x="600" y="700" type="curve" smooth="yes"/>
      <point x="600" y="717"/>
      <point x="587" y="730"/>
    </contour>
  </outline>
</glyph>
<glyph name="U" format="2">
  <advance width="688"/>
  <unicode hex="0055"/>
  <anchor x="344" y="16" name="bottom"/>
  <anchor x="392" y="25" name="ogonek"/>
  <anchor x="344" y="774" name="top"/>
  <anchor x="732" y="714" name="topright"/>
  <outline>
    <contour>
      <point x="140" y="445" type="curve" smooth="yes"/>
      <point x="140" y="700" type="line" smooth="yes"/>
      <point x="140" y="717"/>
      <point x="127" y="730"/>
      <point x="110" y="730" type="curve" smooth="yes"/>
      <point x="93" y="730"/>
      <point x="80" y="717"/>
      <point x="80" y="700" type="curve" smooth="yes"/>
      <point x="80" y="445" type="line" smooth="yes"/>
      <point x="80" y="428"/>
      <point x="93" y="415"/>
      <point x="110" y="415" type="curve" smooth="yes"/>
      <point x="127" y="415"/>
      <point x="140" y="428"/>
    </contour>
    <contour>
      <point x="548" y="700" type="curve" smooth="yes"/>
      <point x="548" y="445" type="line" smooth="yes"/>
      <point x="548" y="428"/>
      <point x="561" y="415"/>
      <point x="578" y="415" type="curve" smooth="yes"/>
      <point x="595" y="415"/>
      <point x="608" y="428"/>
      <point x="608" y="445" type="curve" smooth="yes"/>
      <point x="608" y="700" type="line" smooth="yes"/>
      <point x="608" y="717"/>
      <point x="595" y="730"/>
      <point x="578" y="730" type="curve" smooth="yes"/>
      <point x="561" y="730"/>
      <point x="548" y="717"/>
    </contour>
    <contour>
      <point x="548" y="345" type="curve" smooth="yes"/>
      <point x="548" y="258" type="line" smooth="yes"/>
      <point x="548" y="127"/>
      <point x="476" y="55"/>
      <point x="344" y="55" type="curve" smooth="yes"/>
      <point x="212" y="55"/>
      <point x="140" y="127"/>
      <point x="140" y="258" type="curve" smooth="yes"/>
      <point x="140" y="345" type="line" smooth="yes"/>
      <point x="140" y="362"/>
      <point x="127" y="375"/>
      <point x="110" y="375" type="curve" smooth="yes"/>
      <point x="93" y="375"/>
      <point x="80" y="362"/>
      <point x="80" y="345" type="curve" smooth="yes"/>
      <point x="80" y="258" type="line" smooth="yes"/>
      <point x="80" y="99"/>
      <point x="184" y="-5"/>
      <point x="344" y="-5" type="curve" smooth="yes"/>
      <point x="504" y="-5"/>
      <point x="608" y="99"/>
      <point x="608" y="258" type="curve" smooth="yes"/>
      <point x="608" y="345" type="line" smooth="yes"/>
      <point x="608" y="362"/>
      <point x="595" y="375"/>
      <point x="578" y="375" type="curve" smooth="yes"/>
      <point x="561" y="375"/>
      <point x="548" y="362"/>
    </contour>
  </outline>
</glyph>
<glyph name="V" format="2">
  <advance width="660"/>
  <unicode hex="0056"/>
  <anchor x="330" y="16" name="bottom"/>
  <anchor x="330" y="774" name="top"/>
  <outline>
    <contour>
      <point x="358" y="41" type="curve" smooth="yes"/>
      <point x="88" y="711" type="line" smooth="yes"/>
      <point x="83" y="722"/>
      <point x="73" y="730"/>
      <point x="60" y="730" type="curve" smooth="yes"/>
      <point x="43" y="730"/>
      <point x="30" y="717"/>
      <point x="30" y="700" type="curve" smooth="yes"/>
      <point x="30" y="696"/>
      <point x="31" y="692"/>
      <point x="32" y="689" type="curve" smooth="yes"/>
      <point x="302" y="19" type="line" smooth="yes"/>
      <point x="307" y="8"/>
      <point x="317" y="0"/>
      <point x="330" y="0" type="curve" smooth="yes"/>
      <point x="347" y="0"/>
      <point x="360" y="13"/>
      <point x="360" y="30" type="curve" smooth="yes"/>
      <point x="360" y="34"/>
      <point x="359" y="38"/>
    </contour>
    <contour>
      <point x="572" y="711" type="curve" smooth="yes"/>
      <point x="357" y="179" type="line" smooth="yes"/>
      <point x="356" y="176"/>
      <point x="355" y="172"/>
      <point x="355" y="168" type="curve" smooth="yes"/>
      <point x="355" y="151"/>
      <point x="368" y="138"/>
      <point x="385" y="138" type="curve" smooth="yes"/>
      <point x="398" y="138"/>
      <point x="408" y="146"/>
      <point x="413" y="157" type="curve" smooth="yes"/>
      <point x="628" y="689" type="line" smooth="yes"/>
      <point x="629" y="692"/>
      <point x="630" y="696"/>
      <point x="630" y="700" type="curve" smooth="yes"/>
      <point x="630" y="717"/>
      <point x="617" y="730"/>
      <point x="600" y="730" type="curve" smooth="yes"/>
      <point x="587" y="730"/>
      <point x="577" y="722"/>
    </contour>
  </outline>
</glyph>
<glyph name="W" format="2">
  <advance width="954"/>
  <unicode hex="0057"/>
  <anchor x="490" y="16" name="bottom"/>
  <anchor x="490" y="774" name="top"/>
  <outline>
    <contour>
      <point x="358" y="41" type="curve" smooth="yes"/>
      <point x="88" y="711" type="line" smooth="yes"/>
      <point x="83" y="722"/>
      <point x="73" y="730"/>
      <point x="60" y="730" type="curve" smooth="yes"/>
      <point x="43" y="730"/>
      <point x="30" y="717"/>
      <point x="30" y="700" type="curve" smooth="yes"/>
      <point x="30" y="696"/>
      <point x="31" y="692"/>
      <point x="32" y="689" type="curve" smooth="yes"/>
      <point x="302" y="19" type="line" smooth="yes"/>
      <point x="307" y="8"/>
      <point x="317" y="0"/>
      <point x="330" y="0" type="curve" smooth="yes"/>
      <point x="347" y="0"/>
      <point x="360" y="13"/>
      <point x="360" y="30" type="curve" smooth="yes"/>
      <point x="360" y="34"/>
      <point x="359" y="38"/>
    </contour>
    <contour>
      <point x="647" y="27" type="curve" smooth="yes"/>
      <point x="547" y="277" type="line" smooth="yes"/>
      <point x="543" y="288"/>
      <point x="532" y="296"/>
      <point x="519" y="296" type="curve" smooth="yes"/>
      <point x="502" y="296"/>
      <point x="489" y="283"/>
      <point x="489" y="266" type="curve" smooth="yes"/>
      <point x="489" y="262"/>
      <point x="490" y="258"/>
      <point x="491" y="255" type="curve" smooth="yes"/>
      <point x="591" y="5" type="line" smooth="yes"/>
      <point x="595" y="-6"/>
      <point x="606" y="-14"/>
      <point x="619" y="-14" type="curve" smooth="yes"/>
      <point x="636" y="-14"/>
      <point x="649" y="-1"/>
      <point x="649" y="16" type="curve" smooth="yes"/>
      <point x="649" y="20"/>
      <point x="648" y="24"/>
    </contour>
    <contour>
      <point x="698" y="134" type="curve" smooth="yes"/>
      <point x="922" y="689" type="line" smooth="yes"/>
      <point x="923" y="692"/>
      <point x="924" y="696"/>
      <point x="924" y="700" type="curve" smooth="yes"/>
      <point x="924" y="717"/>
      <point x="911" y="730"/>
      <point x="894" y="730" type="curve" smooth="yes"/>
      <point x="881" y="730"/>
      <point x="871" y="722"/>
      <point x="866" y="711" type="curve" smooth="yes"/>
      <point x="642" y="156" type="line" smooth="yes"/>
      <point x="641" y="153"/>
      <point x="640" y="149"/>
      <point x="640" y="145" type="curve" smooth="yes"/>
      <point x="640" y="128"/>
      <point x="653" y="115"/>
      <point x="670" y="115" type="curve" smooth="yes"/>
      <point x="683" y="115"/>
      <point x="693" y="123"/>
    </contour>
    <contour>
      <point x="572" y="711" type="curve" smooth="yes"/>
      <point x="348" y="156" type="line" smooth="yes"/>
      <point x="347" y="153"/>
      <point x="346" y="149"/>
      <point x="346" y="145" type="curve" smooth="yes"/>
      <point x="346" y="128"/>
      <point x="359" y="115"/>
      <point x="376" y="115" type="curve" smooth="yes"/>
      <point x="389" y="115"/>
      <point x="399" y="123"/>
      <point x="404" y="134" type="curve" smooth="yes"/>
      <point x="628" y="689" type="line" smooth="yes"/>
      <point x="629" y="692"/>
      <point x="630" y="696"/>
      <point x="630" y="700" type="curve" smooth="yes"/>
      <point x="630" y="717"/>
      <point x="617" y="730"/>
      <point x="600" y="730" type="curve" smooth="yes"/>
      <point x="587" y="730"/>
      <point x="577" y="722"/>
    </contour>
  </outline>
</glyph>
<glyph name="X" format="2">
  <advance width="784"/>
  <unicode hex="0058"/>
  <anchor x="405" y="16" name="bottom"/>
  <anchor x="405" y="774" name="top"/>
  <outline>
    <contour>
      <point x="297" y="322" type="curve"/>
      <point x="38" y="51" type="line" smooth="yes"/>
      <point x="33" y="45"/>
      <point x="30" y="38"/>
      <point x="30" y="30" type="curve" smooth="yes"/>
      <point x="30" y="13"/>
      <point x="43" y="0"/>
      <point x="60" y="0" type="curve" smooth="yes"/>
      <point x="69" y="0"/>
      <point x="76" y="4"/>
      <point x="82" y="9" type="curve"/>
      <point x="341" y="280" type="line" smooth="yes"/>
      <point x="346" y="286"/>
      <point x="349" y="293"/>
      <point x="349" y="301" type="curve" smooth="yes"/>
      <point x="349" y="318"/>
      <point x="336" y="331"/>
      <point x="319" y="331" type="curve" smooth="yes"/>
      <point x="310" y="331"/>
      <point x="303" y="327"/>
    </contour>
    <contour>
      <point x="734" y="51" type="curve" smooth="yes"/>
      <point x="92" y="721" type="line"/>
      <point x="86" y="726"/>
      <point x="79" y="730"/>
      <point x="70" y="730" type="curve" smooth="yes"/>
      <point x="53" y="730"/>
      <point x="40" y="717"/>
      <point x="40" y="700" type="curve" smooth="yes"/>
      <point x="40" y="692"/>
      <point x="43" y="685"/>
      <point x="48" y="679" type="curve" smooth="yes"/>
      <point x="690" y="9" type="line"/>
      <point x="696" y="4"/>
      <point x="703" y="0"/>
      <point x="712" y="0" type="curve" smooth="yes"/>
      <point x="729" y="0"/>
      <point x="742" y="13"/>
      <point x="742" y="30" type="curve" smooth="yes"/>
      <point x="742" y="38"/>
      <point x="739" y="45"/>
    </contour>
    <contour>
      <point x="702" y="721" type="curve"/>
      <point x="439" y="446" type="line" smooth="yes"/>
      <point x="434" y="440"/>
      <point x="431" y="433"/>
      <point x="431" y="425" type="curve" smooth="yes"/>
      <point x="431" y="408"/>
      <point x="444" y="395"/>
      <point x="461" y="395" type="curve" smooth="yes"/>
      <point x="470" y="395"/>
      <point x="477" y="399"/>
      <point x="483" y="404" type="curve"/>
      <point x="746" y="679" type="line" smooth="yes"/>
      <point x="751" y="685"/>
      <point x="754" y="692"/>
      <point x="754" y="700" type="curve" smooth="yes"/>
      <point x="754" y="717"/>
      <point x="741" y="730"/>
      <point x="724" y="730" type="curve" smooth="yes"/>
      <point x="715" y="730"/>
      <point x="708" y="726"/>
    </contour>
  </outline>
</glyph>
<glyph name="Y" format="2">
  <advance width="698"/>
  <unicode hex="0059"/>
  <anchor x="350" y="16" name="bottom"/>
  <anchor x="350" y="774" name="top"/>
  <anchor x="45" y="714" name="topleft"/>
  <outline>
    <contour>
      <point x="425" y="401" type="curve" smooth="yes"/>
      <point x="661" y="681" type="line" smooth="yes"/>
      <point x="665" y="686"/>
      <point x="668" y="693"/>
      <point x="668" y="700" type="curve" smooth="yes"/>
      <point x="668" y="717"/>
      <point x="655" y="730"/>
      <point x="638" y="730" type="curve" smooth="yes"/>
      <point x="629" y="730"/>
      <point x="621" y="726"/>
      <point x="615" y="719" type="curve" smooth="yes"/>
      <point x="379" y="439" type="line" smooth="yes"/>
      <point x="375" y="434"/>
      <point x="372" y="427"/>
      <point x="372" y="420" type="curve" smooth="yes"/>
      <point x="372" y="403"/>
      <point x="385" y="390"/>
      <point x="402" y="390" type="curve" smooth="yes"/>
      <point x="411" y="390"/>
      <point x="419" y="394"/>
    </contour>
    <contour>
      <point x="320" y="277" type="curve" smooth="yes"/>
      <point x="320" y="30" type="line" smooth="yes"/>
      <point x="320" y="13"/>
      <point x="333" y="0"/>
      <point x="350" y="0" type="curve" smooth="yes"/>
      <point x="367" y="0"/>
      <point x="380" y="13"/>
      <point x="380" y="30" type="curve" smooth="yes"/>
      <point x="380" y="277" type="line" smooth="yes"/>
      <point x="380" y="294"/>
      <point x="367" y="307"/>
      <point x="350" y="307" type="curve" smooth="yes"/>
      <point x="333" y="307"/>
      <point x="320" y="294"/>
    </contour>
    <contour>
      <point x="37" y="681" type="curve" smooth="yes"/>
      <point x="327" y="339" type="line" smooth="yes"/>
      <point x="333" y="332"/>
      <point x="341" y="328"/>
      <point x="350" y="328" type="curve" smooth="yes"/>
      <point x="367" y="328"/>
      <point x="380" y="341"/>
      <point x="380" y="358" type="curve" smooth="yes"/>
      <point x="380" y="365"/>
      <point x="377" y="372"/>
      <point x="373" y="377" type="curve" smooth="yes"/>
      <point x="83" y="719" type="line" smooth="yes"/>
      <point x="77" y="726"/>
      <point x="69" y="730"/>
      <point x="60" y="730" type="curve" smooth="yes"/>
      <point x="43" y="730"/>
      <point x="30" y="717"/>
      <point x="30" y="700" type="curve" smooth="yes"/>
      <point x="30" y="693"/>
      <point x="33" y="686"/>
    </contour>
  </outline>
</glyph>
<glyph name="Z" format="2">
  <advance width="702"/>
  <unicode hex="005A"/>
  <anchor x="372" y="16" name="bottom"/>
  <anchor x="372" y="366" name="center"/>
  <anchor x="372" y="774" name="top"/>
  <outline>
    <contour>
      <point x="623" y="730" type="curve" smooth="yes"/>
      <point x="87" y="730" type="line" smooth="yes"/>
      <point x="70" y="730"/>
      <point x="57" y="717"/>
      <point x="57" y="700" type="curve" smooth="yes"/>
      <point x="57" y="683"/>
      <point x="70" y="670"/>
      <point x="87" y="670" type="curve" smooth="yes"/>
      <point x="623" y="670" type="line" smooth="yes"/>
      <point x="640" y="670"/>
      <point x="653" y="683"/>
      <point x="653" y="700" type="curve" smooth="yes"/>
      <point x="653" y="717"/>
      <point x="640" y="730"/>
    </contour>
    <contour>
      <point x="83" y="11" type="curve" smooth="yes"/>
      <point x="573" y="595" type="line" smooth="yes"/>
      <point x="577" y="600"/>
      <point x="580" y="607"/>
      <point x="580" y="614" type="curve" smooth="yes"/>
      <point x="580" y="631"/>
      <point x="567" y="644"/>
      <point x="550" y="644" type="curve" smooth="yes"/>
      <point x="541" y="644"/>
      <point x="533" y="640"/>
      <point x="527" y="633" type="curve" smooth="yes"/>
      <point x="37" y="49" type="line" smooth="yes"/>
      <point x="33" y="44"/>
      <point x="30" y="37"/>
      <point x="30" y="30" type="curve" smooth="yes"/>
      <point x="30" y="13"/>
      <point x="43" y="0"/>
      <point x="60" y="0" type="curve" smooth="yes"/>
      <point x="69" y="0"/>
      <point x="77" y="4"/>
    </contour>
    <contour>
      <point x="632" y="60" type="curve" smooth="yes"/>
      <point x="178" y="60" type="line" smooth="yes"/>
      <point x="161" y="60"/>
      <point x="148" y="47"/>
      <point x="148" y="30" type="curve" smooth="yes"/>
      <point x="148" y="13"/>
      <point x="161" y="0"/>
      <point x="178" y="0" type="curve" smooth="yes"/>
      <point x="632" y="0" type="line" smooth="yes"/>
      <point x="649" y="0"/>
      <point x="662" y="13"/>
      <point x="662" y="30" type="curve" smooth="yes"/>
      <point x="662" y="47"/>
      <point x="649" y="60"/>
    </contour>
  </outline>
</glyph>
<glyph name="bracketleft" format="2">
  <advance width="291"/>
  <unicode hex="005B"/>
  <outline>
    <contour>
      <point x="145" y="758" type="curve" smooth="yes"/>
      <point x="251" y="758" type="line" smooth="yes"/>
      <point x="268" y="758"/>
      <point x="281" y="771"/>
      <point x="281" y="788" type="curve" smooth="yes"/>
      <point x="281" y="805"/>
      <point x="268" y="818"/>
      <point x="251" y="818" type="curve" smooth="yes"/>
      <point x="145" y="818" type="line" smooth="yes"/>
      <point x="128" y="818"/>
      <point x="115" y="805"/>
      <point x="115" y="788" type="curve" smooth="yes"/>
      <point x="115" y="771"/>
      <point x="128" y="758"/>
    </contour>
    <contour>
      <point x="251" y="-64" type="curve" smooth="yes"/>
      <point x="145" y="-64" type="line" smooth="yes"/>
      <point x="128" y="-64"/>
      <point x="115" y="-77"/>
      <point x="115" y="-94" type="curve" smooth="yes"/>
      <point x="115" y="-111"/>
      <point x="128" y="-124"/>
      <point x="145" y="-124" type="curve" smooth="yes"/>
      <point x="251" y="-124" type="line" smooth="yes"/>
      <point x="268" y="-124"/>
      <point x="281" y="-111"/>
      <point x="281" y="-94" type="curve" smooth="yes"/>
      <point x="281" y="-77"/>
      <point x="268" y="-64"/>
    </contour>
    <contour>
      <point x="90" y="-94" type="curve" smooth="yes"/>
      <point x="90" y="788" type="line" smooth="yes"/>
      <point x="90" y="805"/>
      <point x="77" y="818"/>
      <point x="60" y="818" type="curve" smooth="yes"/>
      <point x="43" y="818"/>
      <point x="30" y="805"/>
      <point x="30" y="788" type="curve" smooth="yes"/>
      <point x="30" y="-94" type="line" smooth="yes"/>
      <point x="30" y="-111"/>
      <point x="43" y="-124"/>
      <point x="60" y="-124" type="curve" smooth="yes"/>
      <point x="77" y="-124"/>
      <point x="90" y="-111"/>
    </contour>
  </outline>
</glyph>
<glyph name="backslash" format="2">
  <advance width="242"/>
  <unicode hex="005C"/>
  <outline>
    <contour>
      <point x="-9" y="635" type="curve" smooth="yes"/>
      <point x="193" y="-9" type="line" smooth="yes"/>
      <point x="197" y="-22"/>
      <point x="209" y="-30"/>
      <point x="222" y="-30" type="curve" smooth="yes"/>
      <point x="240" y="-30"/>
      <point x="252" y="-16"/>
      <point x="252" y="0" type="curve" smooth="yes"/>
      <point x="252" y="3"/>
      <point x="252" y="6"/>
      <point x="251" y="9" type="curve" smooth="yes"/>
      <point x="49" y="653" type="line" smooth="yes"/>
      <point x="45" y="666"/>
      <point x="33" y="674"/>
      <point x="20" y="674" type="curve" smooth="yes"/>
      <point x="2" y="674"/>
      <point x="-10" y="660"/>
      <point x="-10" y="644" type="curve" smooth="yes"/>
      <point x="-10" y="641"/>
      <point x="-10" y="638"/>
    </contour>
  </outline>
</glyph>
<glyph name="bracketright" format="2">
  <advance width="170"/>
  <unicode hex="005D"/>
  <outline>
    <contour>
      <point x="94" y="674" type="curve" smooth="yes"/>
      <point x="26" y="674" type="line" smooth="yes"/>
      <point x="9" y="674"/>
      <point x="-4" y="661"/>
      <point x="-4" y="644" type="curve" smooth="yes"/>
      <point x="-4" y="627"/>
      <point x="9" y="614"/>
      <point x="26" y="614" type="curve" smooth="yes"/>
      <point x="64" y="614" type="line"/>
      <point x="64" y="-50" type="line"/>
      <point x="26" y="-50" type="line" smooth="yes"/>
      <point x="9" y="-50"/>
      <point x="-4" y="-63"/>
      <point x="-4" y="-80" type="curve" smooth="yes"/>
      <point x="-4" y="-97"/>
      <point x="9" y="-110"/>
      <point x="26" y="-110" type="curve" smooth="yes"/>
      <point x="95" y="-110" type="line" smooth="yes"/>
      <point x="112" y="-110"/>
      <point x="125" y="-97"/>
      <point x="125" y="-80" type="curve" smooth="yes"/>
      <point x="125" y="644" type="line" smooth="yes"/>
      <point x="124" y="661"/>
      <point x="111" y="674"/>
    </contour>
  </outline>
</glyph>
<glyph name="asciicircum" format="2">
  <advance width="163"/>
  <unicode hex="005E"/>
  <outline>
    <contour>
      <point x="56" y="619" type="curve" smooth="yes"/>
      <point x="57" y="620" type="line"/>
      <point x="-16" y="525" type="line" smooth="yes"/>
      <point x="-20" y="519"/>
      <point x="-22" y="513"/>
      <point x="-22" y="506" type="curve" smooth="yes"/>
      <point x="-22" y="498"/>
      <point x="-18" y="489"/>
      <point x="-11" y="483" type="curve" smooth="yes"/>
      <point x="-5" y="479"/>
      <point x="1" y="477"/>
      <point x="8" y="477" type="curve" smooth="yes"/>
      <point x="16" y="477"/>
      <point x="25" y="481"/>
      <point x="31" y="488" type="curve" smooth="yes"/>
      <point x="80" y="552" type="line"/>
      <point x="128" y="488" type="line" smooth="yes"/>
      <point x="134" y="480"/>
      <point x="143" y="476"/>
      <point x="152" y="476" type="curve" smooth="yes"/>
      <point x="159" y="476"/>
      <point x="165" y="478"/>
      <point x="170" y="482" type="curve" smooth="yes"/>
      <point x="178" y="488"/>
      <point x="182" y="497"/>
      <point x="182" y="506" type="curve" smooth="yes"/>
      <point x="182" y="513"/>
      <point x="180" y="519"/>
      <point x="176" y="524" type="curve" smooth="yes"/>
      <point x="104" y="619" type="line" smooth="yes"/>
      <point x="98" y="627"/>
      <point x="90" y="631"/>
      <point x="80" y="631" type="curve" smooth="yes"/>
      <point x="70" y="631"/>
      <point x="62" y="627"/>
    </contour>
  </outline>
</glyph>
<glyph name="underscore" format="2">
  <advance width="453"/>
  <unicode hex="005F"/>
  <outline>
    <contour>
      <point x="438" y="15" type="curve" smooth="yes"/>
      <point x="15" y="15" type="line" smooth="yes"/>
      <point x="-2" y="15"/>
      <point x="-15" y="2"/>
      <point x="-15" y="-15" type="curve" smooth="yes"/>
      <point x="-15" y="-32"/>
      <point x="-2" y="-45"/>
      <point x="15" y="-45" type="curve" smooth="yes"/>
      <point x="438" y="-45" type="line" smooth="yes"/>
      <point x="455" y="-45"/>
      <point x="468" y="-32"/>
      <point x="468" y="-15" type="curve" smooth="yes"/>
      <point x="468" y="2"/>
      <point x="455" y="15"/>
    </contour>
  </outline>
</glyph>
<glyph name="grave" format="2">
  <advance width="102"/>
  <unicode hex="0060"/>
  <outline>
    <contour>
      <point x="106" y="531" type="curve" smooth="yes"/>
      <point x="107" y="530" type="line" smooth="yes"/>
      <point x="82" y="551"/>
      <point x="56" y="580"/>
      <point x="38" y="615" type="curve" smooth="yes"/>
      <point x="33" y="626"/>
      <point x="22" y="632"/>
      <point x="11" y="632" type="curve" smooth="yes"/>
      <point x="7" y="632"/>
      <point x="2" y="631"/>
      <point x="-2" y="629" type="curve" smooth="yes"/>
      <point x="-13" y="624"/>
      <point x="-19" y="613"/>
      <point x="-19" y="602" type="curve" smooth="yes"/>
      <point x="-19" y="598"/>
      <point x="-18" y="593"/>
      <point x="-16" y="589" type="curve" smooth="yes"/>
      <point x="6" y="544"/>
      <point x="38" y="509"/>
      <point x="67" y="484" type="curve" smooth="yes"/>
      <point x="73" y="479"/>
      <point x="80" y="477"/>
      <point x="86" y="477" type="curve" smooth="yes"/>
      <point x="95" y="477"/>
      <point x="104" y="481"/>
      <point x="110" y="488" type="curve" smooth="yes"/>
      <point x="115" y="494"/>
      <point x="117" y="501"/>
      <point x="117" y="507" type="curve" smooth="yes"/>
      <point x="117" y="516"/>
      <point x="113" y="525"/>
    </contour>
  </outline>
</glyph>
<glyph name="a" format="2">
  <advance width="556"/>
  <unicode hex="0061"/>
  <anchor x="265" y="15" name="bottom"/>
  <anchor x="488" y="25" name="ogonek"/>
  <anchor x="285" y="627" name="top"/>
  <outline>
    <contour>
      <point x="486" y="29" type="curve" smooth="yes"/>
      <point x="486" y="407" type="line" smooth="yes"/>
      <point x="486" y="541"/>
      <point x="374" y="588"/>
      <point x="282" y="588" type="curve" smooth="yes"/>
      <point x="190" y="588"/>
      <point x="78" y="541"/>
      <point x="78" y="417" type="curve" smooth="yes"/>
      <point x="78" y="400"/>
      <point x="91" y="387"/>
      <point x="108" y="387" type="curve" smooth="yes"/>
      <point x="125" y="387"/>
      <point x="138" y="400"/>
      <point x="138" y="417" type="curve" smooth="yes"/>
      <point x="138" y="499"/>
      <point x="206" y="528"/>
      <point x="282" y="528" type="curve" smooth="yes"/>
      <point x="358" y="528"/>
      <point x="426" y="499"/>
      <point x="426" y="407" type="curve" smooth="yes"/>
      <point x="426" y="29" type="line" smooth="yes"/>
      <point x="426" y="12"/>
      <point x="439" y="-1"/>
      <point x="456" y="-1" type="curve" smooth="yes"/>
      <point x="473" y="-1"/>
      <point x="486" y="12"/>
    </contour>
    <contour>
      <point x="354" y="105" type="curve" smooth="yes"/>
      <point x="315" y="70"/>
      <point x="272" y="55"/>
      <point x="224" y="55" type="curve"/>
      <point x="224" y="55"/>
      <point x="221" y="55"/>
      <point x="221" y="55" type="curve"/>
      <point x="179" y="55"/>
      <point x="101" y="72"/>
      <point x="100" y="151" type="curve"/>
      <point x="100" y="151"/>
      <point x="100" y="153"/>
      <point x="100" y="153" type="curve"/>
      <point x="101" y="238"/>
      <point x="168" y="269"/>
      <point x="243" y="291" type="curve" smooth="yes"/>
      <point x="383" y="332" type="line" smooth="yes"/>
      <point x="396" y="336"/>
      <point x="405" y="347"/>
      <point x="405" y="361" type="curve" smooth="yes"/>
      <point x="405" y="381"/>
      <point x="386" y="396"/>
      <point x="367" y="390" type="curve" smooth="yes"/>
      <point x="227" y="349" type="line" smooth="yes"/>
      <point x="146" y="325"/>
      <point x="41" y="279"/>
      <point x="40" y="153" type="curve"/>
      <point x="40" y="153"/>
      <point x="40" y="151"/>
      <point x="40" y="151" type="curve"/>
      <point x="41" y="23"/>
      <point x="169" y="-5"/>
      <point x="221" y="-5" type="curve"/>
      <point x="221" y="-5"/>
      <point x="224" y="-5"/>
      <point x="224" y="-5" type="curve"/>
      <point x="284" y="-5"/>
      <point x="345" y="17"/>
      <point x="394" y="61" type="curve" smooth="yes"/>
      <point x="400" y="66"/>
      <point x="404" y="74"/>
      <point x="404" y="83" type="curve" smooth="yes"/>
      <point x="404" y="100"/>
      <point x="391" y="113"/>
      <point x="374" y="113" type="curve" smooth="yes"/>
      <point x="366" y="113"/>
      <point x="359" y="110"/>
    </contour>
  </outline>
</glyph>
<glyph name="b" format="2">
  <advance width="611"/>
  <unicode hex="0062"/>
  <anchor x="314" y="15" name="bottom"/>
  <anchor x="314" y="291" name="center"/>
  <anchor x="314" y="627" name="top"/>
  <outline>
    <contour>
      <point x="130" y="30" type="curve" smooth="yes"/>
      <point x="130" y="700" type="line" smooth="yes"/>
      <point x="130" y="717"/>
      <point x="117" y="730"/>
      <point x="100" y="730" type="curve" smooth="yes"/>
      <point x="83" y="730"/>
      <point x="70" y="717"/>
      <point x="70" y="700" type="curve" smooth="yes"/>
      <point x="70" y="30" type="line" smooth="yes"/>
      <point x="70" y="13"/>
      <point x="83" y="0"/>
      <point x="100" y="0" type="curve" smooth="yes"/>
      <point x="117" y="0"/>
      <point x="130" y="13"/>
    </contour>
    <contour>
      <point x="215" y="505" type="curve" smooth="yes"/>
      <point x="242" y="521"/>
      <point x="272" y="528"/>
      <point x="311" y="528" type="curve" smooth="yes"/>
      <point x="437" y="528"/>
      <point x="511" y="429"/>
      <point x="511" y="293" type="curve" smooth="yes"/>
      <point x="511" y="153"/>
      <point x="437" y="55"/>
      <point x="311" y="55" type="curve" smooth="yes"/>
      <point x="277" y="55"/>
      <point x="246" y="64"/>
      <point x="216" y="83" type="curve" smooth="yes"/>
      <point x="212" y="86"/>
      <point x="206" y="88"/>
      <point x="200" y="88" type="curve" smooth="yes"/>
      <point x="183" y="88"/>
      <point x="170" y="75"/>
      <point x="170" y="58" type="curve" smooth="yes"/>
      <point x="170" y="47"/>
      <point x="175" y="38"/>
      <point x="184" y="33" type="curve" smooth="yes"/>
      <point x="222" y="8"/>
      <point x="268" y="-5"/>
      <point x="311" y="-5" type="curve" smooth="yes"/>
      <point x="471" y="-5"/>
      <point x="571" y="129"/>
      <point x="571" y="293" type="curve" smooth="yes"/>
      <point x="571" y="453"/>
      <point x="471" y="588"/>
      <point x="311" y="588" type="curve" smooth="yes"/>
      <point x="264" y="588"/>
      <point x="220" y="578"/>
      <point x="185" y="557" type="curve" smooth="yes"/>
      <point x="176" y="552"/>
      <point x="170" y="542"/>
      <point x="170" y="531" type="curve" smooth="yes"/>
      <point x="170" y="514"/>
      <point x="183" y="501"/>
      <point x="200" y="501" type="curve" smooth="yes"/>
      <point x="205" y="501"/>
      <point x="211" y="502"/>
    </contour>
  </outline>
</glyph>
<glyph name="c" format="2">
  <advance width="581"/>
  <unicode hex="0063"/>
  <anchor x="297" y="15" name="bottom"/>
  <anchor x="299" y="627" name="top"/>
  <outline>
    <contour>
      <point x="481" y="212" type="curve" smooth="yes"/>
      <point x="481" y="113"/>
      <point x="419" y="55"/>
      <point x="300" y="55" type="curve" smooth="yes"/>
      <point x="174" y="55"/>
      <point x="100" y="154"/>
      <point x="100" y="294" type="curve" smooth="yes"/>
      <point x="100" y="430"/>
      <point x="174" y="528"/>
      <point x="300" y="528" type="curve" smooth="yes"/>
      <point x="401" y="528"/>
      <point x="471" y="481"/>
      <point x="471" y="391" type="curve" smooth="yes"/>
      <point x="471" y="374"/>
      <point x="484" y="361"/>
      <point x="501" y="361" type="curve" smooth="yes"/>
      <point x="518" y="361"/>
      <point x="531" y="374"/>
      <point x="531" y="391" type="curve" smooth="yes"/>
      <point x="531" y="516"/>
      <point x="424" y="588"/>
      <point x="300" y="588" type="curve" smooth="yes"/>
      <point x="140" y="588"/>
      <point x="40" y="454"/>
      <point x="40" y="294" type="curve" smooth="yes"/>
      <point x="40" y="130"/>
      <point x="140" y="-5"/>
      <point x="300" y="-5" type="curve" smooth="yes"/>
      <point x="447" y="-5"/>
      <point x="541" y="83"/>
      <point x="541" y="212" type="curve" smooth="yes"/>
      <point x="541" y="229"/>
      <point x="528" y="242"/>
      <point x="511" y="242" type="curve" smooth="yes"/>
      <point x="494" y="242"/>
      <point x="481" y="229"/>
    </contour>
  </outline>
</glyph>
<glyph name="d" format="2">
  <advance width="611"/>
  <unicode hex="0064"/>
  <anchor x="303" y="15" name="bottom"/>
  <anchor x="303" y="291" name="center"/>
  <anchor x="502" y="607" name="top"/>
  <anchor x="598" y="789" name="topright"/>
  <outline>
    <contour>
      <point x="541" y="30" type="curve" smooth="yes"/>
      <point x="541" y="700" type="line" smooth="yes"/>
      <point x="541" y="717"/>
      <point x="528" y="730"/>
      <point x="511" y="730" type="curve" smooth="yes"/>
      <point x="494" y="730"/>
      <point x="481" y="717"/>
      <point x="481" y="700" type="curve" smooth="yes"/>
      <point x="481" y="30" type="line" smooth="yes"/>
      <point x="481" y="13"/>
      <point x="494" y="0"/>
      <point x="511" y="0" type="curve" smooth="yes"/>
      <point x="528" y="0"/>
      <point x="541" y="13"/>
    </contour>
    <contour>
      <point x="395" y="83" type="curve" smooth="yes"/>
      <point x="365" y="64"/>
      <point x="334" y="55"/>
      <point x="300" y="55" type="curve" smooth="yes"/>
      <point x="174" y="55"/>
      <point x="100" y="153"/>
      <point x="100" y="293" type="curve" smooth="yes"/>
      <point x="100" y="429"/>
      <point x="174" y="528"/>
      <point x="300" y="528" type="curve" smooth="yes"/>
      <point x="339" y="528"/>
      <point x="369" y="521"/>
      <point x="396" y="505" type="curve" smooth="yes"/>
      <point x="400" y="502"/>
      <point x="406" y="501"/>
      <point x="411" y="501" type="curve" smooth="yes"/>
      <point x="428" y="501"/>
      <point x="441" y="514"/>
      <point x="441" y="531" type="curve" smooth="yes"/>
      <point x="441" y="542"/>
      <point x="435" y="552"/>
      <point x="426" y="557" type="curve" smooth="yes"/>
      <point x="391" y="578"/>
      <point x="347" y="588"/>
      <point x="300" y="588" type="curve" smooth="yes"/>
      <point x="140" y="588"/>
      <point x="40" y="453"/>
      <point x="40" y="293" type="curve" smooth="yes"/>
      <point x="40" y="129"/>
      <point x="140" y="-5"/>
      <point x="300" y="-5" type="curve" smooth="yes"/>
      <point x="343" y="-5"/>
      <point x="389" y="8"/>
      <point x="427" y="33" type="curve" smooth="yes"/>
      <point x="436" y="38"/>
      <point x="441" y="47"/>
      <point x="441" y="58" type="curve" smooth="yes"/>
      <point x="441" y="75"/>
      <point x="428" y="88"/>
      <point x="411" y="88" type="curve" smooth="yes"/>
      <point x="405" y="88"/>
      <point x="399" y="86"/>
    </contour>
  </outline>
</glyph>
<glyph name="e" format="2">
  <advance width="603"/>
  <unicode hex="0065"/>
  <anchor x="315" y="15" name="bottom"/>
  <anchor x="369" y="25" name="ogonek"/>
  <anchor x="315" y="627" name="top"/>
  <outline>
    <contour>
      <point x="563" y="320" type="curve" smooth="yes"/>
      <point x="563" y="492"/>
      <point x="447" y="588"/>
      <point x="315" y="588" type="curve" smooth="yes"/>
      <point x="147" y="588"/>
      <point x="40" y="455"/>
      <point x="40" y="294" type="curve" smooth="yes"/>
      <point x="40" y="129"/>
      <point x="147" y="-5"/>
      <point x="315" y="-5" type="curve" smooth="yes"/>
      <point x="492" y="-5"/>
      <point x="563" y="115"/>
      <point x="563" y="198" type="curve" smooth="yes"/>
      <point x="563" y="215"/>
      <point x="550" y="228"/>
      <point x="533" y="228" type="curve" smooth="yes"/>
      <point x="516" y="228"/>
      <point x="503" y="215"/>
      <point x="503" y="198" type="curve" smooth="yes"/>
      <point x="503" y="136"/>
      <point x="454" y="55"/>
      <point x="315" y="55" type="curve" smooth="yes"/>
      <point x="179" y="55"/>
      <point x="100" y="155"/>
      <point x="100" y="294" type="curve" smooth="yes"/>
      <point x="100" y="429"/>
      <point x="179" y="528"/>
      <point x="315" y="528" type="curve" smooth="yes"/>
      <point x="421" y="528"/>
      <point x="503" y="460"/>
      <point x="503" y="320" type="curve" smooth="yes"/>
      <point x="503" y="303"/>
      <point x="516" y="290"/>
      <point x="533" y="290" type="curve" smooth="yes"/>
      <point x="550" y="290"/>
      <point x="563" y="303"/>
    </contour>
    <contour>
      <point x="154" y="290" type="curve" smooth="yes"/>
      <point x="453" y="290" type="line" smooth="yes"/>
      <point x="470" y="290"/>
      <point x="483" y="303"/>
      <point x="483" y="320" type="curve" smooth="yes"/>
      <point x="483" y="337"/>
      <point x="470" y="350"/>
      <point x="453" y="350" type="curve" smooth="yes"/>
      <point x="154" y="350" type="line" smooth="yes"/>
      <point x="137" y="350"/>
      <point x="124" y="337"/>
      <point x="124" y="320" type="curve" smooth="yes"/>
      <point x="124" y="303"/>
      <point x="137" y="290"/>
    </contour>
  </outline>
</glyph>
<glyph name="f" format="2">
  <advance width="480"/>
  <unicode hex="0066"/>
  <anchor x="222" y="15" name="bottom"/>
  <anchor x="222" y="849" name="top"/>
  <outline>
    <contour>
      <point x="148" y="362" type="curve" smooth="yes"/>
      <point x="148" y="31" type="line" smooth="yes"/>
      <point x="148" y="14"/>
      <point x="161" y="1"/>
      <point x="178" y="1" type="curve" smooth="yes"/>
      <point x="195" y="1"/>
      <point x="208" y="14"/>
      <point x="208" y="31" type="curve" smooth="yes"/>
      <point x="208" y="362" type="line" smooth="yes"/>
      <point x="208" y="379"/>
      <point x="195" y="392"/>
      <point x="178" y="392" type="curve" smooth="yes"/>
      <point x="161" y="392"/>
      <point x="148" y="379"/>
    </contour>
    <contour>
      <point x="50" y="411" type="curve" smooth="yes"/>
      <point x="406" y="411" type="line" smooth="yes"/>
      <point x="423" y="411"/>
      <point x="436" y="424"/>
      <point x="436" y="441" type="curve" smooth="yes"/>
      <point x="436" y="458"/>
      <point x="423" y="471"/>
      <point x="406" y="471" type="curve" smooth="yes"/>
      <point x="50" y="471" type="line" smooth="yes"/>
      <point x="33" y="471"/>
      <point x="20" y="458"/>
      <point x="20" y="441" type="curve" smooth="yes"/>
      <point x="20" y="424"/>
      <point x="33" y="411"/>
    </contour>
    <contour>
      <point x="470" y="593" type="curve" smooth="yes"/>
      <point x="470" y="705"/>
      <point x="406" y="754"/>
      <point x="320" y="754" type="curve" smooth="yes"/>
      <point x="199" y="754"/>
      <point x="148" y="671"/>
      <point x="148" y="561" type="curve" smooth="yes"/>
      <point x="148" y="522" type="line" smooth="yes"/>
      <point x="148" y="505"/>
      <point x="161" y="492"/>
      <point x="178" y="492" type="curve" smooth="yes"/>
      <point x="195" y="492"/>
      <point x="208" y="505"/>
      <point x="208" y="522" type="curve" smooth="yes"/>
      <point x="208" y="561" type="line" smooth="yes"/>
      <point x="208" y="648"/>
      <point x="235" y="694"/>
      <point x="320" y="694" type="curve" smooth="yes"/>
      <point x="382" y="694"/>
      <point x="410" y="671"/>
      <point x="410" y="593" type="curve" smooth="yes"/>
      <point x="410" y="576"/>
      <point x="423" y="563"/>
      <point x="440" y="563" type="curve" smooth="yes"/>
      <point x="457" y="563"/>
      <point x="470" y="576"/>
    </contour>
  </outline>
</glyph>
<glyph name="g" format="2">
  <advance width="672"/>
  <unicode hex="0067"/>
  <outline>
    <contour>
      <point x="614" y="210" type="curve" smooth="yes"/>
      <point x="614" y="311" type="line" smooth="yes"/>
      <point x="614" y="328"/>
      <point x="601" y="341"/>
      <point x="584" y="341" type="curve" smooth="yes"/>
      <point x="567" y="341"/>
      <point x="554" y="328"/>
      <point x="554" y="311" type="curve" smooth="yes"/>
      <point x="554" y="209" type="line" smooth="yes"/>
      <point x="554" y="193"/>
      <point x="552" y="177"/>
      <point x="550" y="169" type="curve" smooth="yes"/>
      <point x="541" y="126"/>
      <point x="511" y="87"/>
      <point x="472" y="64" type="curve" smooth="yes"/>
      <point x="455" y="54"/>
      <point x="437" y="46"/>
      <point x="418" y="41" type="curve" smooth="yes"/>
      <point x="399" y="36"/>
      <point x="379" y="33"/>
      <point x="359" y="33" type="curve" smooth="yes"/>
      <point x="344" y="33"/>
      <point x="329" y="35"/>
      <point x="314" y="38" type="curve" smooth="yes"/>
      <point x="299" y="41"/>
      <point x="284" y="45"/>
      <point x="270" y="51" type="curve" smooth="yes"/>
      <point x="256" y="57"/>
      <point x="242" y="64"/>
      <point x="229" y="72" type="curve" smooth="yes"/>
      <point x="216" y="80"/>
      <point x="204" y="90"/>
      <point x="193" y="101" type="curve" smooth="yes"/>
      <point x="181" y="112"/>
      <point x="170" y="124"/>
      <point x="160" y="137" type="curve" smooth="yes"/>
      <point x="150" y="150"/>
      <point x="142" y="163"/>
      <point x="135" y="177" type="curve" smooth="yes"/>
      <point x="128" y="190"/>
      <point x="122" y="204"/>
      <point x="117" y="218" type="curve" smooth="yes"/>
      <point x="112" y="232"/>
      <point x="108" y="247"/>
      <point x="105" y="262" type="curve" smooth="yes"/>
      <point x="102" y="277"/>
      <point x="100" y="292"/>
      <point x="99" y="307" type="curve" smooth="yes"/>
      <point x="99" y="313" type="line"/>
      <point x="99" y="319" type="line" smooth="yes"/>
      <point x="99" y="333"/>
      <point x="100" y="347"/>
      <point x="102" y="361" type="curve" smooth="yes"/>
      <point x="104" y="375"/>
      <point x="107" y="389"/>
      <point x="111" y="403" type="curve" smooth="yes"/>
      <point x="115" y="417"/>
      <point x="119" y="430"/>
      <point x="124" y="443" type="curve" smooth="yes"/>
      <point x="131" y="461"/>
      <point x="140" y="478"/>
      <point x="150" y="494" type="curve" smooth="yes"/>
      <point x="183" y="547"/>
      <point x="255" y="613"/>
      <point x="358" y="613" type="curve" smooth="yes"/>
      <point x="400" y="613"/>
      <point x="442" y="598"/>
      <point x="486" y="571" type="curve" smooth="yes"/>
      <point x="491" y="568"/>
      <point x="497" y="566"/>
      <point x="502" y="566" type="curve" smooth="yes"/>
      <point x="512" y="566"/>
      <point x="522" y="571"/>
      <point x="528" y="580" type="curve" smooth="yes"/>
      <point x="531" y="585"/>
      <point x="533" y="591"/>
      <point x="533" y="596" type="curve" smooth="yes"/>
      <point x="533" y="606"/>
      <point x="528" y="616"/>
      <point x="519" y="622" type="curve" smooth="yes"/>
      <point x="503" y="632"/>
      <point x="486" y="641"/>
      <point x="468" y="648" type="curve" smooth="yes"/>
      <point x="450" y="655"/>
      <point x="432" y="660"/>
      <point x="413" y="664" type="curve" smooth="yes"/>
      <point x="394" y="668"/>
      <point x="375" y="670"/>
      <point x="356" y="670" type="curve" smooth="yes"/>
      <point x="228" y="670"/>
      <point x="144" y="596"/>
      <point x="98" y="523" type="curve" smooth="yes"/>
      <point x="86" y="504"/>
      <point x="76" y="484"/>
      <point x="67" y="463" type="curve" smooth="yes"/>
      <point x="61" y="447"/>
      <point x="56" y="431"/>
      <point x="52" y="415" type="curve" smooth="yes"/>
      <point x="48" y="399"/>
      <point x="45" y="383"/>
      <point x="43" y="366" type="curve" smooth="yes"/>
      <point x="41" y="349"/>
      <point x="40" y="332"/>
      <point x="40" y="315" type="curve" smooth="yes"/>
      <point x="40" y="309" type="line"/>
      <point x="40" y="303" type="line" smooth="yes"/>
      <point x="41" y="285"/>
      <point x="43" y="267"/>
      <point x="46" y="249" type="curve" smooth="yes"/>
      <point x="49" y="231"/>
      <point x="54" y="213"/>
      <point x="60" y="196" type="curve" smooth="yes"/>
      <point x="66" y="179"/>
      <point x="73" y="162"/>
      <point x="81" y="146" type="curve" smooth="yes"/>
      <point x="90" y="129"/>
      <point x="100" y="113"/>
      <point x="112" y="98" type="curve" smooth="yes"/>
      <point x="124" y="83"/>
      <point x="137" y="69"/>
      <point x="151" y="56" type="curve" smooth="yes"/>
      <point x="165" y="43"/>
      <point x="180" y="31"/>
      <point x="196" y="21" type="curve" smooth="yes"/>
      <point x="212" y="11"/>
      <point x="229" y="2"/>
      <point x="247" y="-5" type="curve" smooth="yes"/>
      <point x="265" y="-12"/>
      <point x="283" y="-18"/>
      <point x="302" y="-22" type="curve" smooth="yes"/>
      <point x="321" y="-26"/>
      <point x="340" y="-28"/>
      <point x="359" y="-28" type="curve" smooth="yes"/>
      <point x="384" y="-28"/>
      <point x="409" y="-25"/>
      <point x="433" y="-18" type="curve" smooth="yes"/>
      <point x="457" y="-11"/>
      <point x="481" y="-1"/>
      <point x="503" y="12" type="curve" smooth="yes"/>
      <point x="553" y="42"/>
      <point x="596" y="93"/>
      <point x="610" y="157" type="curve" smooth="yes"/>
      <point x="614" y="178"/>
      <point x="614" y="205"/>
    </contour>
    <contour>
      <point x="490" y="342" type="curve" smooth="yes"/>
      <point x="301" y="342" type="line" smooth="yes"/>
      <point x="284" y="342"/>
      <point x="270" y="329"/>
      <point x="270" y="312" type="curve" smooth="yes"/>
      <point x="270" y="295"/>
      <point x="283" y="281"/>
      <point x="300" y="281" type="curve" smooth="yes"/>
      <point x="489" y="281" type="line" smooth="yes"/>
      <point x="506" y="280"/>
      <point x="520" y="293"/>
      <point x="520" y="310" type="curve" smooth="yes"/>
      <point x="520" y="327"/>
      <point x="507" y="341"/>
    </contour>
  </outline>
</glyph>
<glyph name="h" format="2">
  <advance width="626"/>
  <unicode hex="0068"/>
  <anchor x="313" y="15" name="bottom"/>
  <anchor x="313" y="402" name="center"/>
  <anchor x="105" y="781" name="top"/>
  <outline>
    <contour>
      <point x="130" y="30" type="curve" smooth="yes"/>
      <point x="130" y="723" type="line" smooth="yes"/>
      <point x="130" y="740"/>
      <point x="117" y="753"/>
      <point x="100" y="753" type="curve" smooth="yes"/>
      <point x="83" y="753"/>
      <point x="70" y="740"/>
      <point x="70" y="723" type="curve" smooth="yes"/>
      <point x="70" y="30" type="line" smooth="yes"/>
      <point x="70" y="13"/>
      <point x="83" y="0"/>
      <point x="100" y="0" type="curve" smooth="yes"/>
      <point x="117" y="0"/>
      <point x="130" y="13"/>
    </contour>
    <contour>
      <point x="216" y="493" type="curve" smooth="yes"/>
      <point x="251" y="516"/>
      <point x="290" y="528"/>
      <point x="336" y="528" type="curve" smooth="yes"/>
      <point x="447" y="528"/>
      <point x="506" y="487"/>
      <point x="506" y="367" type="curve" smooth="yes"/>
      <point x="506" y="30" type="line" smooth="yes"/>
      <point x="506" y="13"/>
      <point x="519" y="0"/>
      <point x="536" y="0" type="curve" smooth="yes"/>
      <point x="553" y="0"/>
      <point x="566" y="13"/>
      <point x="566" y="30" type="curve" smooth="yes"/>
      <point x="566" y="367" type="line" smooth="yes"/>
      <point x="566" y="523"/>
      <point x="469" y="588"/>
      <point x="336" y="588" type="curve" smooth="yes"/>
      <point x="279" y="588"/>
      <point x="226" y="571"/>
      <point x="184" y="543" type="curve" smooth="yes"/>
      <point x="175" y="538"/>
      <point x="170" y="528"/>
      <point x="170" y="518" type="curve" smooth="yes"/>
      <point x="170" y="501"/>
      <point x="183" y="488"/>
      <point x="200" y="488" type="curve" smooth="yes"/>
      <point x="206" y="488"/>
      <point x="212" y="490"/>
    </contour>
  </outline>
</glyph>
<glyph name="k" format="2">
  <advance width="532"/>
  <unicode hex="006B"/>
  <anchor x="279" y="15" name="bottom"/>
  <anchor x="279" y="849" name="top"/>
  <outline>
    <contour>
      <point x="70" y="723" type="curve" smooth="yes"/>
      <point x="70" y="30" type="line" smooth="yes"/>
      <point x="70" y="13"/>
      <point x="83" y="0"/>
      <point x="100" y="0" type="curve" smooth="yes"/>
      <point x="117" y="0"/>
      <point x="130" y="13"/>
      <point x="130" y="30" type="curve" smooth="yes"/>
      <point x="130" y="723" type="line" smooth="yes"/>
      <point x="130" y="740"/>
      <point x="117" y="753"/>
      <point x="100" y="753" type="curve" smooth="yes"/>
      <point x="83" y="753"/>
      <point x="70" y="740"/>
    </contour>
    <contour>
      <point x="415" y="575" type="curve" smooth="yes"/>
      <point x="162" y="364" type="line" smooth="yes"/>
      <point x="155" y="358"/>
      <point x="151" y="350"/>
      <point x="151" y="341" type="curve" smooth="yes"/>
      <point x="151" y="324"/>
      <point x="164" y="311"/>
      <point x="181" y="311" type="curve" smooth="yes"/>
      <point x="188" y="311"/>
      <point x="195" y="314"/>
      <point x="200" y="318" type="curve" smooth="yes"/>
      <point x="453" y="529" type="line" smooth="yes"/>
      <point x="460" y="535"/>
      <point x="464" y="543"/>
      <point x="464" y="552" type="curve" smooth="yes"/>
      <point x="464" y="569"/>
      <point x="451" y="582"/>
      <point x="434" y="582" type="curve" smooth="yes"/>
      <point x="427" y="582"/>
      <point x="420" y="579"/>
    </contour>
    <contour>
      <point x="238" y="279" type="curve" smooth="yes"/>
      <point x="459" y="11" type="line" smooth="yes"/>
      <point x="464" y="4"/>
      <point x="473" y="0"/>
      <point x="482" y="0" type="curve" smooth="yes"/>
      <point x="499" y="0"/>
      <point x="512" y="13"/>
      <point x="512" y="30" type="curve" smooth="yes"/>
      <point x="512" y="37"/>
      <point x="509" y="44"/>
      <point x="505" y="49" type="curve" smooth="yes"/>
      <point x="284" y="317" type="line" smooth="yes"/>
      <point x="279" y="324"/>
      <point x="270" y="328"/>
      <point x="261" y="328" type="curve" smooth="yes"/>
      <point x="244" y="328"/>
      <point x="231" y="315"/>
      <point x="231" y="298" type="curve" smooth="yes"/>
      <point x="231" y="291"/>
      <point x="234" y="284"/>
    </contour>
  </outline>
</glyph>
<glyph name="l" format="2">
  <advance width="200"/>
  <unicode hex="006C"/>
  <anchor x="100" y="14" name="bottom"/>
  <anchor x="213" y="402" name="center"/>
  <anchor x="102" y="530" name="top"/>
  <anchor x="163" y="789" name="topright"/>
  <outline>
    <contour>
      <point x="70" y="723" type="curve" smooth="yes"/>
      <point x="70" y="30" type="line" smooth="yes"/>
      <point x="70" y="13"/>
      <point x="83" y="0"/>
      <point x="100" y="0" type="curve" smooth="yes"/>
      <point x="117" y="0"/>
      <point x="130" y="13"/>
      <point x="130" y="30" type="curve" smooth="yes"/>
      <point x="130" y="723" type="line" smooth="yes"/>
      <point x="130" y="740"/>
      <point x="117" y="753"/>
      <point x="100" y="753" type="curve" smooth="yes"/>
      <point x="83" y="753"/>
      <point x="70" y="740"/>
    </contour>
  </outline>
</glyph>
<glyph name="m" format="2">
  <advance width="894"/>
  <unicode hex="006D"/>
  <outline>
    <contour>
      <point x="753" y="654" type="curve" smooth="yes"/>
      <point x="486" y="140" type="line" smooth="yes"/>
      <point x="484" y="135"/>
      <point x="482" y="131"/>
      <point x="482" y="126" type="curve" smooth="yes"/>
      <point x="482" y="110"/>
      <point x="494" y="95"/>
      <point x="513" y="95" type="curve" smooth="yes"/>
      <point x="524" y="95"/>
      <point x="534" y="102"/>
      <point x="540" y="112" type="curve" smooth="yes"/>
      <point x="807" y="626" type="line" smooth="yes"/>
      <point x="809" y="631"/>
      <point x="811" y="635"/>
      <point x="811" y="640" type="curve" smooth="yes"/>
      <point x="811" y="656"/>
      <point x="799" y="671"/>
      <point x="780" y="671" type="curve" smooth="yes"/>
      <point x="769" y="671"/>
      <point x="759" y="664"/>
    </contour>
    <contour>
      <point x="85" y="640" type="curve" smooth="yes"/>
      <point x="85" y="0" type="line" smooth="yes"/>
      <point x="85" y="-17"/>
      <point x="98" y="-30"/>
      <point x="115" y="-30" type="curve" smooth="yes"/>
      <point x="132" y="-30"/>
      <point x="145" y="-17"/>
      <point x="145" y="0" type="curve" smooth="yes"/>
      <point x="145" y="640" type="line" smooth="yes"/>
      <point x="145" y="657"/>
      <point x="132" y="670"/>
      <point x="115" y="670" type="curve" smooth="yes"/>
      <point x="98" y="670"/>
      <point x="85" y="657"/>
    </contour>
    <contour>
      <point x="179" y="451" type="curve" smooth="yes"/>
      <point x="414" y="-14" type="line" smooth="yes"/>
      <point x="420" y="-25"/>
      <point x="430" y="-31"/>
      <point x="441" y="-31" type="curve" smooth="yes"/>
      <point x="445" y="-31"/>
      <point x="450" y="-30"/>
      <point x="454" y="-28" type="curve" smooth="yes"/>
      <point x="465" y="-23"/>
      <point x="471" y="-12"/>
      <point x="471" y="-1" type="curve" smooth="yes"/>
      <point x="471" y="3"/>
      <point x="470" y="8"/>
      <point x="468" y="12" type="curve" smooth="yes"/>
      <point x="233" y="477" type="line" smooth="yes"/>
      <point x="228" y="488"/>
      <point x="217" y="494"/>
      <point x="206" y="494" type="curve" smooth="yes"/>
      <point x="202" y="494"/>
      <point x="197" y="493"/>
      <point x="193" y="491" type="curve" smooth="yes"/>
      <point x="182" y="486"/>
      <point x="176" y="475"/>
      <point x="176" y="464" type="curve" smooth="yes"/>
      <point x="176" y="460"/>
      <point x="177" y="455"/>
    </contour>
    <contour>
      <point x="750" y="446" type="curve" smooth="yes"/>
      <point x="750" y="0" type="line" smooth="yes"/>
      <point x="750" y="-17"/>
      <point x="763" y="-30"/>
      <point x="780" y="-30" type="curve" smooth="yes"/>
      <point x="797" y="-30"/>
      <point x="810" y="-17"/>
      <point x="810" y="0" type="curve" smooth="yes"/>
      <point x="810" y="446" type="line" smooth="yes"/>
      <point x="810" y="463"/>
      <point x="797" y="476"/>
      <point x="780" y="476" type="curve" smooth="yes"/>
      <point x="763" y="476"/>
      <point x="750" y="463"/>
    </contour>
  </outline>
</glyph>
<glyph name="n" format="2">
  <advance width="663"/>
  <unicode hex="006E"/>
  <outline>
    <contour>
      <point x="91" y="623" type="curve" smooth="yes"/>
      <point x="524" y="-17" type="line" smooth="yes"/>
      <point x="530" y="-26"/>
      <point x="540" y="-31"/>
      <point x="550" y="-31" type="curve" smooth="yes"/>
      <point x="555" y="-31"/>
      <point x="561" y="-29"/>
      <point x="566" y="-26" type="curve" smooth="yes"/>
      <point x="575" y="-20"/>
      <point x="580" y="-10"/>
      <point x="580" y="0" type="curve" smooth="yes"/>
      <point x="580" y="5"/>
      <point x="578" y="11"/>
      <point x="575" y="16" type="curve" smooth="yes"/>
      <point x="142" y="656" type="line" smooth="yes"/>
      <point x="136" y="665"/>
      <point x="126" y="670"/>
      <point x="116" y="670" type="curve" smooth="yes"/>
      <point x="111" y="670"/>
      <point x="105" y="668"/>
      <point x="100" y="665" type="curve" smooth="yes"/>
      <point x="91" y="659"/>
      <point x="86" y="649"/>
      <point x="86" y="639" type="curve" smooth="yes"/>
      <point x="86" y="634"/>
      <point x="88" y="628"/>
    </contour>
    <contour>
      <point x="519" y="640" type="curve" smooth="yes"/>
      <point x="519" y="200" type="line" smooth="yes"/>
      <point x="519" y="183"/>
      <point x="532" y="170"/>
      <point x="549" y="170" type="curve" smooth="yes"/>
      <point x="566" y="170"/>
      <point x="579" y="183"/>
      <point x="579" y="200" type="curve" smooth="yes"/>
      <point x="579" y="640" type="line" smooth="yes"/>
      <point x="579" y="657"/>
      <point x="566" y="670"/>
      <point x="549" y="670" type="curve" smooth="yes"/>
      <point x="532" y="670"/>
      <point x="519" y="657"/>
    </contour>
    <contour>
      <point x="86" y="440" type="curve" smooth="yes"/>
      <point x="86" y="0" type="line" smooth="yes"/>
      <point x="86" y="-17"/>
      <point x="99" y="-30"/>
      <point x="116" y="-30" type="curve" smooth="yes"/>
      <point x="133" y="-30"/>
      <point x="146" y="-17"/>
      <point x="146" y="0" type="curve" smooth="yes"/>
      <point x="146" y="440" type="line" smooth="yes"/>
      <point x="146" y="457"/>
      <point x="133" y="470"/>
      <point x="116" y="470" type="curve" smooth="yes"/>
      <point x="99" y="470"/>
      <point x="86" y="457"/>
    </contour>
  </outline>
</glyph>
<glyph name="o" format="2">
  <advance width="618"/>
  <unicode hex="006F"/>
  <anchor x="309" y="15" name="bottom"/>
  <anchor x="309" y="291" name="center"/>
  <anchor x="333" y="25" name="ogonek"/>
  <anchor x="309" y="627" name="top"/>
  <anchor x="598" y="567" name="topright"/>
  <outline>
    <contour>
      <point x="578" y="338" type="curve" smooth="yes"/>
      <point x="578" y="495"/>
      <point x="453" y="588"/>
      <point x="309" y="588" type="curve" smooth="yes"/>
      <point x="165" y="588"/>
      <point x="40" y="495"/>
      <point x="40" y="338" type="curve" smooth="yes"/>
      <point x="40" y="321"/>
      <point x="53" y="308"/>
      <point x="70" y="308" type="curve" smooth="yes"/>
      <point x="87" y="308"/>
      <point x="100" y="321"/>
      <point x="100" y="338" type="curve" smooth="yes"/>
      <point x="100" y="461"/>
      <point x="189" y="528"/>
      <point x="309" y="528" type="curve" smooth="yes"/>
      <point x="429" y="528"/>
      <point x="518" y="461"/>
      <point x="518" y="338" type="curve" smooth="yes"/>
      <point x="518" y="321"/>
      <point x="531" y="308"/>
      <point x="548" y="308" type="curve" smooth="yes"/>
      <point x="565" y="308"/>
      <point x="578" y="321"/>
    </contour>
    <contour>
      <point x="40" y="245" type="curve" smooth="yes"/>
      <point x="40" y="88"/>
      <point x="165" y="-5"/>
      <point x="309" y="-5" type="curve" smooth="yes"/>
      <point x="453" y="-5"/>
      <point x="578" y="88"/>
      <point x="578" y="245" type="curve" smooth="yes"/>
      <point x="578" y="262"/>
      <point x="565" y="275"/>
      <point x="548" y="275" type="curve" smooth="yes"/>
      <point x="531" y="275"/>
      <point x="518" y="262"/>
      <point x="518" y="245" type="curve" smooth="yes"/>
      <point x="518" y="122"/>
      <point x="429" y="55"/>
      <point x="309" y="55" type="curve" smooth="yes"/>
      <point x="189" y="55"/>
      <point x="100" y="122"/>
      <point x="100" y="245" type="curve" smooth="yes"/>
      <point x="100" y="262"/>
      <point x="87" y="275"/>
      <point x="70" y="275" type="curve" smooth="yes"/>
      <point x="53" y="275"/>
      <point x="40" y="262"/>
    </contour>
  </outline>
</glyph>
<glyph name="p" format="2">
  <advance width="611"/>
  <unicode hex="0070"/>
  <anchor x="333" y="15" name="bottom"/>
  <anchor x="333" y="627" name="top"/>
  <outline>
    <contour>
      <point x="130" y="-113" type="curve" smooth="yes"/>
      <point x="130" y="552" type="line" smooth="yes"/>
      <point x="130" y="569"/>
      <point x="117" y="582"/>
      <point x="100" y="582" type="curve" smooth="yes"/>
      <point x="83" y="582"/>
      <point x="70" y="569"/>
      <point x="70" y="552" type="curve" smooth="yes"/>
      <point x="70" y="-113" type="line" smooth="yes"/>
      <point x="70" y="-130"/>
      <point x="83" y="-143"/>
      <point x="100" y="-143" type="curve" smooth="yes"/>
      <point x="117" y="-143"/>
      <point x="130" y="-130"/>
    </contour>
    <contour>
      <point x="215" y="504" type="curve" smooth="yes"/>
      <point x="242" y="520"/>
      <point x="272" y="527"/>
      <point x="311" y="527" type="curve" smooth="yes"/>
      <point x="437" y="527"/>
      <point x="511" y="428"/>
      <point x="511" y="293" type="curve" smooth="yes"/>
      <point x="511" y="153"/>
      <point x="437" y="55"/>
      <point x="311" y="55" type="curve" smooth="yes"/>
      <point x="277" y="55"/>
      <point x="246" y="64"/>
      <point x="216" y="83" type="curve" smooth="yes"/>
      <point x="212" y="86"/>
      <point x="206" y="88"/>
      <point x="200" y="88" type="curve" smooth="yes"/>
      <point x="183" y="88"/>
      <point x="170" y="75"/>
      <point x="170" y="58" type="curve" smooth="yes"/>
      <point x="170" y="47"/>
      <point x="175" y="38"/>
      <point x="184" y="33" type="curve" smooth="yes"/>
      <point x="222" y="8"/>
      <point x="268" y="-5"/>
      <point x="311" y="-5" type="curve" smooth="yes"/>
      <point x="471" y="-5"/>
      <point x="571" y="129"/>
      <point x="571" y="293" type="curve" smooth="yes"/>
      <point x="571" y="452"/>
      <point x="471" y="587"/>
      <point x="311" y="587" type="curve" smooth="yes"/>
      <point x="264" y="587"/>
      <point x="220" y="577"/>
      <point x="185" y="556" type="curve" smooth="yes"/>
      <point x="176" y="551"/>
      <point x="170" y="541"/>
      <point x="170" y="530" type="curve" smooth="yes"/>
      <point x="170" y="513"/>
      <point x="183" y="500"/>
      <point x="200" y="500" type="curve" smooth="yes"/>
      <point x="205" y="500"/>
      <point x="211" y="501"/>
    </contour>
  </outline>
</glyph>
<glyph name="r" format="2">
  <advance width="650"/>
  <unicode hex="0072"/>
  <outline>
    <contour>
      <point x="86" y="640" type="curve" smooth="yes"/>
      <point x="86" y="0" type="line" smooth="yes"/>
      <point x="86" y="-17"/>
      <point x="99" y="-30"/>
      <point x="116" y="-30" type="curve" smooth="yes"/>
      <point x="133" y="-30"/>
      <point x="146" y="-17"/>
      <point x="146" y="0" type="curve" smooth="yes"/>
      <point x="146" y="640" type="line" smooth="yes"/>
      <point x="146" y="657"/>
      <point x="133" y="670"/>
      <point x="116" y="670" type="curve" smooth="yes"/>
      <point x="99" y="670"/>
      <point x="86" y="657"/>
    </contour>
    <contour>
      <point x="374" y="669" type="curve"/>
      <point x="374" y="670" type="line"/>
      <point x="216" y="670" type="line" smooth="yes"/>
      <point x="199" y="670"/>
      <point x="186" y="657"/>
      <point x="186" y="640" type="curve" smooth="yes"/>
      <point x="186" y="623"/>
      <point x="199" y="610"/>
      <point x="216" y="610" type="curve" smooth="yes"/>
      <point x="374" y="610" type="line" smooth="yes"/>
      <point x="470" y="610"/>
      <point x="501" y="558"/>
      <point x="501" y="488" type="curve" smooth="yes"/>
      <point x="501" y="426"/>
      <point x="476" y="369"/>
      <point x="376" y="369" type="curve" smooth="yes"/>
      <point x="222" y="369" type="line" smooth="yes"/>
      <point x="205" y="369"/>
      <point x="192" y="356"/>
      <point x="192" y="339" type="curve" smooth="yes"/>
      <point x="192" y="322"/>
      <point x="205" y="309"/>
      <point x="222" y="309" type="curve" smooth="yes"/>
      <point x="376" y="309" type="line" smooth="yes"/>
      <point x="485" y="309"/>
      <point x="561" y="367"/>
      <point x="561" y="487" type="curve" smooth="yes"/>
      <point x="561" y="608"/>
      <point x="486" y="669"/>
    </contour>
    <contour>
      <point x="270" y="238" type="curve" smooth="yes"/>
      <point x="544" y="-22" type="line" smooth="yes"/>
      <point x="550" y="-27"/>
      <point x="557" y="-30"/>
      <point x="565" y="-30" type="curve" smooth="yes"/>
      <point x="573" y="-30"/>
      <point x="580" y="-27"/>
      <point x="586" y="-21" type="curve" smooth="yes"/>
      <point x="591" y="-15"/>
      <point x="594" y="-8"/>
      <point x="594" y="0" type="curve" smooth="yes"/>
      <point x="594" y="8"/>
      <point x="591" y="15"/>
      <point x="585" y="21" type="curve" smooth="yes"/>
      <point x="311" y="281" type="line" smooth="yes"/>
      <point x="305" y="286"/>
      <point x="298" y="289"/>
      <point x="290" y="289" type="curve" smooth="yes"/>
      <point x="282" y="289"/>
      <point x="275" y="286"/>
      <point x="269" y="280" type="curve" smooth="yes"/>
      <point x="264" y="274"/>
      <point x="261" y="267"/>
      <point x="261" y="259" type="curve" smooth="yes"/>
      <point x="261" y="251"/>
      <point x="264" y="244"/>
    </contour>
  </outline>
</glyph>
<glyph name="s" format="2">
  <advance width="583"/>
  <unicode hex="0073"/>
  <outline>
    <contour>
      <point x="292" y="669" type="curve" smooth="yes"/>
      <point x="290" y="669" type="line" smooth="yes"/>
      <point x="266" y="669"/>
      <point x="241" y="666"/>
      <point x="217" y="658" type="curve" smooth="yes"/>
      <point x="192" y="649"/>
      <point x="168" y="635"/>
      <point x="149" y="615" type="curve" smooth="yes"/>
      <point x="113" y="578"/>
      <point x="106" y="533"/>
      <point x="106" y="514" type="curve" smooth="yes"/>
      <point x="106" y="497"/>
      <point x="120" y="484"/>
      <point x="137" y="484" type="curve" smooth="yes"/>
      <point x="153" y="484"/>
      <point x="166" y="497"/>
      <point x="167" y="513" type="curve" smooth="yes"/>
      <point x="168" y="525"/>
      <point x="172" y="551"/>
      <point x="194" y="573" type="curve" smooth="yes"/>
      <point x="206" y="585"/>
      <point x="222" y="594"/>
      <point x="239" y="600" type="curve" smooth="yes"/>
      <point x="256" y="606"/>
      <point x="274" y="609"/>
      <point x="293" y="609" type="curve" smooth="yes"/>
      <point x="295" y="609" type="line" smooth="yes"/>
      <point x="365" y="609"/>
      <point x="434" y="563"/>
      <point x="438" y="490" type="curve" smooth="yes"/>
      <point x="439" y="474"/>
      <point x="452" y="461"/>
      <point x="468" y="461" type="curve" smooth="yes"/>
      <point x="486" y="461"/>
      <point x="500" y="475"/>
      <point x="499" y="493" type="curve" smooth="yes"/>
      <point x="496" y="548"/>
      <point x="466" y="597"/>
      <point x="426" y="627" type="curve" smooth="yes"/>
      <point x="387" y="656"/>
      <point x="339" y="669"/>
    </contour>
    <contour>
      <point x="160" y="461" type="curve" smooth="yes"/>
      <point x="155" y="461"/>
      <point x="149" y="459"/>
      <point x="144" y="456" type="curve" smooth="yes"/>
      <point x="135" y="450"/>
      <point x="130" y="441"/>
      <point x="130" y="431" type="curve" smooth="yes"/>
      <point x="130" y="426"/>
      <point x="132" y="420"/>
      <point x="135" y="415" type="curve" smooth="yes"/>
      <point x="143" y="402"/>
      <point x="152" y="390"/>
      <point x="162" y="379" type="curve" smooth="yes"/>
      <point x="196" y="344"/>
      <point x="239" y="322"/>
      <point x="281" y="307" type="curve" smooth="yes"/>
      <point x="328" y="290"/>
      <point x="375" y="280"/>
      <point x="410" y="255" type="curve" smooth="yes"/>
      <point x="417" y="250"/>
      <point x="424" y="244"/>
      <point x="430" y="238" type="curve" smooth="yes"/>
      <point x="436" y="232"/>
      <point x="444" y="228"/>
      <point x="452" y="228" type="curve" smooth="yes"/>
      <point x="459" y="228"/>
      <point x="466" y="231"/>
      <point x="472" y="236" type="curve" smooth="yes"/>
      <point x="478" y="242"/>
      <point x="482" y="250"/>
      <point x="482" y="258" type="curve" smooth="yes"/>
      <point x="482" y="265"/>
      <point x="479" y="272"/>
      <point x="474" y="278" type="curve" smooth="yes"/>
      <point x="465" y="287"/>
      <point x="455" y="295"/>
      <point x="445" y="302" type="curve" smooth="yes"/>
      <point x="401" y="334"/>
      <point x="345" y="347"/>
      <point x="302" y="363" type="curve" smooth="yes"/>
      <point x="248" y="382"/>
      <point x="216" y="404"/>
      <point x="185" y="447" type="curve" smooth="yes"/>
      <point x="179" y="456"/>
      <point x="170" y="461"/>
    </contour>
    <contour>
      <point x="293" y="-29" type="curve" smooth="yes"/>
      <point x="294" y="-29" type="line" smooth="yes"/>
      <point x="323" y="-29"/>
      <point x="353" y="-25"/>
      <point x="382" y="-16" type="curve" smooth="yes"/>
      <point x="411" y="-7"/>
      <point x="439" y="8"/>
      <point x="462" y="30" type="curve" smooth="yes"/>
      <point x="492" y="58"/>
      <point x="518" y="105"/>
      <point x="521" y="157" type="curve" smooth="yes"/>
      <point x="521" y="160" type="line" smooth="yes"/>
      <point x="521" y="177"/>
      <point x="507" y="190"/>
      <point x="490" y="190" type="curve" smooth="yes"/>
      <point x="473" y="190"/>
      <point x="460" y="176"/>
      <point x="460" y="159" type="curve" smooth="yes"/>
      <point x="460" y="157" type="line" smooth="yes"/>
      <point x="460" y="126"/>
      <point x="446" y="94"/>
      <point x="423" y="72" type="curve" smooth="yes"/>
      <point x="407" y="57"/>
      <point x="387" y="46"/>
      <point x="365" y="39" type="curve" smooth="yes"/>
      <point x="343" y="32"/>
      <point x="320" y="29"/>
      <point x="296" y="29" type="curve" smooth="yes"/>
      <point x="295" y="29" type="line" smooth="yes"/>
      <point x="267" y="29"/>
      <point x="240" y="33"/>
      <point x="215" y="42" type="curve" smooth="yes"/>
      <point x="190" y="51"/>
      <point x="167" y="65"/>
      <point x="149" y="83" type="curve" smooth="yes"/>
      <point x="125" y="107"/>
      <point x="111" y="141"/>
      <point x="111" y="174" type="curve" smooth="yes"/>
      <point x="111" y="178" type="line" smooth="yes"/>
      <point x="111" y="196"/>
      <point x="97" y="210"/>
      <point x="79" y="210" type="curve" smooth="yes"/>
      <point x="63" y="210"/>
      <point x="50" y="197"/>
      <point x="49" y="181" type="curve" smooth="yes"/>
      <point x="49" y="175" type="line" smooth="yes"/>
      <point x="49" y="125"/>
      <point x="69" y="77"/>
      <point x="104" y="42" type="curve" smooth="yes"/>
      <point x="129" y="16"/>
      <point x="160" y="-2"/>
      <point x="193" y="-13" type="curve" smooth="yes"/>
      <point x="225" y="-24"/>
      <point x="259" y="-29"/>
    </contour>
  </outline>
</glyph>
<glyph name="t" format="2">
  <advance width="510"/>
  <unicode hex="0074"/>
  <anchor x="319" y="15" name="bottom"/>
  <anchor x="249" y="291" name="center"/>
  <anchor x="198" y="663" name="top"/>
  <anchor x="416" y="789" name="topright"/>
  <outline>
    <contour>
      <point x="50" y="522" type="curve" smooth="yes"/>
      <point x="108" y="522" type="line" smooth="yes"/>
      <point x="125" y="522"/>
      <point x="138" y="535"/>
      <point x="138" y="552" type="curve" smooth="yes"/>
      <point x="138" y="569"/>
      <point x="125" y="582"/>
      <point x="108" y="582" type="curve" smooth="yes"/>
      <point x="50" y="582" type="line" smooth="yes"/>
      <point x="33" y="582"/>
      <point x="20" y="569"/>
      <point x="20" y="552" type="curve" smooth="yes"/>
      <point x="20" y="535"/>
      <point x="33" y="522"/>
    </contour>
    <contour>
      <point x="158" y="723" type="curve" smooth="yes"/>
      <point x="158" y="189" type="line" smooth="yes"/>
      <point x="158" y="79"/>
      <point x="209" y="-4"/>
      <point x="330" y="-4" type="curve" smooth="yes"/>
      <point x="416" y="-4"/>
      <point x="480" y="45"/>
      <point x="480" y="157" type="curve" smooth="yes"/>
      <point x="480" y="174"/>
      <point x="467" y="187"/>
      <point x="450" y="187" type="curve" smooth="yes"/>
      <point x="433" y="187"/>
      <point x="420" y="174"/>
      <point x="420" y="157" type="curve" smooth="yes"/>
      <point x="420" y="79"/>
      <point x="392" y="56"/>
      <point x="330" y="56" type="curve" smooth="yes"/>
      <point x="245" y="56"/>
      <point x="218" y="102"/>
      <point x="218" y="189" type="curve" smooth="yes"/>
      <point x="218" y="723" type="line" smooth="yes"/>
      <point x="218" y="740"/>
      <point x="205" y="753"/>
      <point x="188" y="753" type="curve" smooth="yes"/>
      <point x="171" y="753"/>
      <point x="158" y="740"/>
    </contour>
    <contour>
      <point x="267" y="522" type="curve" smooth="yes"/>
      <point x="403" y="522" type="line" smooth="yes"/>
      <point x="420" y="522"/>
      <point x="433" y="535"/>
      <point x="433" y="552" type="curve" smooth="yes"/>
      <point x="433" y="569"/>
      <point x="420" y="582"/>
      <point x="403" y="582" type="curve" smooth="yes"/>
      <point x="267" y="582" type="line" smooth="yes"/>
      <point x="250" y="582"/>
      <point x="237" y="569"/>
      <point x="237" y="552" type="curve" smooth="yes"/>
      <point x="237" y="535"/>
      <point x="250" y="522"/>
    </contour>
  </outline>
</glyph>
